M48
; DRILL file {KiCad 8.0.0} date 2024-04-11T14:57:08-0600
; FORMAT={-:-/ absolute / inch / decimal}
; #@! TF.CreationDate,2024-04-11T14:57:08-06:00
; #@! TF.GenerationSoftware,Kicad,Pcbnew,8.0.0
; #@! TF.FileFunction,Plated,1,4,PTH
FMAT,2
INCH
; #@! TA.AperFunction,Plated,PTH,ViaDrill
T1C0.0157
; #@! TA.AperFunction,Plated,PTH,ComponentDrill
T2C0.0157
%
G90
G05
T1
X3.7008Y-3.189
X3.7008Y-3.2874
X3.7008Y-3.3662
X3.7008Y-3.4547
X3.7008Y-3.5531
X3.7008Y-3.6024
X3.7008Y-3.7008
X3.7008Y-3.7795
X3.7008Y-3.8583
X3.7008Y-3.9567
X3.7598Y-3.189
X3.7598Y-3.2874
X3.7598Y-3.3662
X3.7598Y-3.4547
X3.7598Y-3.5531
X3.7598Y-3.6024
X3.7598Y-3.7008
X3.7598Y-3.7796
X3.7598Y-3.8583
X3.7598Y-3.9567
X3.8189Y-3.189
X3.8189Y-3.2874
X3.8189Y-3.3662
X3.8189Y-3.4547
X3.8189Y-3.5531
X3.8189Y-3.6024
X3.8189Y-3.7008
X3.8189Y-3.7795
X3.8189Y-3.8583
X3.8189Y-3.9567
X3.8192Y-3.2378
X3.8192Y-3.6511
X3.8192Y-3.5041
X3.8192Y-3.9076
X3.878Y-3.2874
X3.878Y-3.4449
X3.878Y-3.7008
X3.878Y-3.8583
X3.937Y-3.2874
X3.937Y-3.4449
X3.937Y-3.7008
X3.937Y-3.8583
X3.9961Y-3.2874
X3.9961Y-3.4449
X3.9961Y-3.7008
X3.9961Y-3.8583
X4.0551Y-3.2874
X4.0551Y-3.4449
X4.0551Y-3.7008
X4.0551Y-3.8583
X4.1142Y-3.2874
X4.1142Y-3.4449
X4.1142Y-3.7008
X4.1142Y-3.8583
X4.1732Y-3.2874
X4.1732Y-3.4449
X4.1732Y-3.7008
X4.1732Y-3.8583
X4.2323Y-3.2874
X4.2323Y-3.4449
X4.2323Y-3.7008
X4.2323Y-3.8583
X4.2913Y-3.2874
X4.2913Y-3.4449
X4.2913Y-3.7008
X4.2913Y-3.8583
X4.3504Y-3.2874
X4.3504Y-3.4449
X4.3504Y-3.7008
X4.3504Y-3.8583
X4.4094Y-3.2874
X4.4094Y-3.4449
X4.4094Y-3.7008
X4.4094Y-3.8583
X4.4685Y-3.2874
X4.4685Y-3.4449
X4.4685Y-3.7008
X4.4685Y-3.8583
X4.5276Y-3.2874
X4.5276Y-3.4449
X4.5276Y-3.7008
X4.5276Y-3.8583
X4.5866Y-3.2874
X4.5866Y-3.4449
X4.5866Y-3.7008
X4.5866Y-3.8583
X4.6457Y-3.2874
X4.6457Y-3.4449
X4.6457Y-3.7008
X4.6457Y-3.8583
X4.7047Y-3.2874
X4.7047Y-3.4449
X4.7047Y-3.7008
X4.7047Y-3.8583
X4.7638Y-3.2874
X4.7638Y-3.4449
X4.7638Y-3.7008
X4.7638Y-3.8583
X4.8228Y-3.2874
X4.8228Y-3.4449
X4.8228Y-3.7008
X4.8228Y-3.8583
X4.8819Y-3.2874
X4.8819Y-3.4449
X4.8819Y-3.7008
X4.8819Y-3.8583
X4.9409Y-3.2874
X4.9409Y-3.4449
X4.9409Y-3.7008
X4.9409Y-3.8583
X5.0Y-3.2874
X5.0Y-3.4449
X5.0Y-3.7008
X5.0Y-3.8583
X5.0591Y-3.2874
X5.0591Y-3.4449
X5.0591Y-3.7008
X5.0591Y-3.8583
X5.1181Y-3.2874
X5.1181Y-3.4449
X5.1181Y-3.7008
X5.1181Y-3.8583
X5.1772Y-3.2874
X5.1772Y-3.4449
X5.1772Y-3.7008
X5.1772Y-3.8583
X5.2362Y-3.2874
X5.2362Y-3.4449
X5.2362Y-3.7008
X5.2362Y-3.8583
X5.2953Y-3.2874
X5.2953Y-3.4449
X5.2953Y-3.7008
X5.2953Y-3.8583
X5.3543Y-3.2874
X5.3543Y-3.4449
X5.3543Y-3.7008
X5.3543Y-3.8583
X5.4134Y-3.2874
X5.4134Y-3.4449
X5.4134Y-3.7008
X5.4134Y-3.8583
X5.4724Y-3.2874
X5.4724Y-3.4449
X5.4724Y-3.7008
X5.4724Y-3.8583
X5.5315Y-3.2874
X5.5315Y-3.4449
X5.5315Y-3.7008
X5.5315Y-3.8583
X5.5906Y-3.2874
X5.5906Y-3.4449
X5.5906Y-3.7008
X5.5906Y-3.8583
X5.6496Y-3.2874
X5.6496Y-3.4449
X5.6496Y-3.7008
X5.6496Y-3.8583
X5.7087Y-3.2874
X5.7087Y-3.2874
X5.7087Y-3.4449
X5.7087Y-3.4449
X5.7087Y-3.7008
X5.7087Y-3.7008
X5.7087Y-3.8583
X5.7087Y-3.8583
X5.7677Y-3.2874
X5.7677Y-3.4449
X5.7677Y-3.7008
X5.7677Y-3.8583
X5.8268Y-3.2874
X5.8268Y-3.4449
X5.8268Y-3.7008
X5.8268Y-3.8583
X5.8858Y-3.2874
X5.8858Y-3.4449
X5.8858Y-3.7008
X5.8858Y-3.8583
X5.9449Y-3.2874
X5.9449Y-3.4449
X5.9449Y-3.7008
X5.9449Y-3.8583
X6.0039Y-3.2874
X6.0039Y-3.4449
X6.0039Y-3.7008
X6.0039Y-3.8583
X6.063Y-3.2874
X6.063Y-3.4449
X6.063Y-3.7008
X6.063Y-3.8583
X6.122Y-3.2874
X6.122Y-3.4449
X6.122Y-3.7008
X6.122Y-3.8583
X6.1811Y-3.2874
X6.1811Y-3.4449
X6.1811Y-3.7008
X6.1811Y-3.8583
X6.2402Y-3.2874
X6.2402Y-3.4449
X6.2402Y-3.7008
X6.2402Y-3.8583
X6.2992Y-3.2874
X6.2992Y-3.4449
X6.2992Y-3.7008
X6.2992Y-3.8583
X6.3583Y-3.2874
X6.3583Y-3.4449
X6.3583Y-3.7008
X6.3583Y-3.8583
X6.4173Y-3.2874
X6.4173Y-3.4449
X6.4173Y-3.7008
X6.4173Y-3.8583
X6.4764Y-3.2874
X6.4764Y-3.4449
X6.4764Y-3.7008
X6.4764Y-3.8583
X6.5354Y-3.2874
X6.5354Y-3.4449
X6.5354Y-3.7008
X6.5354Y-3.8583
X6.5945Y-3.2874
X6.5945Y-3.4449
X6.5945Y-3.7008
X6.5945Y-3.8583
X6.6535Y-3.2874
X6.6535Y-3.4449
X6.6535Y-3.7008
X6.6535Y-3.8583
X6.7126Y-3.4449
X6.7126Y-3.7008
X6.7126Y-3.8583
X6.7148Y-3.2874
X6.7281Y-3.9164
X6.7302Y-3.2292
X6.7323Y-3.5138
X6.7323Y-3.6319
X6.7516Y-3.9718
X6.752Y-3.5728
X6.7538Y-3.1739
X6.7717Y-3.4449
X6.7717Y-3.7008
X6.7829Y-4.0232
X6.7851Y-3.1225
X6.811Y-3.4449
X6.811Y-3.7008
X6.8212Y-4.0696
X6.8233Y-3.076
X6.8504Y-3.7795
X6.8504Y-3.3681
X6.8567Y-3.7208
X6.8567Y-3.8382
X6.8567Y-3.3094
X6.8567Y-3.4268
X6.8657Y-4.1102
X6.8678Y-3.0355
X6.8754Y-3.8943
X6.8754Y-3.2534
X6.9056Y-3.945
X6.9056Y-3.2026
X6.9145Y-3.7287
X6.9155Y-3.4151
X6.9155Y-4.1439
X6.9177Y-3.0018
X6.9366Y-3.5728
X6.9459Y-3.9881
X6.9459Y-3.1595
X6.9684Y-3.7555
X6.9696Y-3.3888
X6.9696Y-4.1702
X6.9718Y-2.9755
X6.9829Y-3.6067
X6.984Y-3.5352
X6.9945Y-4.0217
X6.9945Y-3.1259
X7.0255Y-3.7744
X7.0269Y-3.3705
X7.0269Y-4.1885
X7.0291Y-2.9572
X7.0365Y-3.6315
X7.0378Y-3.5108
X7.0491Y-4.0442
X7.0491Y-3.1035
X7.0847Y-3.7849
X7.0863Y-3.3606
X7.0863Y-4.1985
X7.0885Y-2.9472
X7.0942Y-3.6444
X7.0955Y-3.4985
X7.1072Y-4.0545
X7.1072Y-3.0932
X7.1449Y-3.7869
X7.1464Y-3.3592
X7.1464Y-4.1998
X7.1486Y-2.9458
X7.1532Y-3.6446
X7.1546Y-3.4988
X7.1662Y-4.0522
X7.1662Y-3.0955
X7.2047Y-3.7803
X7.2062Y-3.3664
X7.2062Y-4.1926
X7.2084Y-2.953
X7.211Y-3.6323
X7.2122Y-3.5116
X7.2234Y-4.0373
X7.2234Y-3.1103
X7.263Y-3.7652
X7.2643Y-3.3821
X7.2643Y-4.177
X7.2648Y-3.608
X7.2658Y-3.5364
X7.2665Y-2.9687
X7.2761Y-4.0107
X7.2761Y-3.137
X7.3185Y-3.7419
X7.3195Y-3.4059
X7.3195Y-4.1532
X7.3217Y-2.9925
X7.3219Y-3.9734
X7.3219Y-3.1743
X7.3587Y-3.9272
X7.3587Y-3.2204
X7.3709Y-4.1218
X7.373Y-3.0239
X7.3848Y-3.8742
X7.3848Y-3.2734
X7.399Y-3.7598
X7.399Y-3.8169
X7.399Y-3.3307
X7.399Y-3.3858
X7.4172Y-4.0833
X7.4194Y-3.0623
X7.4575Y-4.0387
X7.4597Y-3.107
X7.4911Y-3.9888
X7.4933Y-3.1569
X7.5172Y-3.9345
X7.5194Y-3.2111
X7.5353Y-3.6819
X7.5353Y-3.8772
X7.5373Y-3.462
X7.5375Y-3.2685
X7.5451Y-3.7413
X7.5451Y-3.8178
X7.547Y-3.4026
X7.5472Y-3.3279
T2
X3.7598Y-3.2421
X3.7598Y-3.5039
X3.7598Y-3.6486
X3.7598Y-3.9104
M30
