%TF.GenerationSoftware,KiCad,Pcbnew,8.0.0*%
%TF.CreationDate,2024-04-11T14:57:10-06:00*%
%TF.ProjectId,dual_loop_probe_groundfix,6475616c-5f6c-46f6-9f70-5f70726f6265,rev?*%
%TF.SameCoordinates,Original*%
%TF.FileFunction,Drillmap*%
%TF.FilePolarity,Positive*%
%FSLAX45Y45*%
G04 Gerber Fmt 4.5, Leading zero omitted, Abs format (unit mm)*
G04 Created by KiCad (PCBNEW 8.0.0) date 2024-04-11 14:57:10*
%MOMM*%
%LPD*%
G01*
G04 APERTURE LIST*
%ADD10C,0.150000*%
%ADD11C,0.200000*%
%ADD12C,0.100000*%
G04 APERTURE END LIST*
D10*
X18100000Y-7400000D02*
X9300000Y-7400000D01*
X19250000Y-9600000D02*
G75*
G02*
X18100000Y-10750000I-1150000J0D01*
G01*
X18475000Y-9075000D02*
G75*
G02*
X17725000Y-9075000I-375000J488709D01*
G01*
X19250000Y-8500000D02*
X19250000Y-9600000D01*
X17497002Y-8623373D02*
G75*
G02*
X18693279Y-8616940I603408J-976597D01*
G01*
X18703080Y-9532179D02*
G75*
G02*
X17497085Y-9530736I-601820J984869D01*
G01*
X17497002Y-8623373D02*
G75*
G02*
X18693282Y-8616936I597762J73396D01*
G01*
X17725000Y-9075000D02*
G75*
G02*
X18475000Y-9075000I375000J-488709D01*
G01*
X18100000Y-10750000D02*
X9300000Y-10750000D01*
X9300000Y-10750000D02*
X9300000Y-7400000D01*
X18703080Y-9532179D02*
G75*
G02*
X17497083Y-9530738I-603080J-67821D01*
G01*
X18100000Y-7400000D02*
G75*
G02*
X19250000Y-8500000I25000J-1125000D01*
G01*
D11*
D12*
X9380000Y-8080000D02*
X9420000Y-8120000D01*
X9420000Y-8080000D02*
X9380000Y-8120000D01*
X9380000Y-8330000D02*
X9420000Y-8370000D01*
X9420000Y-8330000D02*
X9380000Y-8370000D01*
X9380000Y-8530092D02*
X9420000Y-8570092D01*
X9420000Y-8530092D02*
X9380000Y-8570092D01*
X9380000Y-8755000D02*
X9420000Y-8795000D01*
X9420000Y-8755000D02*
X9380000Y-8795000D01*
X9380000Y-9005000D02*
X9420000Y-9045000D01*
X9420000Y-9005000D02*
X9380000Y-9045000D01*
X9380000Y-9130000D02*
X9420000Y-9170000D01*
X9420000Y-9130000D02*
X9380000Y-9170000D01*
X9380000Y-9380000D02*
X9420000Y-9420000D01*
X9420000Y-9380000D02*
X9380000Y-9420000D01*
X9380000Y-9580000D02*
X9420000Y-9620000D01*
X9420000Y-9580000D02*
X9380000Y-9620000D01*
X9380000Y-9780000D02*
X9420000Y-9820000D01*
X9420000Y-9780000D02*
X9380000Y-9820000D01*
X9380000Y-10030000D02*
X9420000Y-10070000D01*
X9420000Y-10030000D02*
X9380000Y-10070000D01*
X9530000Y-8080000D02*
X9570000Y-8120000D01*
X9570000Y-8080000D02*
X9530000Y-8120000D01*
X9530000Y-8330000D02*
X9570000Y-8370000D01*
X9570000Y-8330000D02*
X9530000Y-8370000D01*
X9530000Y-8530092D02*
X9570000Y-8570092D01*
X9570000Y-8530092D02*
X9530000Y-8570092D01*
X9530000Y-8755000D02*
X9570000Y-8795000D01*
X9570000Y-8755000D02*
X9530000Y-8795000D01*
X9530000Y-9005000D02*
X9570000Y-9045000D01*
X9570000Y-9005000D02*
X9530000Y-9045000D01*
X9530000Y-9130000D02*
X9570000Y-9170000D01*
X9570000Y-9130000D02*
X9530000Y-9170000D01*
X9530000Y-9380000D02*
X9570000Y-9420000D01*
X9570000Y-9380000D02*
X9530000Y-9420000D01*
X9530000Y-9580063D02*
X9570000Y-9620063D01*
X9570000Y-9580063D02*
X9530000Y-9620063D01*
X9530000Y-9780000D02*
X9570000Y-9820000D01*
X9570000Y-9780000D02*
X9530000Y-9820000D01*
X9530000Y-10030000D02*
X9570000Y-10070000D01*
X9570000Y-10030000D02*
X9530000Y-10070000D01*
X9680000Y-8080000D02*
X9720000Y-8120000D01*
X9720000Y-8080000D02*
X9680000Y-8120000D01*
X9680000Y-8330092D02*
X9720000Y-8370092D01*
X9720000Y-8330092D02*
X9680000Y-8370092D01*
X9680000Y-8530092D02*
X9720000Y-8570092D01*
X9720000Y-8530092D02*
X9680000Y-8570092D01*
X9680000Y-8755000D02*
X9720000Y-8795000D01*
X9720000Y-8755000D02*
X9680000Y-8795000D01*
X9680000Y-9005000D02*
X9720000Y-9045000D01*
X9720000Y-9005000D02*
X9680000Y-9045000D01*
X9680000Y-9130000D02*
X9720000Y-9170000D01*
X9720000Y-9130000D02*
X9680000Y-9170000D01*
X9680000Y-9380000D02*
X9720000Y-9420000D01*
X9720000Y-9380000D02*
X9680000Y-9420000D01*
X9680000Y-9580000D02*
X9720000Y-9620000D01*
X9720000Y-9580000D02*
X9680000Y-9620000D01*
X9680000Y-9780000D02*
X9720000Y-9820000D01*
X9720000Y-9780000D02*
X9680000Y-9820000D01*
X9680000Y-10030000D02*
X9720000Y-10070000D01*
X9720000Y-10030000D02*
X9680000Y-10070000D01*
X9680719Y-8203901D02*
X9720719Y-8243901D01*
X9720719Y-8203901D02*
X9680719Y-8243901D01*
X9680719Y-9253901D02*
X9720719Y-9293901D01*
X9720719Y-9253901D02*
X9680719Y-9293901D01*
X9680746Y-8880353D02*
X9720746Y-8920353D01*
X9720746Y-8880353D02*
X9680746Y-8920353D01*
X9680746Y-9905353D02*
X9720746Y-9945353D01*
X9720746Y-9905353D02*
X9680746Y-9945353D01*
X9830000Y-8330000D02*
X9870000Y-8370000D01*
X9870000Y-8330000D02*
X9830000Y-8370000D01*
X9830000Y-8730000D02*
X9870000Y-8770000D01*
X9870000Y-8730000D02*
X9830000Y-8770000D01*
X9830000Y-9380000D02*
X9870000Y-9420000D01*
X9870000Y-9380000D02*
X9830000Y-9420000D01*
X9830000Y-9780000D02*
X9870000Y-9820000D01*
X9870000Y-9780000D02*
X9830000Y-9820000D01*
X9980000Y-8330000D02*
X10020000Y-8370000D01*
X10020000Y-8330000D02*
X9980000Y-8370000D01*
X9980000Y-8730000D02*
X10020000Y-8770000D01*
X10020000Y-8730000D02*
X9980000Y-8770000D01*
X9980000Y-9380000D02*
X10020000Y-9420000D01*
X10020000Y-9380000D02*
X9980000Y-9420000D01*
X9980000Y-9780000D02*
X10020000Y-9820000D01*
X10020000Y-9780000D02*
X9980000Y-9820000D01*
X10130000Y-8330000D02*
X10170000Y-8370000D01*
X10170000Y-8330000D02*
X10130000Y-8370000D01*
X10130000Y-8730000D02*
X10170000Y-8770000D01*
X10170000Y-8730000D02*
X10130000Y-8770000D01*
X10130000Y-9380000D02*
X10170000Y-9420000D01*
X10170000Y-9380000D02*
X10130000Y-9420000D01*
X10130000Y-9780000D02*
X10170000Y-9820000D01*
X10170000Y-9780000D02*
X10130000Y-9820000D01*
X10280000Y-8330000D02*
X10320000Y-8370000D01*
X10320000Y-8330000D02*
X10280000Y-8370000D01*
X10280000Y-8730000D02*
X10320000Y-8770000D01*
X10320000Y-8730000D02*
X10280000Y-8770000D01*
X10280000Y-9380000D02*
X10320000Y-9420000D01*
X10320000Y-9380000D02*
X10280000Y-9420000D01*
X10280000Y-9780000D02*
X10320000Y-9820000D01*
X10320000Y-9780000D02*
X10280000Y-9820000D01*
X10430000Y-8330000D02*
X10470000Y-8370000D01*
X10470000Y-8330000D02*
X10430000Y-8370000D01*
X10430000Y-8730000D02*
X10470000Y-8770000D01*
X10470000Y-8730000D02*
X10430000Y-8770000D01*
X10430000Y-9380000D02*
X10470000Y-9420000D01*
X10470000Y-9380000D02*
X10430000Y-9420000D01*
X10430000Y-9780000D02*
X10470000Y-9820000D01*
X10470000Y-9780000D02*
X10430000Y-9820000D01*
X10580000Y-8330000D02*
X10620000Y-8370000D01*
X10620000Y-8330000D02*
X10580000Y-8370000D01*
X10580000Y-8730000D02*
X10620000Y-8770000D01*
X10620000Y-8730000D02*
X10580000Y-8770000D01*
X10580000Y-9380000D02*
X10620000Y-9420000D01*
X10620000Y-9380000D02*
X10580000Y-9420000D01*
X10580000Y-9780000D02*
X10620000Y-9820000D01*
X10620000Y-9780000D02*
X10580000Y-9820000D01*
X10730000Y-8330000D02*
X10770000Y-8370000D01*
X10770000Y-8330000D02*
X10730000Y-8370000D01*
X10730000Y-8730000D02*
X10770000Y-8770000D01*
X10770000Y-8730000D02*
X10730000Y-8770000D01*
X10730000Y-9380000D02*
X10770000Y-9420000D01*
X10770000Y-9380000D02*
X10730000Y-9420000D01*
X10730000Y-9780000D02*
X10770000Y-9820000D01*
X10770000Y-9780000D02*
X10730000Y-9820000D01*
X10880000Y-8330000D02*
X10920000Y-8370000D01*
X10920000Y-8330000D02*
X10880000Y-8370000D01*
X10880000Y-8730000D02*
X10920000Y-8770000D01*
X10920000Y-8730000D02*
X10880000Y-8770000D01*
X10880000Y-9380000D02*
X10920000Y-9420000D01*
X10920000Y-9380000D02*
X10880000Y-9420000D01*
X10880000Y-9780000D02*
X10920000Y-9820000D01*
X10920000Y-9780000D02*
X10880000Y-9820000D01*
X11030000Y-8330000D02*
X11070000Y-8370000D01*
X11070000Y-8330000D02*
X11030000Y-8370000D01*
X11030000Y-8730000D02*
X11070000Y-8770000D01*
X11070000Y-8730000D02*
X11030000Y-8770000D01*
X11030000Y-9380000D02*
X11070000Y-9420000D01*
X11070000Y-9380000D02*
X11030000Y-9420000D01*
X11030000Y-9780000D02*
X11070000Y-9820000D01*
X11070000Y-9780000D02*
X11030000Y-9820000D01*
X11180000Y-8330000D02*
X11220000Y-8370000D01*
X11220000Y-8330000D02*
X11180000Y-8370000D01*
X11180000Y-8730000D02*
X11220000Y-8770000D01*
X11220000Y-8730000D02*
X11180000Y-8770000D01*
X11180000Y-9380000D02*
X11220000Y-9420000D01*
X11220000Y-9380000D02*
X11180000Y-9420000D01*
X11180000Y-9780000D02*
X11220000Y-9820000D01*
X11220000Y-9780000D02*
X11180000Y-9820000D01*
X11330000Y-8330000D02*
X11370000Y-8370000D01*
X11370000Y-8330000D02*
X11330000Y-8370000D01*
X11330000Y-8730000D02*
X11370000Y-8770000D01*
X11370000Y-8730000D02*
X11330000Y-8770000D01*
X11330000Y-9380000D02*
X11370000Y-9420000D01*
X11370000Y-9380000D02*
X11330000Y-9420000D01*
X11330000Y-9780000D02*
X11370000Y-9820000D01*
X11370000Y-9780000D02*
X11330000Y-9820000D01*
X11480000Y-8330000D02*
X11520000Y-8370000D01*
X11520000Y-8330000D02*
X11480000Y-8370000D01*
X11480000Y-8730000D02*
X11520000Y-8770000D01*
X11520000Y-8730000D02*
X11480000Y-8770000D01*
X11480000Y-9380000D02*
X11520000Y-9420000D01*
X11520000Y-9380000D02*
X11480000Y-9420000D01*
X11480000Y-9780000D02*
X11520000Y-9820000D01*
X11520000Y-9780000D02*
X11480000Y-9820000D01*
X11630000Y-8330000D02*
X11670000Y-8370000D01*
X11670000Y-8330000D02*
X11630000Y-8370000D01*
X11630000Y-8730000D02*
X11670000Y-8770000D01*
X11670000Y-8730000D02*
X11630000Y-8770000D01*
X11630000Y-9380000D02*
X11670000Y-9420000D01*
X11670000Y-9380000D02*
X11630000Y-9420000D01*
X11630000Y-9780000D02*
X11670000Y-9820000D01*
X11670000Y-9780000D02*
X11630000Y-9820000D01*
X11780000Y-8330000D02*
X11820000Y-8370000D01*
X11820000Y-8330000D02*
X11780000Y-8370000D01*
X11780000Y-8730000D02*
X11820000Y-8770000D01*
X11820000Y-8730000D02*
X11780000Y-8770000D01*
X11780000Y-9380000D02*
X11820000Y-9420000D01*
X11820000Y-9380000D02*
X11780000Y-9420000D01*
X11780000Y-9780000D02*
X11820000Y-9820000D01*
X11820000Y-9780000D02*
X11780000Y-9820000D01*
X11930000Y-8330000D02*
X11970000Y-8370000D01*
X11970000Y-8330000D02*
X11930000Y-8370000D01*
X11930000Y-8730000D02*
X11970000Y-8770000D01*
X11970000Y-8730000D02*
X11930000Y-8770000D01*
X11930000Y-9380000D02*
X11970000Y-9420000D01*
X11970000Y-9380000D02*
X11930000Y-9420000D01*
X11930000Y-9780000D02*
X11970000Y-9820000D01*
X11970000Y-9780000D02*
X11930000Y-9820000D01*
X12080000Y-8330000D02*
X12120000Y-8370000D01*
X12120000Y-8330000D02*
X12080000Y-8370000D01*
X12080000Y-8730000D02*
X12120000Y-8770000D01*
X12120000Y-8730000D02*
X12080000Y-8770000D01*
X12080000Y-9380000D02*
X12120000Y-9420000D01*
X12120000Y-9380000D02*
X12080000Y-9420000D01*
X12080000Y-9780000D02*
X12120000Y-9820000D01*
X12120000Y-9780000D02*
X12080000Y-9820000D01*
X12230000Y-8330000D02*
X12270000Y-8370000D01*
X12270000Y-8330000D02*
X12230000Y-8370000D01*
X12230000Y-8730000D02*
X12270000Y-8770000D01*
X12270000Y-8730000D02*
X12230000Y-8770000D01*
X12230000Y-9380000D02*
X12270000Y-9420000D01*
X12270000Y-9380000D02*
X12230000Y-9420000D01*
X12230000Y-9780000D02*
X12270000Y-9820000D01*
X12270000Y-9780000D02*
X12230000Y-9820000D01*
X12380000Y-8330000D02*
X12420000Y-8370000D01*
X12420000Y-8330000D02*
X12380000Y-8370000D01*
X12380000Y-8730000D02*
X12420000Y-8770000D01*
X12420000Y-8730000D02*
X12380000Y-8770000D01*
X12380000Y-9380000D02*
X12420000Y-9420000D01*
X12420000Y-9380000D02*
X12380000Y-9420000D01*
X12380000Y-9780000D02*
X12420000Y-9820000D01*
X12420000Y-9780000D02*
X12380000Y-9820000D01*
X12530000Y-8330000D02*
X12570000Y-8370000D01*
X12570000Y-8330000D02*
X12530000Y-8370000D01*
X12530000Y-8730000D02*
X12570000Y-8770000D01*
X12570000Y-8730000D02*
X12530000Y-8770000D01*
X12530000Y-9380000D02*
X12570000Y-9420000D01*
X12570000Y-9380000D02*
X12530000Y-9420000D01*
X12530000Y-9780000D02*
X12570000Y-9820000D01*
X12570000Y-9780000D02*
X12530000Y-9820000D01*
X12680000Y-8330000D02*
X12720000Y-8370000D01*
X12720000Y-8330000D02*
X12680000Y-8370000D01*
X12680000Y-8730000D02*
X12720000Y-8770000D01*
X12720000Y-8730000D02*
X12680000Y-8770000D01*
X12680000Y-9380000D02*
X12720000Y-9420000D01*
X12720000Y-9380000D02*
X12680000Y-9420000D01*
X12680000Y-9780000D02*
X12720000Y-9820000D01*
X12720000Y-9780000D02*
X12680000Y-9820000D01*
X12830000Y-8330000D02*
X12870000Y-8370000D01*
X12870000Y-8330000D02*
X12830000Y-8370000D01*
X12830000Y-8730000D02*
X12870000Y-8770000D01*
X12870000Y-8730000D02*
X12830000Y-8770000D01*
X12830000Y-9380000D02*
X12870000Y-9420000D01*
X12870000Y-9380000D02*
X12830000Y-9420000D01*
X12830000Y-9780000D02*
X12870000Y-9820000D01*
X12870000Y-9780000D02*
X12830000Y-9820000D01*
X12980000Y-8330000D02*
X13020000Y-8370000D01*
X13020000Y-8330000D02*
X12980000Y-8370000D01*
X12980000Y-8730000D02*
X13020000Y-8770000D01*
X13020000Y-8730000D02*
X12980000Y-8770000D01*
X12980000Y-9380000D02*
X13020000Y-9420000D01*
X13020000Y-9380000D02*
X12980000Y-9420000D01*
X12980000Y-9780000D02*
X13020000Y-9820000D01*
X13020000Y-9780000D02*
X12980000Y-9820000D01*
X13130000Y-8330000D02*
X13170000Y-8370000D01*
X13170000Y-8330000D02*
X13130000Y-8370000D01*
X13130000Y-8730000D02*
X13170000Y-8770000D01*
X13170000Y-8730000D02*
X13130000Y-8770000D01*
X13130000Y-9380000D02*
X13170000Y-9420000D01*
X13170000Y-9380000D02*
X13130000Y-9420000D01*
X13130000Y-9780000D02*
X13170000Y-9820000D01*
X13170000Y-9780000D02*
X13130000Y-9820000D01*
X13280000Y-8330000D02*
X13320000Y-8370000D01*
X13320000Y-8330000D02*
X13280000Y-8370000D01*
X13280000Y-8730000D02*
X13320000Y-8770000D01*
X13320000Y-8730000D02*
X13280000Y-8770000D01*
X13280000Y-9380000D02*
X13320000Y-9420000D01*
X13320000Y-9380000D02*
X13280000Y-9420000D01*
X13280000Y-9780000D02*
X13320000Y-9820000D01*
X13320000Y-9780000D02*
X13280000Y-9820000D01*
X13430000Y-8330000D02*
X13470000Y-8370000D01*
X13470000Y-8330000D02*
X13430000Y-8370000D01*
X13430000Y-8730000D02*
X13470000Y-8770000D01*
X13470000Y-8730000D02*
X13430000Y-8770000D01*
X13430000Y-9380000D02*
X13470000Y-9420000D01*
X13470000Y-9380000D02*
X13430000Y-9420000D01*
X13430000Y-9780000D02*
X13470000Y-9820000D01*
X13470000Y-9780000D02*
X13430000Y-9820000D01*
X13580000Y-8330000D02*
X13620000Y-8370000D01*
X13620000Y-8330000D02*
X13580000Y-8370000D01*
X13580000Y-8730000D02*
X13620000Y-8770000D01*
X13620000Y-8730000D02*
X13580000Y-8770000D01*
X13580000Y-9380000D02*
X13620000Y-9420000D01*
X13620000Y-9380000D02*
X13580000Y-9420000D01*
X13580000Y-9780000D02*
X13620000Y-9820000D01*
X13620000Y-9780000D02*
X13580000Y-9820000D01*
X13730000Y-8330000D02*
X13770000Y-8370000D01*
X13770000Y-8330000D02*
X13730000Y-8370000D01*
X13730000Y-8730000D02*
X13770000Y-8770000D01*
X13770000Y-8730000D02*
X13730000Y-8770000D01*
X13730000Y-9380000D02*
X13770000Y-9420000D01*
X13770000Y-9380000D02*
X13730000Y-9420000D01*
X13730000Y-9780000D02*
X13770000Y-9820000D01*
X13770000Y-9780000D02*
X13730000Y-9820000D01*
X13880000Y-8330000D02*
X13920000Y-8370000D01*
X13920000Y-8330000D02*
X13880000Y-8370000D01*
X13880000Y-8730000D02*
X13920000Y-8770000D01*
X13920000Y-8730000D02*
X13880000Y-8770000D01*
X13880000Y-9380000D02*
X13920000Y-9420000D01*
X13920000Y-9380000D02*
X13880000Y-9420000D01*
X13880000Y-9780000D02*
X13920000Y-9820000D01*
X13920000Y-9780000D02*
X13880000Y-9820000D01*
X14030000Y-8330000D02*
X14070000Y-8370000D01*
X14070000Y-8330000D02*
X14030000Y-8370000D01*
X14030000Y-8730000D02*
X14070000Y-8770000D01*
X14070000Y-8730000D02*
X14030000Y-8770000D01*
X14030000Y-9380000D02*
X14070000Y-9420000D01*
X14070000Y-9380000D02*
X14030000Y-9420000D01*
X14030000Y-9780000D02*
X14070000Y-9820000D01*
X14070000Y-9780000D02*
X14030000Y-9820000D01*
X14180000Y-8330000D02*
X14220000Y-8370000D01*
X14220000Y-8330000D02*
X14180000Y-8370000D01*
X14180000Y-8730000D02*
X14220000Y-8770000D01*
X14220000Y-8730000D02*
X14180000Y-8770000D01*
X14180000Y-9380000D02*
X14220000Y-9420000D01*
X14220000Y-9380000D02*
X14180000Y-9420000D01*
X14180000Y-9780000D02*
X14220000Y-9820000D01*
X14220000Y-9780000D02*
X14180000Y-9820000D01*
X14330000Y-8330000D02*
X14370000Y-8370000D01*
X14370000Y-8330000D02*
X14330000Y-8370000D01*
X14330000Y-8730000D02*
X14370000Y-8770000D01*
X14370000Y-8730000D02*
X14330000Y-8770000D01*
X14330000Y-9380000D02*
X14370000Y-9420000D01*
X14370000Y-9380000D02*
X14330000Y-9420000D01*
X14330000Y-9780000D02*
X14370000Y-9820000D01*
X14370000Y-9780000D02*
X14330000Y-9820000D01*
X14480000Y-8330000D02*
X14520000Y-8370000D01*
X14520000Y-8330000D02*
X14480000Y-8370000D01*
X14480000Y-8330000D02*
X14520000Y-8370000D01*
X14520000Y-8330000D02*
X14480000Y-8370000D01*
X14480000Y-8730000D02*
X14520000Y-8770000D01*
X14520000Y-8730000D02*
X14480000Y-8770000D01*
X14480000Y-8730000D02*
X14520000Y-8770000D01*
X14520000Y-8730000D02*
X14480000Y-8770000D01*
X14480000Y-9380000D02*
X14520000Y-9420000D01*
X14520000Y-9380000D02*
X14480000Y-9420000D01*
X14480000Y-9380000D02*
X14520000Y-9420000D01*
X14520000Y-9380000D02*
X14480000Y-9420000D01*
X14480000Y-9780000D02*
X14520000Y-9820000D01*
X14520000Y-9780000D02*
X14480000Y-9820000D01*
X14480000Y-9780000D02*
X14520000Y-9820000D01*
X14520000Y-9780000D02*
X14480000Y-9820000D01*
X14630000Y-8330000D02*
X14670000Y-8370000D01*
X14670000Y-8330000D02*
X14630000Y-8370000D01*
X14630000Y-8730000D02*
X14670000Y-8770000D01*
X14670000Y-8730000D02*
X14630000Y-8770000D01*
X14630000Y-9380000D02*
X14670000Y-9420000D01*
X14670000Y-9380000D02*
X14630000Y-9420000D01*
X14630000Y-9780000D02*
X14670000Y-9820000D01*
X14670000Y-9780000D02*
X14630000Y-9820000D01*
X14780000Y-8330000D02*
X14820000Y-8370000D01*
X14820000Y-8330000D02*
X14780000Y-8370000D01*
X14780000Y-8730000D02*
X14820000Y-8770000D01*
X14820000Y-8730000D02*
X14780000Y-8770000D01*
X14780000Y-9380000D02*
X14820000Y-9420000D01*
X14820000Y-9380000D02*
X14780000Y-9420000D01*
X14780000Y-9780000D02*
X14820000Y-9820000D01*
X14820000Y-9780000D02*
X14780000Y-9820000D01*
X14930000Y-8330000D02*
X14970000Y-8370000D01*
X14970000Y-8330000D02*
X14930000Y-8370000D01*
X14930000Y-8730000D02*
X14970000Y-8770000D01*
X14970000Y-8730000D02*
X14930000Y-8770000D01*
X14930000Y-9380000D02*
X14970000Y-9420000D01*
X14970000Y-9380000D02*
X14930000Y-9420000D01*
X14930000Y-9780000D02*
X14970000Y-9820000D01*
X14970000Y-9780000D02*
X14930000Y-9820000D01*
X15080000Y-8330000D02*
X15120000Y-8370000D01*
X15120000Y-8330000D02*
X15080000Y-8370000D01*
X15080000Y-8730000D02*
X15120000Y-8770000D01*
X15120000Y-8730000D02*
X15080000Y-8770000D01*
X15080000Y-9380000D02*
X15120000Y-9420000D01*
X15120000Y-9380000D02*
X15080000Y-9420000D01*
X15080000Y-9780000D02*
X15120000Y-9820000D01*
X15120000Y-9780000D02*
X15080000Y-9820000D01*
X15230000Y-8330000D02*
X15270000Y-8370000D01*
X15270000Y-8330000D02*
X15230000Y-8370000D01*
X15230000Y-8730000D02*
X15270000Y-8770000D01*
X15270000Y-8730000D02*
X15230000Y-8770000D01*
X15230000Y-9380000D02*
X15270000Y-9420000D01*
X15270000Y-9380000D02*
X15230000Y-9420000D01*
X15230000Y-9780000D02*
X15270000Y-9820000D01*
X15270000Y-9780000D02*
X15230000Y-9820000D01*
X15380000Y-8330000D02*
X15420000Y-8370000D01*
X15420000Y-8330000D02*
X15380000Y-8370000D01*
X15380000Y-8730000D02*
X15420000Y-8770000D01*
X15420000Y-8730000D02*
X15380000Y-8770000D01*
X15380000Y-9380000D02*
X15420000Y-9420000D01*
X15420000Y-9380000D02*
X15380000Y-9420000D01*
X15380000Y-9780000D02*
X15420000Y-9820000D01*
X15420000Y-9780000D02*
X15380000Y-9820000D01*
X15530000Y-8330000D02*
X15570000Y-8370000D01*
X15570000Y-8330000D02*
X15530000Y-8370000D01*
X15530000Y-8730000D02*
X15570000Y-8770000D01*
X15570000Y-8730000D02*
X15530000Y-8770000D01*
X15530000Y-9380000D02*
X15570000Y-9420000D01*
X15570000Y-9380000D02*
X15530000Y-9420000D01*
X15530000Y-9780000D02*
X15570000Y-9820000D01*
X15570000Y-9780000D02*
X15530000Y-9820000D01*
X15680000Y-8330000D02*
X15720000Y-8370000D01*
X15720000Y-8330000D02*
X15680000Y-8370000D01*
X15680000Y-8730000D02*
X15720000Y-8770000D01*
X15720000Y-8730000D02*
X15680000Y-8770000D01*
X15680000Y-9380000D02*
X15720000Y-9420000D01*
X15720000Y-9380000D02*
X15680000Y-9420000D01*
X15680000Y-9780000D02*
X15720000Y-9820000D01*
X15720000Y-9780000D02*
X15680000Y-9820000D01*
X15830000Y-8330000D02*
X15870000Y-8370000D01*
X15870000Y-8330000D02*
X15830000Y-8370000D01*
X15830000Y-8730000D02*
X15870000Y-8770000D01*
X15870000Y-8730000D02*
X15830000Y-8770000D01*
X15830000Y-9380000D02*
X15870000Y-9420000D01*
X15870000Y-9380000D02*
X15830000Y-9420000D01*
X15830000Y-9780000D02*
X15870000Y-9820000D01*
X15870000Y-9780000D02*
X15830000Y-9820000D01*
X15980000Y-8330000D02*
X16020000Y-8370000D01*
X16020000Y-8330000D02*
X15980000Y-8370000D01*
X15980000Y-8730000D02*
X16020000Y-8770000D01*
X16020000Y-8730000D02*
X15980000Y-8770000D01*
X15980000Y-9380000D02*
X16020000Y-9420000D01*
X16020000Y-9380000D02*
X15980000Y-9420000D01*
X15980000Y-9780000D02*
X16020000Y-9820000D01*
X16020000Y-9780000D02*
X15980000Y-9820000D01*
X16130000Y-8330000D02*
X16170000Y-8370000D01*
X16170000Y-8330000D02*
X16130000Y-8370000D01*
X16130000Y-8730000D02*
X16170000Y-8770000D01*
X16170000Y-8730000D02*
X16130000Y-8770000D01*
X16130000Y-9380000D02*
X16170000Y-9420000D01*
X16170000Y-9380000D02*
X16130000Y-9420000D01*
X16130000Y-9780000D02*
X16170000Y-9820000D01*
X16170000Y-9780000D02*
X16130000Y-9820000D01*
X16280000Y-8330000D02*
X16320000Y-8370000D01*
X16320000Y-8330000D02*
X16280000Y-8370000D01*
X16280000Y-8730000D02*
X16320000Y-8770000D01*
X16320000Y-8730000D02*
X16280000Y-8770000D01*
X16280000Y-9380000D02*
X16320000Y-9420000D01*
X16320000Y-9380000D02*
X16280000Y-9420000D01*
X16280000Y-9780000D02*
X16320000Y-9820000D01*
X16320000Y-9780000D02*
X16280000Y-9820000D01*
X16430000Y-8330000D02*
X16470000Y-8370000D01*
X16470000Y-8330000D02*
X16430000Y-8370000D01*
X16430000Y-8730000D02*
X16470000Y-8770000D01*
X16470000Y-8730000D02*
X16430000Y-8770000D01*
X16430000Y-9380000D02*
X16470000Y-9420000D01*
X16470000Y-9380000D02*
X16430000Y-9420000D01*
X16430000Y-9780000D02*
X16470000Y-9820000D01*
X16470000Y-9780000D02*
X16430000Y-9820000D01*
X16580000Y-8330000D02*
X16620000Y-8370000D01*
X16620000Y-8330000D02*
X16580000Y-8370000D01*
X16580000Y-8730000D02*
X16620000Y-8770000D01*
X16620000Y-8730000D02*
X16580000Y-8770000D01*
X16580000Y-9380000D02*
X16620000Y-9420000D01*
X16620000Y-9380000D02*
X16580000Y-9420000D01*
X16580000Y-9780000D02*
X16620000Y-9820000D01*
X16620000Y-9780000D02*
X16580000Y-9820000D01*
X16730000Y-8330000D02*
X16770000Y-8370000D01*
X16770000Y-8330000D02*
X16730000Y-8370000D01*
X16730000Y-8730000D02*
X16770000Y-8770000D01*
X16770000Y-8730000D02*
X16730000Y-8770000D01*
X16730000Y-9380000D02*
X16770000Y-9420000D01*
X16770000Y-9380000D02*
X16730000Y-9420000D01*
X16730000Y-9780000D02*
X16770000Y-9820000D01*
X16770000Y-9780000D02*
X16730000Y-9820000D01*
X16880000Y-8330000D02*
X16920000Y-8370000D01*
X16920000Y-8330000D02*
X16880000Y-8370000D01*
X16880000Y-8730000D02*
X16920000Y-8770000D01*
X16920000Y-8730000D02*
X16880000Y-8770000D01*
X16880000Y-9380000D02*
X16920000Y-9420000D01*
X16920000Y-9380000D02*
X16880000Y-9420000D01*
X16880000Y-9780000D02*
X16920000Y-9820000D01*
X16920000Y-9780000D02*
X16880000Y-9820000D01*
X17030000Y-8730000D02*
X17070000Y-8770000D01*
X17070000Y-8730000D02*
X17030000Y-8770000D01*
X17030000Y-9380000D02*
X17070000Y-9420000D01*
X17070000Y-9380000D02*
X17030000Y-9420000D01*
X17030000Y-9780000D02*
X17070000Y-9820000D01*
X17070000Y-9780000D02*
X17030000Y-9820000D01*
X17035548Y-8330000D02*
X17075548Y-8370000D01*
X17075548Y-8330000D02*
X17035548Y-8370000D01*
X17069261Y-9927716D02*
X17109261Y-9967716D01*
X17109261Y-9927716D02*
X17069261Y-9967716D01*
X17074809Y-8182284D02*
X17114809Y-8222284D01*
X17114809Y-8182284D02*
X17074809Y-8222284D01*
X17080000Y-8905000D02*
X17120000Y-8945000D01*
X17120000Y-8905000D02*
X17080000Y-8945000D01*
X17080000Y-9205000D02*
X17120000Y-9245000D01*
X17120000Y-9205000D02*
X17080000Y-9245000D01*
X17129189Y-10068321D02*
X17169189Y-10108321D01*
X17169189Y-10068321D02*
X17129189Y-10108321D01*
X17130000Y-9055000D02*
X17170000Y-9095000D01*
X17170000Y-9055000D02*
X17130000Y-9095000D01*
X17134736Y-8041679D02*
X17174736Y-8081679D01*
X17174736Y-8041679D02*
X17134736Y-8081679D01*
X17180000Y-8730000D02*
X17220000Y-8770000D01*
X17220000Y-8730000D02*
X17180000Y-8770000D01*
X17180000Y-9380000D02*
X17220000Y-9420000D01*
X17220000Y-9380000D02*
X17180000Y-9420000D01*
X17208558Y-10198942D02*
X17248558Y-10238942D01*
X17248558Y-10198942D02*
X17208558Y-10238942D01*
X17214106Y-7911058D02*
X17254106Y-7951058D01*
X17254106Y-7911058D02*
X17214106Y-7951058D01*
X17280000Y-8730000D02*
X17320000Y-8770000D01*
X17320000Y-8730000D02*
X17280000Y-8770000D01*
X17280000Y-9380000D02*
X17320000Y-9420000D01*
X17320000Y-9380000D02*
X17280000Y-9420000D01*
X17305747Y-10316907D02*
X17345747Y-10356907D01*
X17345747Y-10316907D02*
X17305747Y-10356907D01*
X17311295Y-7793093D02*
X17351295Y-7833093D01*
X17351295Y-7793093D02*
X17311295Y-7833093D01*
X17380000Y-9580000D02*
X17420000Y-9620000D01*
X17420000Y-9580000D02*
X17380000Y-9620000D01*
X17380000Y-8534999D02*
X17420000Y-8574999D01*
X17420000Y-8534999D02*
X17380000Y-8574999D01*
X17396068Y-9430879D02*
X17436068Y-9470879D01*
X17436068Y-9430879D02*
X17396068Y-9470879D01*
X17396068Y-9729121D02*
X17436068Y-9769121D01*
X17436068Y-9729121D02*
X17396068Y-9769121D01*
X17396068Y-8385878D02*
X17436068Y-8425878D01*
X17436068Y-8385878D02*
X17396068Y-8425878D01*
X17396068Y-8684120D02*
X17436068Y-8724120D01*
X17436068Y-8684120D02*
X17396068Y-8724120D01*
X17418767Y-10419804D02*
X17458767Y-10459804D01*
X17458767Y-10419804D02*
X17418767Y-10459804D01*
X17424315Y-7690196D02*
X17464315Y-7730196D01*
X17464315Y-7690196D02*
X17424315Y-7730196D01*
X17443535Y-9871397D02*
X17483535Y-9911397D01*
X17483535Y-9871397D02*
X17443535Y-9911397D01*
X17443535Y-8243602D02*
X17483535Y-8283602D01*
X17483535Y-8243602D02*
X17443535Y-8283602D01*
X17520221Y-10000294D02*
X17560221Y-10040294D01*
X17560221Y-10000294D02*
X17520221Y-10040294D01*
X17520221Y-8114705D02*
X17560221Y-8154705D01*
X17560221Y-8114705D02*
X17520221Y-8154705D01*
X17542843Y-9450796D02*
X17582843Y-9490796D01*
X17582843Y-9450796D02*
X17542843Y-9490796D01*
X17545307Y-8654471D02*
X17585307Y-8694471D01*
X17585307Y-8654471D02*
X17545307Y-8694471D01*
X17545307Y-10505529D02*
X17585307Y-10545529D01*
X17585307Y-10505529D02*
X17545307Y-10545529D01*
X17550855Y-7604471D02*
X17590855Y-7644471D01*
X17590855Y-7604471D02*
X17550855Y-7644471D01*
X17598982Y-9055000D02*
X17638982Y-9095000D01*
X17638982Y-9055000D02*
X17598982Y-9095000D01*
X17622606Y-10109897D02*
X17662606Y-10149897D01*
X17662606Y-10109897D02*
X17622606Y-10149897D01*
X17622606Y-8005103D02*
X17662606Y-8045103D01*
X17662606Y-8005103D02*
X17622606Y-8045103D01*
X17679647Y-9518957D02*
X17719647Y-9558957D01*
X17719647Y-9518957D02*
X17679647Y-9558957D01*
X17682781Y-8587671D02*
X17722781Y-8627671D01*
X17722781Y-8587671D02*
X17682781Y-8627671D01*
X17682781Y-10572329D02*
X17722781Y-10612329D01*
X17722781Y-10572329D02*
X17682781Y-10612329D01*
X17688329Y-7537671D02*
X17728329Y-7577671D01*
X17728329Y-7537671D02*
X17688329Y-7577671D01*
X17716683Y-9141079D02*
X17756683Y-9181079D01*
X17756683Y-9141079D02*
X17716683Y-9181079D01*
X17719314Y-8959331D02*
X17759314Y-8999331D01*
X17759314Y-8959331D02*
X17719314Y-8999331D01*
X17745989Y-10195172D02*
X17785989Y-10235172D01*
X17785989Y-10195172D02*
X17745989Y-10235172D01*
X17745989Y-7919827D02*
X17785989Y-7959827D01*
X17785989Y-7919827D02*
X17745989Y-7959827D01*
X17824774Y-9566909D02*
X17864774Y-9606909D01*
X17864774Y-9566909D02*
X17824774Y-9606909D01*
X17828377Y-8541161D02*
X17868377Y-8581161D01*
X17868377Y-8541161D02*
X17828377Y-8581161D01*
X17828377Y-10618839D02*
X17868377Y-10658839D01*
X17868377Y-10618839D02*
X17828377Y-10658839D01*
X17833925Y-7491161D02*
X17873925Y-7531161D01*
X17873925Y-7491161D02*
X17833925Y-7531161D01*
X17852781Y-9204109D02*
X17892781Y-9244109D01*
X17892781Y-9204109D02*
X17852781Y-9244109D01*
X17855956Y-8897491D02*
X17895956Y-8937491D01*
X17895956Y-8897491D02*
X17855956Y-8937491D01*
X17884706Y-10252206D02*
X17924706Y-10292206D01*
X17924706Y-10252206D02*
X17884706Y-10292206D01*
X17884706Y-7862793D02*
X17924706Y-7902793D01*
X17924706Y-7862793D02*
X17884706Y-7902793D01*
X17975257Y-9593672D02*
X18015257Y-9633672D01*
X18015257Y-9593672D02*
X17975257Y-9633672D01*
X17979118Y-8515893D02*
X18019118Y-8555893D01*
X18019118Y-8515893D02*
X17979118Y-8555893D01*
X17979118Y-10644107D02*
X18019118Y-10684107D01*
X18019118Y-10644107D02*
X17979118Y-10684107D01*
X17984666Y-7465893D02*
X18024666Y-7505893D01*
X18024666Y-7465893D02*
X17984666Y-7505893D01*
X17999182Y-9236700D02*
X18039182Y-9276700D01*
X18039182Y-9236700D02*
X17999182Y-9276700D01*
X18002636Y-8866179D02*
X18042636Y-8906179D01*
X18042636Y-8866179D02*
X18002636Y-8906179D01*
X18032389Y-10278379D02*
X18072389Y-10318379D01*
X18072389Y-10278379D02*
X18032389Y-10318379D01*
X18032389Y-7836620D02*
X18072389Y-7876620D01*
X18072389Y-7836620D02*
X18032389Y-7876620D01*
X18128018Y-9598697D02*
X18168018Y-9638697D01*
X18168018Y-9598697D02*
X18128018Y-9638697D01*
X18131922Y-8512384D02*
X18171922Y-8552384D01*
X18171922Y-8512384D02*
X18131922Y-8552384D01*
X18131922Y-10647616D02*
X18171922Y-10687616D01*
X18171922Y-10647616D02*
X18131922Y-10687616D01*
X18137470Y-7462384D02*
X18177470Y-7502384D01*
X18177470Y-7462384D02*
X18137470Y-7502384D01*
X18149165Y-9237354D02*
X18189165Y-9277354D01*
X18189165Y-9237354D02*
X18149165Y-9277354D01*
X18152619Y-8866834D02*
X18192619Y-8906834D01*
X18192619Y-8866834D02*
X18152619Y-8906834D01*
X18182258Y-10272491D02*
X18222258Y-10312491D01*
X18222258Y-10272491D02*
X18182258Y-10312491D01*
X18182258Y-7842508D02*
X18222258Y-7882508D01*
X18222258Y-7842508D02*
X18182258Y-7882508D01*
X18279935Y-9581883D02*
X18319935Y-9621883D01*
X18319935Y-9581883D02*
X18279935Y-9621883D01*
X18283664Y-8530705D02*
X18323664Y-8570705D01*
X18323664Y-8530705D02*
X18283664Y-8570705D01*
X18283664Y-10629296D02*
X18323664Y-10669296D01*
X18323664Y-10629296D02*
X18283664Y-10669296D01*
X18289212Y-7480704D02*
X18329212Y-7520704D01*
X18329212Y-7480704D02*
X18289212Y-7520704D01*
X18295844Y-9206043D02*
X18335844Y-9246043D01*
X18335844Y-9206043D02*
X18295844Y-9246043D01*
X18299020Y-8899424D02*
X18339020Y-8939424D01*
X18339020Y-8899424D02*
X18299020Y-8939424D01*
X18327432Y-10234811D02*
X18367432Y-10274811D01*
X18367432Y-10234811D02*
X18327432Y-10274811D01*
X18327433Y-7880188D02*
X18367433Y-7920188D01*
X18367433Y-7880188D02*
X18327433Y-7920188D01*
X18427900Y-9543574D02*
X18467900Y-9583574D01*
X18467900Y-9543574D02*
X18427900Y-9583574D01*
X18431242Y-8570481D02*
X18471242Y-8610481D01*
X18471242Y-8570481D02*
X18431242Y-8610481D01*
X18431242Y-10589519D02*
X18471242Y-10629519D01*
X18471242Y-10589519D02*
X18431242Y-10629519D01*
X18432487Y-9144203D02*
X18472487Y-9184203D01*
X18472487Y-9144203D02*
X18432487Y-9184203D01*
X18435117Y-8962454D02*
X18475117Y-9002454D01*
X18475117Y-8962454D02*
X18435117Y-9002454D01*
X18436789Y-7520481D02*
X18476789Y-7560481D01*
X18476789Y-7520481D02*
X18436789Y-7560481D01*
X18461247Y-10167069D02*
X18501247Y-10207069D01*
X18501247Y-10167069D02*
X18461247Y-10207069D01*
X18461247Y-7947930D02*
X18501247Y-7987930D01*
X18501247Y-7947930D02*
X18461247Y-7987930D01*
X18568888Y-9484552D02*
X18608888Y-9524552D01*
X18608888Y-9484552D02*
X18568888Y-9524552D01*
X18571637Y-8630899D02*
X18611637Y-8670899D01*
X18611637Y-8630899D02*
X18571637Y-8670899D01*
X18571637Y-10529101D02*
X18611637Y-10569101D01*
X18611637Y-10529101D02*
X18571637Y-10569101D01*
X18577185Y-7580899D02*
X18617185Y-7620899D01*
X18617185Y-7580899D02*
X18577185Y-7620899D01*
X18577560Y-10072376D02*
X18617560Y-10112376D01*
X18617560Y-10072376D02*
X18577560Y-10112376D01*
X18577560Y-8042623D02*
X18617560Y-8082623D01*
X18617560Y-8042623D02*
X18577560Y-8082623D01*
X18671030Y-9955079D02*
X18711030Y-9995079D01*
X18711030Y-9955079D02*
X18671030Y-9995079D01*
X18671030Y-8159920D02*
X18711030Y-8199920D01*
X18711030Y-8159920D02*
X18671030Y-8199920D01*
X18701980Y-10449276D02*
X18741980Y-10489276D01*
X18741980Y-10449276D02*
X18701980Y-10489276D01*
X18707528Y-7660724D02*
X18747528Y-7700724D01*
X18747528Y-7660724D02*
X18707528Y-7700724D01*
X18737366Y-9820562D02*
X18777366Y-9860562D01*
X18777366Y-9820562D02*
X18737366Y-9860562D01*
X18737366Y-8294437D02*
X18777366Y-8334437D01*
X18777366Y-8294437D02*
X18737366Y-8334437D01*
X18773524Y-9530000D02*
X18813524Y-9570000D01*
X18813524Y-9530000D02*
X18773524Y-9570000D01*
X18773524Y-9675001D02*
X18813524Y-9715001D01*
X18813524Y-9675001D02*
X18773524Y-9715001D01*
X18773524Y-8439998D02*
X18813524Y-8479998D01*
X18813524Y-8439998D02*
X18773524Y-8479998D01*
X18773524Y-8580000D02*
X18813524Y-8620000D01*
X18813524Y-8580000D02*
X18773524Y-8620000D01*
X18819605Y-10351676D02*
X18859605Y-10391676D01*
X18859605Y-10351676D02*
X18819605Y-10391676D01*
X18825153Y-7758324D02*
X18865153Y-7798324D01*
X18865153Y-7758324D02*
X18825153Y-7798324D01*
X18922107Y-10238298D02*
X18962107Y-10278298D01*
X18962107Y-10238298D02*
X18922107Y-10278298D01*
X18927655Y-7871702D02*
X18967655Y-7911702D01*
X18967655Y-7871702D02*
X18927655Y-7911702D01*
X19007390Y-10111459D02*
X19047390Y-10151459D01*
X19047390Y-10111459D02*
X19007390Y-10151459D01*
X19012938Y-7998541D02*
X19052938Y-8038541D01*
X19052938Y-7998541D02*
X19012938Y-8038541D01*
X19073710Y-9973753D02*
X19113710Y-10013753D01*
X19113710Y-9973753D02*
X19073710Y-10013753D01*
X19079258Y-8136247D02*
X19119258Y-8176247D01*
X19119258Y-8136247D02*
X19079258Y-8176247D01*
X19119711Y-9332005D02*
X19159711Y-9372005D01*
X19159711Y-9332005D02*
X19119711Y-9372005D01*
X19119711Y-9827995D02*
X19159711Y-9867995D01*
X19159711Y-9827995D02*
X19119711Y-9867995D01*
X19124696Y-8773497D02*
X19164696Y-8813497D01*
X19164696Y-8773497D02*
X19124696Y-8813497D01*
X19125259Y-8282005D02*
X19165259Y-8322005D01*
X19165259Y-8282005D02*
X19125259Y-8322005D01*
X19144452Y-9482833D02*
X19184452Y-9522833D01*
X19184452Y-9482833D02*
X19144452Y-9522833D01*
X19144452Y-9677167D02*
X19184452Y-9717167D01*
X19184452Y-9677167D02*
X19144452Y-9717167D01*
X19149438Y-8622669D02*
X19189438Y-8662669D01*
X19189438Y-8622669D02*
X19149438Y-8662669D01*
X19150000Y-8432833D02*
X19190000Y-8472833D01*
X19190000Y-8432833D02*
X19150000Y-8472833D01*
X9570000Y-8235000D02*
G75*
G02*
X9530000Y-8235000I-20000J0D01*
G01*
X9530000Y-8235000D02*
G75*
G02*
X9570000Y-8235000I20000J0D01*
G01*
X9570000Y-8900000D02*
G75*
G02*
X9530000Y-8900000I-20000J0D01*
G01*
X9530000Y-8900000D02*
G75*
G02*
X9570000Y-8900000I20000J0D01*
G01*
X9570000Y-9267500D02*
G75*
G02*
X9530000Y-9267500I-20000J0D01*
G01*
X9530000Y-9267500D02*
G75*
G02*
X9570000Y-9267500I20000J0D01*
G01*
X9570000Y-9932500D02*
G75*
G02*
X9530000Y-9932500I-20000J0D01*
G01*
X9530000Y-9932500D02*
G75*
G02*
X9570000Y-9932500I20000J0D01*
G01*
D11*
X9553277Y-11068984D02*
X9553277Y-10868984D01*
X9553277Y-10868984D02*
X9600896Y-10868984D01*
X9600896Y-10868984D02*
X9629467Y-10878508D01*
X9629467Y-10878508D02*
X9648515Y-10897555D01*
X9648515Y-10897555D02*
X9658039Y-10916603D01*
X9658039Y-10916603D02*
X9667563Y-10954698D01*
X9667563Y-10954698D02*
X9667563Y-10983270D01*
X9667563Y-10983270D02*
X9658039Y-11021365D01*
X9658039Y-11021365D02*
X9648515Y-11040412D01*
X9648515Y-11040412D02*
X9629467Y-11059460D01*
X9629467Y-11059460D02*
X9600896Y-11068984D01*
X9600896Y-11068984D02*
X9553277Y-11068984D01*
X9753277Y-11068984D02*
X9753277Y-10935650D01*
X9753277Y-10973746D02*
X9762801Y-10954698D01*
X9762801Y-10954698D02*
X9772324Y-10945174D01*
X9772324Y-10945174D02*
X9791372Y-10935650D01*
X9791372Y-10935650D02*
X9810420Y-10935650D01*
X9877086Y-11068984D02*
X9877086Y-10935650D01*
X9877086Y-10868984D02*
X9867563Y-10878508D01*
X9867563Y-10878508D02*
X9877086Y-10888031D01*
X9877086Y-10888031D02*
X9886610Y-10878508D01*
X9886610Y-10878508D02*
X9877086Y-10868984D01*
X9877086Y-10868984D02*
X9877086Y-10888031D01*
X10000896Y-11068984D02*
X9981848Y-11059460D01*
X9981848Y-11059460D02*
X9972324Y-11040412D01*
X9972324Y-11040412D02*
X9972324Y-10868984D01*
X10105658Y-11068984D02*
X10086610Y-11059460D01*
X10086610Y-11059460D02*
X10077086Y-11040412D01*
X10077086Y-11040412D02*
X10077086Y-10868984D01*
X10334229Y-11068984D02*
X10334229Y-10868984D01*
X10334229Y-10868984D02*
X10400896Y-11011841D01*
X10400896Y-11011841D02*
X10467563Y-10868984D01*
X10467563Y-10868984D02*
X10467563Y-11068984D01*
X10648515Y-11068984D02*
X10648515Y-10964222D01*
X10648515Y-10964222D02*
X10638991Y-10945174D01*
X10638991Y-10945174D02*
X10619944Y-10935650D01*
X10619944Y-10935650D02*
X10581848Y-10935650D01*
X10581848Y-10935650D02*
X10562801Y-10945174D01*
X10648515Y-11059460D02*
X10629467Y-11068984D01*
X10629467Y-11068984D02*
X10581848Y-11068984D01*
X10581848Y-11068984D02*
X10562801Y-11059460D01*
X10562801Y-11059460D02*
X10553277Y-11040412D01*
X10553277Y-11040412D02*
X10553277Y-11021365D01*
X10553277Y-11021365D02*
X10562801Y-11002317D01*
X10562801Y-11002317D02*
X10581848Y-10992793D01*
X10581848Y-10992793D02*
X10629467Y-10992793D01*
X10629467Y-10992793D02*
X10648515Y-10983270D01*
X10743753Y-10935650D02*
X10743753Y-11135650D01*
X10743753Y-10945174D02*
X10762801Y-10935650D01*
X10762801Y-10935650D02*
X10800896Y-10935650D01*
X10800896Y-10935650D02*
X10819944Y-10945174D01*
X10819944Y-10945174D02*
X10829467Y-10954698D01*
X10829467Y-10954698D02*
X10838991Y-10973746D01*
X10838991Y-10973746D02*
X10838991Y-11030889D01*
X10838991Y-11030889D02*
X10829467Y-11049936D01*
X10829467Y-11049936D02*
X10819944Y-11059460D01*
X10819944Y-11059460D02*
X10800896Y-11068984D01*
X10800896Y-11068984D02*
X10762801Y-11068984D01*
X10762801Y-11068984D02*
X10743753Y-11059460D01*
X10924705Y-11049936D02*
X10934229Y-11059460D01*
X10934229Y-11059460D02*
X10924705Y-11068984D01*
X10924705Y-11068984D02*
X10915182Y-11059460D01*
X10915182Y-11059460D02*
X10924705Y-11049936D01*
X10924705Y-11049936D02*
X10924705Y-11068984D01*
X10924705Y-10945174D02*
X10934229Y-10954698D01*
X10934229Y-10954698D02*
X10924705Y-10964222D01*
X10924705Y-10964222D02*
X10915182Y-10954698D01*
X10915182Y-10954698D02*
X10924705Y-10945174D01*
X10924705Y-10945174D02*
X10924705Y-10964222D01*
D12*
X9252500Y-11377500D02*
X9292500Y-11417500D01*
X9292500Y-11377500D02*
X9252500Y-11417500D01*
D11*
X9591372Y-11288984D02*
X9610420Y-11288984D01*
X9610420Y-11288984D02*
X9629467Y-11298508D01*
X9629467Y-11298508D02*
X9638991Y-11308031D01*
X9638991Y-11308031D02*
X9648515Y-11327079D01*
X9648515Y-11327079D02*
X9658039Y-11365174D01*
X9658039Y-11365174D02*
X9658039Y-11412793D01*
X9658039Y-11412793D02*
X9648515Y-11450888D01*
X9648515Y-11450888D02*
X9638991Y-11469936D01*
X9638991Y-11469936D02*
X9629467Y-11479460D01*
X9629467Y-11479460D02*
X9610420Y-11488984D01*
X9610420Y-11488984D02*
X9591372Y-11488984D01*
X9591372Y-11488984D02*
X9572324Y-11479460D01*
X9572324Y-11479460D02*
X9562801Y-11469936D01*
X9562801Y-11469936D02*
X9553277Y-11450888D01*
X9553277Y-11450888D02*
X9543753Y-11412793D01*
X9543753Y-11412793D02*
X9543753Y-11365174D01*
X9543753Y-11365174D02*
X9553277Y-11327079D01*
X9553277Y-11327079D02*
X9562801Y-11308031D01*
X9562801Y-11308031D02*
X9572324Y-11298508D01*
X9572324Y-11298508D02*
X9591372Y-11288984D01*
X9743753Y-11469936D02*
X9753277Y-11479460D01*
X9753277Y-11479460D02*
X9743753Y-11488984D01*
X9743753Y-11488984D02*
X9734229Y-11479460D01*
X9734229Y-11479460D02*
X9743753Y-11469936D01*
X9743753Y-11469936D02*
X9743753Y-11488984D01*
X9924705Y-11355650D02*
X9924705Y-11488984D01*
X9877086Y-11279460D02*
X9829467Y-11422317D01*
X9829467Y-11422317D02*
X9953277Y-11422317D01*
X10067563Y-11288984D02*
X10086610Y-11288984D01*
X10086610Y-11288984D02*
X10105658Y-11298508D01*
X10105658Y-11298508D02*
X10115182Y-11308031D01*
X10115182Y-11308031D02*
X10124705Y-11327079D01*
X10124705Y-11327079D02*
X10134229Y-11365174D01*
X10134229Y-11365174D02*
X10134229Y-11412793D01*
X10134229Y-11412793D02*
X10124705Y-11450888D01*
X10124705Y-11450888D02*
X10115182Y-11469936D01*
X10115182Y-11469936D02*
X10105658Y-11479460D01*
X10105658Y-11479460D02*
X10086610Y-11488984D01*
X10086610Y-11488984D02*
X10067563Y-11488984D01*
X10067563Y-11488984D02*
X10048515Y-11479460D01*
X10048515Y-11479460D02*
X10038991Y-11469936D01*
X10038991Y-11469936D02*
X10029467Y-11450888D01*
X10029467Y-11450888D02*
X10019944Y-11412793D01*
X10019944Y-11412793D02*
X10019944Y-11365174D01*
X10019944Y-11365174D02*
X10029467Y-11327079D01*
X10029467Y-11327079D02*
X10038991Y-11308031D01*
X10038991Y-11308031D02*
X10048515Y-11298508D01*
X10048515Y-11298508D02*
X10067563Y-11288984D01*
X10258039Y-11288984D02*
X10277086Y-11288984D01*
X10277086Y-11288984D02*
X10296134Y-11298508D01*
X10296134Y-11298508D02*
X10305658Y-11308031D01*
X10305658Y-11308031D02*
X10315182Y-11327079D01*
X10315182Y-11327079D02*
X10324705Y-11365174D01*
X10324705Y-11365174D02*
X10324705Y-11412793D01*
X10324705Y-11412793D02*
X10315182Y-11450888D01*
X10315182Y-11450888D02*
X10305658Y-11469936D01*
X10305658Y-11469936D02*
X10296134Y-11479460D01*
X10296134Y-11479460D02*
X10277086Y-11488984D01*
X10277086Y-11488984D02*
X10258039Y-11488984D01*
X10258039Y-11488984D02*
X10238991Y-11479460D01*
X10238991Y-11479460D02*
X10229467Y-11469936D01*
X10229467Y-11469936D02*
X10219944Y-11450888D01*
X10219944Y-11450888D02*
X10210420Y-11412793D01*
X10210420Y-11412793D02*
X10210420Y-11365174D01*
X10210420Y-11365174D02*
X10219944Y-11327079D01*
X10219944Y-11327079D02*
X10229467Y-11308031D01*
X10229467Y-11308031D02*
X10238991Y-11298508D01*
X10238991Y-11298508D02*
X10258039Y-11288984D01*
X10410420Y-11488984D02*
X10410420Y-11355650D01*
X10410420Y-11374698D02*
X10419944Y-11365174D01*
X10419944Y-11365174D02*
X10438991Y-11355650D01*
X10438991Y-11355650D02*
X10467563Y-11355650D01*
X10467563Y-11355650D02*
X10486610Y-11365174D01*
X10486610Y-11365174D02*
X10496134Y-11384222D01*
X10496134Y-11384222D02*
X10496134Y-11488984D01*
X10496134Y-11384222D02*
X10505658Y-11365174D01*
X10505658Y-11365174D02*
X10524705Y-11355650D01*
X10524705Y-11355650D02*
X10553277Y-11355650D01*
X10553277Y-11355650D02*
X10572325Y-11365174D01*
X10572325Y-11365174D02*
X10581848Y-11384222D01*
X10581848Y-11384222D02*
X10581848Y-11488984D01*
X10677086Y-11488984D02*
X10677086Y-11355650D01*
X10677086Y-11374698D02*
X10686610Y-11365174D01*
X10686610Y-11365174D02*
X10705658Y-11355650D01*
X10705658Y-11355650D02*
X10734229Y-11355650D01*
X10734229Y-11355650D02*
X10753277Y-11365174D01*
X10753277Y-11365174D02*
X10762801Y-11384222D01*
X10762801Y-11384222D02*
X10762801Y-11488984D01*
X10762801Y-11384222D02*
X10772325Y-11365174D01*
X10772325Y-11365174D02*
X10791372Y-11355650D01*
X10791372Y-11355650D02*
X10819944Y-11355650D01*
X10819944Y-11355650D02*
X10838991Y-11365174D01*
X10838991Y-11365174D02*
X10848515Y-11384222D01*
X10848515Y-11384222D02*
X10848515Y-11488984D01*
X11238991Y-11279460D02*
X11067563Y-11536603D01*
X11496134Y-11288984D02*
X11515182Y-11288984D01*
X11515182Y-11288984D02*
X11534229Y-11298508D01*
X11534229Y-11298508D02*
X11543753Y-11308031D01*
X11543753Y-11308031D02*
X11553277Y-11327079D01*
X11553277Y-11327079D02*
X11562801Y-11365174D01*
X11562801Y-11365174D02*
X11562801Y-11412793D01*
X11562801Y-11412793D02*
X11553277Y-11450888D01*
X11553277Y-11450888D02*
X11543753Y-11469936D01*
X11543753Y-11469936D02*
X11534229Y-11479460D01*
X11534229Y-11479460D02*
X11515182Y-11488984D01*
X11515182Y-11488984D02*
X11496134Y-11488984D01*
X11496134Y-11488984D02*
X11477086Y-11479460D01*
X11477086Y-11479460D02*
X11467563Y-11469936D01*
X11467563Y-11469936D02*
X11458039Y-11450888D01*
X11458039Y-11450888D02*
X11448515Y-11412793D01*
X11448515Y-11412793D02*
X11448515Y-11365174D01*
X11448515Y-11365174D02*
X11458039Y-11327079D01*
X11458039Y-11327079D02*
X11467563Y-11308031D01*
X11467563Y-11308031D02*
X11477086Y-11298508D01*
X11477086Y-11298508D02*
X11496134Y-11288984D01*
X11648515Y-11469936D02*
X11658039Y-11479460D01*
X11658039Y-11479460D02*
X11648515Y-11488984D01*
X11648515Y-11488984D02*
X11638991Y-11479460D01*
X11638991Y-11479460D02*
X11648515Y-11469936D01*
X11648515Y-11469936D02*
X11648515Y-11488984D01*
X11781848Y-11288984D02*
X11800896Y-11288984D01*
X11800896Y-11288984D02*
X11819944Y-11298508D01*
X11819944Y-11298508D02*
X11829467Y-11308031D01*
X11829467Y-11308031D02*
X11838991Y-11327079D01*
X11838991Y-11327079D02*
X11848515Y-11365174D01*
X11848515Y-11365174D02*
X11848515Y-11412793D01*
X11848515Y-11412793D02*
X11838991Y-11450888D01*
X11838991Y-11450888D02*
X11829467Y-11469936D01*
X11829467Y-11469936D02*
X11819944Y-11479460D01*
X11819944Y-11479460D02*
X11800896Y-11488984D01*
X11800896Y-11488984D02*
X11781848Y-11488984D01*
X11781848Y-11488984D02*
X11762801Y-11479460D01*
X11762801Y-11479460D02*
X11753277Y-11469936D01*
X11753277Y-11469936D02*
X11743753Y-11450888D01*
X11743753Y-11450888D02*
X11734229Y-11412793D01*
X11734229Y-11412793D02*
X11734229Y-11365174D01*
X11734229Y-11365174D02*
X11743753Y-11327079D01*
X11743753Y-11327079D02*
X11753277Y-11308031D01*
X11753277Y-11308031D02*
X11762801Y-11298508D01*
X11762801Y-11298508D02*
X11781848Y-11288984D01*
X12038991Y-11488984D02*
X11924706Y-11488984D01*
X11981848Y-11488984D02*
X11981848Y-11288984D01*
X11981848Y-11288984D02*
X11962801Y-11317555D01*
X11962801Y-11317555D02*
X11943753Y-11336603D01*
X11943753Y-11336603D02*
X11924706Y-11346127D01*
X12219944Y-11288984D02*
X12124706Y-11288984D01*
X12124706Y-11288984D02*
X12115182Y-11384222D01*
X12115182Y-11384222D02*
X12124706Y-11374698D01*
X12124706Y-11374698D02*
X12143753Y-11365174D01*
X12143753Y-11365174D02*
X12191372Y-11365174D01*
X12191372Y-11365174D02*
X12210420Y-11374698D01*
X12210420Y-11374698D02*
X12219944Y-11384222D01*
X12219944Y-11384222D02*
X12229467Y-11403269D01*
X12229467Y-11403269D02*
X12229467Y-11450888D01*
X12229467Y-11450888D02*
X12219944Y-11469936D01*
X12219944Y-11469936D02*
X12210420Y-11479460D01*
X12210420Y-11479460D02*
X12191372Y-11488984D01*
X12191372Y-11488984D02*
X12143753Y-11488984D01*
X12143753Y-11488984D02*
X12124706Y-11479460D01*
X12124706Y-11479460D02*
X12115182Y-11469936D01*
X12296134Y-11288984D02*
X12429467Y-11288984D01*
X12429467Y-11288984D02*
X12343753Y-11488984D01*
X12496134Y-11288984D02*
X12496134Y-11327079D01*
X12572325Y-11288984D02*
X12572325Y-11327079D01*
X12867563Y-11565174D02*
X12858039Y-11555650D01*
X12858039Y-11555650D02*
X12838991Y-11527079D01*
X12838991Y-11527079D02*
X12829468Y-11508031D01*
X12829468Y-11508031D02*
X12819944Y-11479460D01*
X12819944Y-11479460D02*
X12810420Y-11431841D01*
X12810420Y-11431841D02*
X12810420Y-11393746D01*
X12810420Y-11393746D02*
X12819944Y-11346127D01*
X12819944Y-11346127D02*
X12829468Y-11317555D01*
X12829468Y-11317555D02*
X12838991Y-11298508D01*
X12838991Y-11298508D02*
X12858039Y-11269936D01*
X12858039Y-11269936D02*
X12867563Y-11260412D01*
X12924706Y-11288984D02*
X13048515Y-11288984D01*
X13048515Y-11288984D02*
X12981848Y-11365174D01*
X12981848Y-11365174D02*
X13010420Y-11365174D01*
X13010420Y-11365174D02*
X13029468Y-11374698D01*
X13029468Y-11374698D02*
X13038991Y-11384222D01*
X13038991Y-11384222D02*
X13048515Y-11403269D01*
X13048515Y-11403269D02*
X13048515Y-11450888D01*
X13048515Y-11450888D02*
X13038991Y-11469936D01*
X13038991Y-11469936D02*
X13029468Y-11479460D01*
X13029468Y-11479460D02*
X13010420Y-11488984D01*
X13010420Y-11488984D02*
X12953277Y-11488984D01*
X12953277Y-11488984D02*
X12934229Y-11479460D01*
X12934229Y-11479460D02*
X12924706Y-11469936D01*
X13219944Y-11355650D02*
X13219944Y-11488984D01*
X13172325Y-11279460D02*
X13124706Y-11422317D01*
X13124706Y-11422317D02*
X13248515Y-11422317D01*
X13353277Y-11374698D02*
X13334229Y-11365174D01*
X13334229Y-11365174D02*
X13324706Y-11355650D01*
X13324706Y-11355650D02*
X13315182Y-11336603D01*
X13315182Y-11336603D02*
X13315182Y-11327079D01*
X13315182Y-11327079D02*
X13324706Y-11308031D01*
X13324706Y-11308031D02*
X13334229Y-11298508D01*
X13334229Y-11298508D02*
X13353277Y-11288984D01*
X13353277Y-11288984D02*
X13391372Y-11288984D01*
X13391372Y-11288984D02*
X13410420Y-11298508D01*
X13410420Y-11298508D02*
X13419944Y-11308031D01*
X13419944Y-11308031D02*
X13429468Y-11327079D01*
X13429468Y-11327079D02*
X13429468Y-11336603D01*
X13429468Y-11336603D02*
X13419944Y-11355650D01*
X13419944Y-11355650D02*
X13410420Y-11365174D01*
X13410420Y-11365174D02*
X13391372Y-11374698D01*
X13391372Y-11374698D02*
X13353277Y-11374698D01*
X13353277Y-11374698D02*
X13334229Y-11384222D01*
X13334229Y-11384222D02*
X13324706Y-11393746D01*
X13324706Y-11393746D02*
X13315182Y-11412793D01*
X13315182Y-11412793D02*
X13315182Y-11450888D01*
X13315182Y-11450888D02*
X13324706Y-11469936D01*
X13324706Y-11469936D02*
X13334229Y-11479460D01*
X13334229Y-11479460D02*
X13353277Y-11488984D01*
X13353277Y-11488984D02*
X13391372Y-11488984D01*
X13391372Y-11488984D02*
X13410420Y-11479460D01*
X13410420Y-11479460D02*
X13419944Y-11469936D01*
X13419944Y-11469936D02*
X13429468Y-11450888D01*
X13429468Y-11450888D02*
X13429468Y-11412793D01*
X13429468Y-11412793D02*
X13419944Y-11393746D01*
X13419944Y-11393746D02*
X13410420Y-11384222D01*
X13410420Y-11384222D02*
X13391372Y-11374698D01*
X13667563Y-11488984D02*
X13667563Y-11288984D01*
X13753277Y-11488984D02*
X13753277Y-11384222D01*
X13753277Y-11384222D02*
X13743753Y-11365174D01*
X13743753Y-11365174D02*
X13724706Y-11355650D01*
X13724706Y-11355650D02*
X13696134Y-11355650D01*
X13696134Y-11355650D02*
X13677087Y-11365174D01*
X13677087Y-11365174D02*
X13667563Y-11374698D01*
X13877087Y-11488984D02*
X13858039Y-11479460D01*
X13858039Y-11479460D02*
X13848515Y-11469936D01*
X13848515Y-11469936D02*
X13838991Y-11450888D01*
X13838991Y-11450888D02*
X13838991Y-11393746D01*
X13838991Y-11393746D02*
X13848515Y-11374698D01*
X13848515Y-11374698D02*
X13858039Y-11365174D01*
X13858039Y-11365174D02*
X13877087Y-11355650D01*
X13877087Y-11355650D02*
X13905658Y-11355650D01*
X13905658Y-11355650D02*
X13924706Y-11365174D01*
X13924706Y-11365174D02*
X13934230Y-11374698D01*
X13934230Y-11374698D02*
X13943753Y-11393746D01*
X13943753Y-11393746D02*
X13943753Y-11450888D01*
X13943753Y-11450888D02*
X13934230Y-11469936D01*
X13934230Y-11469936D02*
X13924706Y-11479460D01*
X13924706Y-11479460D02*
X13905658Y-11488984D01*
X13905658Y-11488984D02*
X13877087Y-11488984D01*
X14058039Y-11488984D02*
X14038991Y-11479460D01*
X14038991Y-11479460D02*
X14029468Y-11460412D01*
X14029468Y-11460412D02*
X14029468Y-11288984D01*
X14210420Y-11479460D02*
X14191372Y-11488984D01*
X14191372Y-11488984D02*
X14153277Y-11488984D01*
X14153277Y-11488984D02*
X14134230Y-11479460D01*
X14134230Y-11479460D02*
X14124706Y-11460412D01*
X14124706Y-11460412D02*
X14124706Y-11384222D01*
X14124706Y-11384222D02*
X14134230Y-11365174D01*
X14134230Y-11365174D02*
X14153277Y-11355650D01*
X14153277Y-11355650D02*
X14191372Y-11355650D01*
X14191372Y-11355650D02*
X14210420Y-11365174D01*
X14210420Y-11365174D02*
X14219944Y-11384222D01*
X14219944Y-11384222D02*
X14219944Y-11403269D01*
X14219944Y-11403269D02*
X14124706Y-11422317D01*
X14296134Y-11479460D02*
X14315182Y-11488984D01*
X14315182Y-11488984D02*
X14353277Y-11488984D01*
X14353277Y-11488984D02*
X14372325Y-11479460D01*
X14372325Y-11479460D02*
X14381849Y-11460412D01*
X14381849Y-11460412D02*
X14381849Y-11450888D01*
X14381849Y-11450888D02*
X14372325Y-11431841D01*
X14372325Y-11431841D02*
X14353277Y-11422317D01*
X14353277Y-11422317D02*
X14324706Y-11422317D01*
X14324706Y-11422317D02*
X14305658Y-11412793D01*
X14305658Y-11412793D02*
X14296134Y-11393746D01*
X14296134Y-11393746D02*
X14296134Y-11384222D01*
X14296134Y-11384222D02*
X14305658Y-11365174D01*
X14305658Y-11365174D02*
X14324706Y-11355650D01*
X14324706Y-11355650D02*
X14353277Y-11355650D01*
X14353277Y-11355650D02*
X14372325Y-11365174D01*
X14448515Y-11565174D02*
X14458039Y-11555650D01*
X14458039Y-11555650D02*
X14477087Y-11527079D01*
X14477087Y-11527079D02*
X14486611Y-11508031D01*
X14486611Y-11508031D02*
X14496134Y-11479460D01*
X14496134Y-11479460D02*
X14505658Y-11431841D01*
X14505658Y-11431841D02*
X14505658Y-11393746D01*
X14505658Y-11393746D02*
X14496134Y-11346127D01*
X14496134Y-11346127D02*
X14486611Y-11317555D01*
X14486611Y-11317555D02*
X14477087Y-11298508D01*
X14477087Y-11298508D02*
X14458039Y-11269936D01*
X14458039Y-11269936D02*
X14448515Y-11260412D01*
D12*
X9292500Y-11661500D02*
G75*
G02*
X9252500Y-11661500I-20000J0D01*
G01*
X9252500Y-11661500D02*
G75*
G02*
X9292500Y-11661500I20000J0D01*
G01*
D11*
X9591372Y-11552984D02*
X9610420Y-11552984D01*
X9610420Y-11552984D02*
X9629467Y-11562508D01*
X9629467Y-11562508D02*
X9638991Y-11572031D01*
X9638991Y-11572031D02*
X9648515Y-11591079D01*
X9648515Y-11591079D02*
X9658039Y-11629174D01*
X9658039Y-11629174D02*
X9658039Y-11676793D01*
X9658039Y-11676793D02*
X9648515Y-11714888D01*
X9648515Y-11714888D02*
X9638991Y-11733936D01*
X9638991Y-11733936D02*
X9629467Y-11743460D01*
X9629467Y-11743460D02*
X9610420Y-11752984D01*
X9610420Y-11752984D02*
X9591372Y-11752984D01*
X9591372Y-11752984D02*
X9572324Y-11743460D01*
X9572324Y-11743460D02*
X9562801Y-11733936D01*
X9562801Y-11733936D02*
X9553277Y-11714888D01*
X9553277Y-11714888D02*
X9543753Y-11676793D01*
X9543753Y-11676793D02*
X9543753Y-11629174D01*
X9543753Y-11629174D02*
X9553277Y-11591079D01*
X9553277Y-11591079D02*
X9562801Y-11572031D01*
X9562801Y-11572031D02*
X9572324Y-11562508D01*
X9572324Y-11562508D02*
X9591372Y-11552984D01*
X9743753Y-11733936D02*
X9753277Y-11743460D01*
X9753277Y-11743460D02*
X9743753Y-11752984D01*
X9743753Y-11752984D02*
X9734229Y-11743460D01*
X9734229Y-11743460D02*
X9743753Y-11733936D01*
X9743753Y-11733936D02*
X9743753Y-11752984D01*
X9924705Y-11619650D02*
X9924705Y-11752984D01*
X9877086Y-11543460D02*
X9829467Y-11686317D01*
X9829467Y-11686317D02*
X9953277Y-11686317D01*
X10067563Y-11552984D02*
X10086610Y-11552984D01*
X10086610Y-11552984D02*
X10105658Y-11562508D01*
X10105658Y-11562508D02*
X10115182Y-11572031D01*
X10115182Y-11572031D02*
X10124705Y-11591079D01*
X10124705Y-11591079D02*
X10134229Y-11629174D01*
X10134229Y-11629174D02*
X10134229Y-11676793D01*
X10134229Y-11676793D02*
X10124705Y-11714888D01*
X10124705Y-11714888D02*
X10115182Y-11733936D01*
X10115182Y-11733936D02*
X10105658Y-11743460D01*
X10105658Y-11743460D02*
X10086610Y-11752984D01*
X10086610Y-11752984D02*
X10067563Y-11752984D01*
X10067563Y-11752984D02*
X10048515Y-11743460D01*
X10048515Y-11743460D02*
X10038991Y-11733936D01*
X10038991Y-11733936D02*
X10029467Y-11714888D01*
X10029467Y-11714888D02*
X10019944Y-11676793D01*
X10019944Y-11676793D02*
X10019944Y-11629174D01*
X10019944Y-11629174D02*
X10029467Y-11591079D01*
X10029467Y-11591079D02*
X10038991Y-11572031D01*
X10038991Y-11572031D02*
X10048515Y-11562508D01*
X10048515Y-11562508D02*
X10067563Y-11552984D01*
X10258039Y-11552984D02*
X10277086Y-11552984D01*
X10277086Y-11552984D02*
X10296134Y-11562508D01*
X10296134Y-11562508D02*
X10305658Y-11572031D01*
X10305658Y-11572031D02*
X10315182Y-11591079D01*
X10315182Y-11591079D02*
X10324705Y-11629174D01*
X10324705Y-11629174D02*
X10324705Y-11676793D01*
X10324705Y-11676793D02*
X10315182Y-11714888D01*
X10315182Y-11714888D02*
X10305658Y-11733936D01*
X10305658Y-11733936D02*
X10296134Y-11743460D01*
X10296134Y-11743460D02*
X10277086Y-11752984D01*
X10277086Y-11752984D02*
X10258039Y-11752984D01*
X10258039Y-11752984D02*
X10238991Y-11743460D01*
X10238991Y-11743460D02*
X10229467Y-11733936D01*
X10229467Y-11733936D02*
X10219944Y-11714888D01*
X10219944Y-11714888D02*
X10210420Y-11676793D01*
X10210420Y-11676793D02*
X10210420Y-11629174D01*
X10210420Y-11629174D02*
X10219944Y-11591079D01*
X10219944Y-11591079D02*
X10229467Y-11572031D01*
X10229467Y-11572031D02*
X10238991Y-11562508D01*
X10238991Y-11562508D02*
X10258039Y-11552984D01*
X10410420Y-11752984D02*
X10410420Y-11619650D01*
X10410420Y-11638698D02*
X10419944Y-11629174D01*
X10419944Y-11629174D02*
X10438991Y-11619650D01*
X10438991Y-11619650D02*
X10467563Y-11619650D01*
X10467563Y-11619650D02*
X10486610Y-11629174D01*
X10486610Y-11629174D02*
X10496134Y-11648222D01*
X10496134Y-11648222D02*
X10496134Y-11752984D01*
X10496134Y-11648222D02*
X10505658Y-11629174D01*
X10505658Y-11629174D02*
X10524705Y-11619650D01*
X10524705Y-11619650D02*
X10553277Y-11619650D01*
X10553277Y-11619650D02*
X10572325Y-11629174D01*
X10572325Y-11629174D02*
X10581848Y-11648222D01*
X10581848Y-11648222D02*
X10581848Y-11752984D01*
X10677086Y-11752984D02*
X10677086Y-11619650D01*
X10677086Y-11638698D02*
X10686610Y-11629174D01*
X10686610Y-11629174D02*
X10705658Y-11619650D01*
X10705658Y-11619650D02*
X10734229Y-11619650D01*
X10734229Y-11619650D02*
X10753277Y-11629174D01*
X10753277Y-11629174D02*
X10762801Y-11648222D01*
X10762801Y-11648222D02*
X10762801Y-11752984D01*
X10762801Y-11648222D02*
X10772325Y-11629174D01*
X10772325Y-11629174D02*
X10791372Y-11619650D01*
X10791372Y-11619650D02*
X10819944Y-11619650D01*
X10819944Y-11619650D02*
X10838991Y-11629174D01*
X10838991Y-11629174D02*
X10848515Y-11648222D01*
X10848515Y-11648222D02*
X10848515Y-11752984D01*
X11238991Y-11543460D02*
X11067563Y-11800603D01*
X11496134Y-11552984D02*
X11515182Y-11552984D01*
X11515182Y-11552984D02*
X11534229Y-11562508D01*
X11534229Y-11562508D02*
X11543753Y-11572031D01*
X11543753Y-11572031D02*
X11553277Y-11591079D01*
X11553277Y-11591079D02*
X11562801Y-11629174D01*
X11562801Y-11629174D02*
X11562801Y-11676793D01*
X11562801Y-11676793D02*
X11553277Y-11714888D01*
X11553277Y-11714888D02*
X11543753Y-11733936D01*
X11543753Y-11733936D02*
X11534229Y-11743460D01*
X11534229Y-11743460D02*
X11515182Y-11752984D01*
X11515182Y-11752984D02*
X11496134Y-11752984D01*
X11496134Y-11752984D02*
X11477086Y-11743460D01*
X11477086Y-11743460D02*
X11467563Y-11733936D01*
X11467563Y-11733936D02*
X11458039Y-11714888D01*
X11458039Y-11714888D02*
X11448515Y-11676793D01*
X11448515Y-11676793D02*
X11448515Y-11629174D01*
X11448515Y-11629174D02*
X11458039Y-11591079D01*
X11458039Y-11591079D02*
X11467563Y-11572031D01*
X11467563Y-11572031D02*
X11477086Y-11562508D01*
X11477086Y-11562508D02*
X11496134Y-11552984D01*
X11648515Y-11733936D02*
X11658039Y-11743460D01*
X11658039Y-11743460D02*
X11648515Y-11752984D01*
X11648515Y-11752984D02*
X11638991Y-11743460D01*
X11638991Y-11743460D02*
X11648515Y-11733936D01*
X11648515Y-11733936D02*
X11648515Y-11752984D01*
X11781848Y-11552984D02*
X11800896Y-11552984D01*
X11800896Y-11552984D02*
X11819944Y-11562508D01*
X11819944Y-11562508D02*
X11829467Y-11572031D01*
X11829467Y-11572031D02*
X11838991Y-11591079D01*
X11838991Y-11591079D02*
X11848515Y-11629174D01*
X11848515Y-11629174D02*
X11848515Y-11676793D01*
X11848515Y-11676793D02*
X11838991Y-11714888D01*
X11838991Y-11714888D02*
X11829467Y-11733936D01*
X11829467Y-11733936D02*
X11819944Y-11743460D01*
X11819944Y-11743460D02*
X11800896Y-11752984D01*
X11800896Y-11752984D02*
X11781848Y-11752984D01*
X11781848Y-11752984D02*
X11762801Y-11743460D01*
X11762801Y-11743460D02*
X11753277Y-11733936D01*
X11753277Y-11733936D02*
X11743753Y-11714888D01*
X11743753Y-11714888D02*
X11734229Y-11676793D01*
X11734229Y-11676793D02*
X11734229Y-11629174D01*
X11734229Y-11629174D02*
X11743753Y-11591079D01*
X11743753Y-11591079D02*
X11753277Y-11572031D01*
X11753277Y-11572031D02*
X11762801Y-11562508D01*
X11762801Y-11562508D02*
X11781848Y-11552984D01*
X12038991Y-11752984D02*
X11924706Y-11752984D01*
X11981848Y-11752984D02*
X11981848Y-11552984D01*
X11981848Y-11552984D02*
X11962801Y-11581555D01*
X11962801Y-11581555D02*
X11943753Y-11600603D01*
X11943753Y-11600603D02*
X11924706Y-11610127D01*
X12219944Y-11552984D02*
X12124706Y-11552984D01*
X12124706Y-11552984D02*
X12115182Y-11648222D01*
X12115182Y-11648222D02*
X12124706Y-11638698D01*
X12124706Y-11638698D02*
X12143753Y-11629174D01*
X12143753Y-11629174D02*
X12191372Y-11629174D01*
X12191372Y-11629174D02*
X12210420Y-11638698D01*
X12210420Y-11638698D02*
X12219944Y-11648222D01*
X12219944Y-11648222D02*
X12229467Y-11667269D01*
X12229467Y-11667269D02*
X12229467Y-11714888D01*
X12229467Y-11714888D02*
X12219944Y-11733936D01*
X12219944Y-11733936D02*
X12210420Y-11743460D01*
X12210420Y-11743460D02*
X12191372Y-11752984D01*
X12191372Y-11752984D02*
X12143753Y-11752984D01*
X12143753Y-11752984D02*
X12124706Y-11743460D01*
X12124706Y-11743460D02*
X12115182Y-11733936D01*
X12296134Y-11552984D02*
X12429467Y-11552984D01*
X12429467Y-11552984D02*
X12343753Y-11752984D01*
X12496134Y-11552984D02*
X12496134Y-11591079D01*
X12572325Y-11552984D02*
X12572325Y-11591079D01*
X12867563Y-11829174D02*
X12858039Y-11819650D01*
X12858039Y-11819650D02*
X12838991Y-11791079D01*
X12838991Y-11791079D02*
X12829468Y-11772031D01*
X12829468Y-11772031D02*
X12819944Y-11743460D01*
X12819944Y-11743460D02*
X12810420Y-11695841D01*
X12810420Y-11695841D02*
X12810420Y-11657746D01*
X12810420Y-11657746D02*
X12819944Y-11610127D01*
X12819944Y-11610127D02*
X12829468Y-11581555D01*
X12829468Y-11581555D02*
X12838991Y-11562508D01*
X12838991Y-11562508D02*
X12858039Y-11533936D01*
X12858039Y-11533936D02*
X12867563Y-11524412D01*
X13029468Y-11619650D02*
X13029468Y-11752984D01*
X12981848Y-11543460D02*
X12934229Y-11686317D01*
X12934229Y-11686317D02*
X13058039Y-11686317D01*
X13286610Y-11752984D02*
X13286610Y-11552984D01*
X13372325Y-11752984D02*
X13372325Y-11648222D01*
X13372325Y-11648222D02*
X13362801Y-11629174D01*
X13362801Y-11629174D02*
X13343753Y-11619650D01*
X13343753Y-11619650D02*
X13315182Y-11619650D01*
X13315182Y-11619650D02*
X13296134Y-11629174D01*
X13296134Y-11629174D02*
X13286610Y-11638698D01*
X13496134Y-11752984D02*
X13477087Y-11743460D01*
X13477087Y-11743460D02*
X13467563Y-11733936D01*
X13467563Y-11733936D02*
X13458039Y-11714888D01*
X13458039Y-11714888D02*
X13458039Y-11657746D01*
X13458039Y-11657746D02*
X13467563Y-11638698D01*
X13467563Y-11638698D02*
X13477087Y-11629174D01*
X13477087Y-11629174D02*
X13496134Y-11619650D01*
X13496134Y-11619650D02*
X13524706Y-11619650D01*
X13524706Y-11619650D02*
X13543753Y-11629174D01*
X13543753Y-11629174D02*
X13553277Y-11638698D01*
X13553277Y-11638698D02*
X13562801Y-11657746D01*
X13562801Y-11657746D02*
X13562801Y-11714888D01*
X13562801Y-11714888D02*
X13553277Y-11733936D01*
X13553277Y-11733936D02*
X13543753Y-11743460D01*
X13543753Y-11743460D02*
X13524706Y-11752984D01*
X13524706Y-11752984D02*
X13496134Y-11752984D01*
X13677087Y-11752984D02*
X13658039Y-11743460D01*
X13658039Y-11743460D02*
X13648515Y-11724412D01*
X13648515Y-11724412D02*
X13648515Y-11552984D01*
X13829468Y-11743460D02*
X13810420Y-11752984D01*
X13810420Y-11752984D02*
X13772325Y-11752984D01*
X13772325Y-11752984D02*
X13753277Y-11743460D01*
X13753277Y-11743460D02*
X13743753Y-11724412D01*
X13743753Y-11724412D02*
X13743753Y-11648222D01*
X13743753Y-11648222D02*
X13753277Y-11629174D01*
X13753277Y-11629174D02*
X13772325Y-11619650D01*
X13772325Y-11619650D02*
X13810420Y-11619650D01*
X13810420Y-11619650D02*
X13829468Y-11629174D01*
X13829468Y-11629174D02*
X13838991Y-11648222D01*
X13838991Y-11648222D02*
X13838991Y-11667269D01*
X13838991Y-11667269D02*
X13743753Y-11686317D01*
X13915182Y-11743460D02*
X13934230Y-11752984D01*
X13934230Y-11752984D02*
X13972325Y-11752984D01*
X13972325Y-11752984D02*
X13991372Y-11743460D01*
X13991372Y-11743460D02*
X14000896Y-11724412D01*
X14000896Y-11724412D02*
X14000896Y-11714888D01*
X14000896Y-11714888D02*
X13991372Y-11695841D01*
X13991372Y-11695841D02*
X13972325Y-11686317D01*
X13972325Y-11686317D02*
X13943753Y-11686317D01*
X13943753Y-11686317D02*
X13924706Y-11676793D01*
X13924706Y-11676793D02*
X13915182Y-11657746D01*
X13915182Y-11657746D02*
X13915182Y-11648222D01*
X13915182Y-11648222D02*
X13924706Y-11629174D01*
X13924706Y-11629174D02*
X13943753Y-11619650D01*
X13943753Y-11619650D02*
X13972325Y-11619650D01*
X13972325Y-11619650D02*
X13991372Y-11629174D01*
X14067563Y-11829174D02*
X14077087Y-11819650D01*
X14077087Y-11819650D02*
X14096134Y-11791079D01*
X14096134Y-11791079D02*
X14105658Y-11772031D01*
X14105658Y-11772031D02*
X14115182Y-11743460D01*
X14115182Y-11743460D02*
X14124706Y-11695841D01*
X14124706Y-11695841D02*
X14124706Y-11657746D01*
X14124706Y-11657746D02*
X14115182Y-11610127D01*
X14115182Y-11610127D02*
X14105658Y-11581555D01*
X14105658Y-11581555D02*
X14096134Y-11562508D01*
X14096134Y-11562508D02*
X14077087Y-11533936D01*
X14077087Y-11533936D02*
X14067563Y-11524412D01*
M02*
