G04 #@! TF.GenerationSoftware,KiCad,Pcbnew,8.0.0*
G04 #@! TF.CreationDate,2024-04-11T14:56:04-06:00*
G04 #@! TF.ProjectId,dual_loop_probe_groundfix,6475616c-5f6c-46f6-9f70-5f70726f6265,rev?*
G04 #@! TF.SameCoordinates,Original*
G04 #@! TF.FileFunction,Soldermask,Bot*
G04 #@! TF.FilePolarity,Negative*
%FSLAX46Y46*%
G04 Gerber Fmt 4.6, Leading zero omitted, Abs format (unit mm)*
G04 Created by KiCad (PCBNEW 8.0.0) date 2024-04-11 14:56:04*
%MOMM*%
%LPD*%
G01*
G04 APERTURE LIST*
G04 APERTURE END LIST*
G36*
X101063098Y-101853966D02*
G01*
X101123353Y-101853966D01*
X101189199Y-101863890D01*
X101258273Y-101869327D01*
X101313947Y-101882693D01*
X101367302Y-101890735D01*
X101437021Y-101912240D01*
X101510187Y-101929806D01*
X101557495Y-101949401D01*
X101603052Y-101963454D01*
X101674569Y-101997895D01*
X101749538Y-102028948D01*
X101788022Y-102052531D01*
X101825322Y-102070494D01*
X101896271Y-102118866D01*
X101970433Y-102164313D01*
X102000127Y-102189674D01*
X102029162Y-102209470D01*
X102096956Y-102272374D01*
X102167433Y-102332567D01*
X102188834Y-102357625D01*
X102210011Y-102377274D01*
X102271925Y-102454911D01*
X102335687Y-102529567D01*
X102349709Y-102552449D01*
X102363830Y-102570156D01*
X102417087Y-102662399D01*
X102471052Y-102750462D01*
X102478977Y-102769597D01*
X102487185Y-102783812D01*
X102529038Y-102890454D01*
X102570194Y-102989813D01*
X102573597Y-103003991D01*
X102577314Y-103013460D01*
X102605157Y-103135446D01*
X102630673Y-103241727D01*
X102631334Y-103250133D01*
X102632214Y-103253986D01*
X102643683Y-103407031D01*
X102651000Y-103500000D01*
X102643682Y-103592975D01*
X102632214Y-103746013D01*
X102631334Y-103749865D01*
X102630673Y-103758273D01*
X102605152Y-103864573D01*
X102577314Y-103986539D01*
X102573598Y-103996005D01*
X102570194Y-104010187D01*
X102529031Y-104109563D01*
X102487185Y-104216187D01*
X102478979Y-104230399D01*
X102471052Y-104249538D01*
X102417077Y-104337616D01*
X102363830Y-104429843D01*
X102349712Y-104447546D01*
X102335687Y-104470433D01*
X102271913Y-104545102D01*
X102210011Y-104622725D01*
X102188838Y-104642369D01*
X102167433Y-104667433D01*
X102096942Y-104727637D01*
X102029162Y-104790529D01*
X102000133Y-104810320D01*
X101970433Y-104835687D01*
X101896257Y-104881142D01*
X101825322Y-104929505D01*
X101788030Y-104947463D01*
X101749538Y-104971052D01*
X101674554Y-105002110D01*
X101603052Y-105036545D01*
X101557504Y-105050594D01*
X101510187Y-105070194D01*
X101437007Y-105087762D01*
X101367302Y-105109264D01*
X101313955Y-105117304D01*
X101258273Y-105130673D01*
X101189195Y-105136109D01*
X101123353Y-105146034D01*
X101063098Y-105146034D01*
X101000000Y-105151000D01*
X100936902Y-105146034D01*
X100876647Y-105146034D01*
X100810803Y-105136109D01*
X100741727Y-105130673D01*
X100686045Y-105117305D01*
X100632697Y-105109264D01*
X100562988Y-105087761D01*
X100489813Y-105070194D01*
X100442498Y-105050595D01*
X100396947Y-105036545D01*
X100325438Y-105002107D01*
X100250462Y-104971052D01*
X100211972Y-104947465D01*
X100174675Y-104929504D01*
X100103726Y-104881131D01*
X100029567Y-104835687D01*
X99999873Y-104810326D01*
X99970839Y-104790531D01*
X99903043Y-104727625D01*
X99832567Y-104667433D01*
X99811164Y-104642374D01*
X99789988Y-104622725D01*
X99728071Y-104545084D01*
X99664313Y-104470433D01*
X99650291Y-104447551D01*
X99636169Y-104429843D01*
X99582905Y-104337588D01*
X99528948Y-104249538D01*
X99521023Y-104230405D01*
X99512814Y-104216187D01*
X99470949Y-104109517D01*
X99429806Y-104010187D01*
X99426402Y-103996012D01*
X99422685Y-103986539D01*
X99394827Y-103864488D01*
X99369327Y-103758273D01*
X99368665Y-103749871D01*
X99367785Y-103746013D01*
X99356296Y-103592710D01*
X99349000Y-103500000D01*
X99356296Y-103407297D01*
X99367785Y-103253986D01*
X99368665Y-103250126D01*
X99369327Y-103241727D01*
X99394822Y-103135530D01*
X99422685Y-103013460D01*
X99426403Y-103003984D01*
X99429806Y-102989813D01*
X99470942Y-102890500D01*
X99512814Y-102783812D01*
X99521024Y-102769590D01*
X99528948Y-102750462D01*
X99582895Y-102662427D01*
X99636169Y-102570156D01*
X99650293Y-102552443D01*
X99664313Y-102529567D01*
X99728059Y-102454929D01*
X99789988Y-102377274D01*
X99811169Y-102357620D01*
X99832567Y-102332567D01*
X99903029Y-102272386D01*
X99970839Y-102209468D01*
X99999879Y-102189668D01*
X100029567Y-102164313D01*
X100103711Y-102118876D01*
X100174675Y-102070495D01*
X100211980Y-102052529D01*
X100250462Y-102028948D01*
X100325423Y-101997898D01*
X100396947Y-101963454D01*
X100442507Y-101949400D01*
X100489813Y-101929806D01*
X100562973Y-101912241D01*
X100632697Y-101890735D01*
X100686054Y-101882692D01*
X100741727Y-101869327D01*
X100810799Y-101863890D01*
X100876647Y-101853966D01*
X100936902Y-101853966D01*
X101000000Y-101849000D01*
X101063098Y-101853966D01*
G37*
G36*
X135063098Y-101853966D02*
G01*
X135123353Y-101853966D01*
X135189199Y-101863890D01*
X135258273Y-101869327D01*
X135313947Y-101882693D01*
X135367302Y-101890735D01*
X135437021Y-101912240D01*
X135510187Y-101929806D01*
X135557495Y-101949401D01*
X135603052Y-101963454D01*
X135674569Y-101997895D01*
X135749538Y-102028948D01*
X135788022Y-102052531D01*
X135825322Y-102070494D01*
X135896271Y-102118866D01*
X135970433Y-102164313D01*
X136000127Y-102189674D01*
X136029162Y-102209470D01*
X136096956Y-102272374D01*
X136167433Y-102332567D01*
X136188834Y-102357625D01*
X136210011Y-102377274D01*
X136271925Y-102454911D01*
X136335687Y-102529567D01*
X136349709Y-102552449D01*
X136363830Y-102570156D01*
X136417087Y-102662399D01*
X136471052Y-102750462D01*
X136478977Y-102769597D01*
X136487185Y-102783812D01*
X136529038Y-102890454D01*
X136570194Y-102989813D01*
X136573597Y-103003991D01*
X136577314Y-103013460D01*
X136605157Y-103135446D01*
X136630673Y-103241727D01*
X136631334Y-103250133D01*
X136632214Y-103253986D01*
X136643683Y-103407031D01*
X136651000Y-103500000D01*
X136643682Y-103592975D01*
X136632214Y-103746013D01*
X136631334Y-103749865D01*
X136630673Y-103758273D01*
X136605152Y-103864573D01*
X136577314Y-103986539D01*
X136573598Y-103996005D01*
X136570194Y-104010187D01*
X136529031Y-104109563D01*
X136487185Y-104216187D01*
X136478979Y-104230399D01*
X136471052Y-104249538D01*
X136417077Y-104337616D01*
X136363830Y-104429843D01*
X136349712Y-104447546D01*
X136335687Y-104470433D01*
X136271913Y-104545102D01*
X136210011Y-104622725D01*
X136188838Y-104642369D01*
X136167433Y-104667433D01*
X136096942Y-104727637D01*
X136029162Y-104790529D01*
X136000133Y-104810320D01*
X135970433Y-104835687D01*
X135896257Y-104881142D01*
X135825322Y-104929505D01*
X135788030Y-104947463D01*
X135749538Y-104971052D01*
X135674554Y-105002110D01*
X135603052Y-105036545D01*
X135557504Y-105050594D01*
X135510187Y-105070194D01*
X135437007Y-105087762D01*
X135367302Y-105109264D01*
X135313955Y-105117304D01*
X135258273Y-105130673D01*
X135189195Y-105136109D01*
X135123353Y-105146034D01*
X135063098Y-105146034D01*
X135000000Y-105151000D01*
X134936902Y-105146034D01*
X134876647Y-105146034D01*
X134810803Y-105136109D01*
X134741727Y-105130673D01*
X134686045Y-105117305D01*
X134632697Y-105109264D01*
X134562988Y-105087761D01*
X134489813Y-105070194D01*
X134442498Y-105050595D01*
X134396947Y-105036545D01*
X134325438Y-105002107D01*
X134250462Y-104971052D01*
X134211972Y-104947465D01*
X134174675Y-104929504D01*
X134103726Y-104881131D01*
X134029567Y-104835687D01*
X133999873Y-104810326D01*
X133970839Y-104790531D01*
X133903043Y-104727625D01*
X133832567Y-104667433D01*
X133811164Y-104642374D01*
X133789988Y-104622725D01*
X133728071Y-104545084D01*
X133664313Y-104470433D01*
X133650291Y-104447551D01*
X133636169Y-104429843D01*
X133582905Y-104337588D01*
X133528948Y-104249538D01*
X133521023Y-104230405D01*
X133512814Y-104216187D01*
X133470949Y-104109517D01*
X133429806Y-104010187D01*
X133426402Y-103996012D01*
X133422685Y-103986539D01*
X133394827Y-103864488D01*
X133369327Y-103758273D01*
X133368665Y-103749871D01*
X133367785Y-103746013D01*
X133356296Y-103592710D01*
X133349000Y-103500000D01*
X133356296Y-103407297D01*
X133367785Y-103253986D01*
X133368665Y-103250126D01*
X133369327Y-103241727D01*
X133394822Y-103135530D01*
X133422685Y-103013460D01*
X133426403Y-103003984D01*
X133429806Y-102989813D01*
X133470942Y-102890500D01*
X133512814Y-102783812D01*
X133521024Y-102769590D01*
X133528948Y-102750462D01*
X133582895Y-102662427D01*
X133636169Y-102570156D01*
X133650293Y-102552443D01*
X133664313Y-102529567D01*
X133728059Y-102454929D01*
X133789988Y-102377274D01*
X133811169Y-102357620D01*
X133832567Y-102332567D01*
X133903029Y-102272386D01*
X133970839Y-102209468D01*
X133999879Y-102189668D01*
X134029567Y-102164313D01*
X134103711Y-102118876D01*
X134174675Y-102070495D01*
X134211980Y-102052529D01*
X134250462Y-102028948D01*
X134325423Y-101997898D01*
X134396947Y-101963454D01*
X134442507Y-101949400D01*
X134489813Y-101929806D01*
X134562973Y-101912241D01*
X134632697Y-101890735D01*
X134686054Y-101882692D01*
X134741727Y-101869327D01*
X134810799Y-101863890D01*
X134876647Y-101853966D01*
X134936902Y-101853966D01*
X135000000Y-101849000D01*
X135063098Y-101853966D01*
G37*
G36*
X168063098Y-101853966D02*
G01*
X168123353Y-101853966D01*
X168189199Y-101863890D01*
X168258273Y-101869327D01*
X168313947Y-101882693D01*
X168367302Y-101890735D01*
X168437021Y-101912240D01*
X168510187Y-101929806D01*
X168557495Y-101949401D01*
X168603052Y-101963454D01*
X168674569Y-101997895D01*
X168749538Y-102028948D01*
X168788022Y-102052531D01*
X168825322Y-102070494D01*
X168896271Y-102118866D01*
X168970433Y-102164313D01*
X169000127Y-102189674D01*
X169029162Y-102209470D01*
X169096956Y-102272374D01*
X169167433Y-102332567D01*
X169188834Y-102357625D01*
X169210011Y-102377274D01*
X169271925Y-102454911D01*
X169335687Y-102529567D01*
X169349709Y-102552449D01*
X169363830Y-102570156D01*
X169417087Y-102662399D01*
X169471052Y-102750462D01*
X169478977Y-102769597D01*
X169487185Y-102783812D01*
X169529038Y-102890454D01*
X169570194Y-102989813D01*
X169573597Y-103003991D01*
X169577314Y-103013460D01*
X169605157Y-103135446D01*
X169630673Y-103241727D01*
X169631334Y-103250133D01*
X169632214Y-103253986D01*
X169643683Y-103407031D01*
X169651000Y-103500000D01*
X169643682Y-103592975D01*
X169632214Y-103746013D01*
X169631334Y-103749865D01*
X169630673Y-103758273D01*
X169605152Y-103864573D01*
X169577314Y-103986539D01*
X169573598Y-103996005D01*
X169570194Y-104010187D01*
X169529031Y-104109563D01*
X169487185Y-104216187D01*
X169478979Y-104230399D01*
X169471052Y-104249538D01*
X169417077Y-104337616D01*
X169363830Y-104429843D01*
X169349712Y-104447546D01*
X169335687Y-104470433D01*
X169271913Y-104545102D01*
X169210011Y-104622725D01*
X169188838Y-104642369D01*
X169167433Y-104667433D01*
X169096942Y-104727637D01*
X169029162Y-104790529D01*
X169000133Y-104810320D01*
X168970433Y-104835687D01*
X168896257Y-104881142D01*
X168825322Y-104929505D01*
X168788030Y-104947463D01*
X168749538Y-104971052D01*
X168674554Y-105002110D01*
X168603052Y-105036545D01*
X168557504Y-105050594D01*
X168510187Y-105070194D01*
X168437007Y-105087762D01*
X168367302Y-105109264D01*
X168313955Y-105117304D01*
X168258273Y-105130673D01*
X168189195Y-105136109D01*
X168123353Y-105146034D01*
X168063098Y-105146034D01*
X168000000Y-105151000D01*
X167936902Y-105146034D01*
X167876647Y-105146034D01*
X167810803Y-105136109D01*
X167741727Y-105130673D01*
X167686045Y-105117305D01*
X167632697Y-105109264D01*
X167562988Y-105087761D01*
X167489813Y-105070194D01*
X167442498Y-105050595D01*
X167396947Y-105036545D01*
X167325438Y-105002107D01*
X167250462Y-104971052D01*
X167211972Y-104947465D01*
X167174675Y-104929504D01*
X167103726Y-104881131D01*
X167029567Y-104835687D01*
X166999873Y-104810326D01*
X166970839Y-104790531D01*
X166903043Y-104727625D01*
X166832567Y-104667433D01*
X166811164Y-104642374D01*
X166789988Y-104622725D01*
X166728071Y-104545084D01*
X166664313Y-104470433D01*
X166650291Y-104447551D01*
X166636169Y-104429843D01*
X166582905Y-104337588D01*
X166528948Y-104249538D01*
X166521023Y-104230405D01*
X166512814Y-104216187D01*
X166470949Y-104109517D01*
X166429806Y-104010187D01*
X166426402Y-103996012D01*
X166422685Y-103986539D01*
X166394827Y-103864488D01*
X166369327Y-103758273D01*
X166368665Y-103749871D01*
X166367785Y-103746013D01*
X166356296Y-103592710D01*
X166349000Y-103500000D01*
X166356296Y-103407297D01*
X166367785Y-103253986D01*
X166368665Y-103250126D01*
X166369327Y-103241727D01*
X166394822Y-103135530D01*
X166422685Y-103013460D01*
X166426403Y-103003984D01*
X166429806Y-102989813D01*
X166470942Y-102890500D01*
X166512814Y-102783812D01*
X166521024Y-102769590D01*
X166528948Y-102750462D01*
X166582895Y-102662427D01*
X166636169Y-102570156D01*
X166650293Y-102552443D01*
X166664313Y-102529567D01*
X166728059Y-102454929D01*
X166789988Y-102377274D01*
X166811169Y-102357620D01*
X166832567Y-102332567D01*
X166903029Y-102272386D01*
X166970839Y-102209468D01*
X166999879Y-102189668D01*
X167029567Y-102164313D01*
X167103711Y-102118876D01*
X167174675Y-102070495D01*
X167211980Y-102052529D01*
X167250462Y-102028948D01*
X167325423Y-101997898D01*
X167396947Y-101963454D01*
X167442507Y-101949400D01*
X167489813Y-101929806D01*
X167562973Y-101912241D01*
X167632697Y-101890735D01*
X167686054Y-101882692D01*
X167741727Y-101869327D01*
X167810799Y-101863890D01*
X167876647Y-101853966D01*
X167936902Y-101853966D01*
X168000000Y-101849000D01*
X168063098Y-101853966D01*
G37*
G36*
X97614517Y-97777882D02*
G01*
X97631062Y-97788938D01*
X97642118Y-97805483D01*
X97646000Y-97825000D01*
X97646000Y-100825000D01*
X97642118Y-100844517D01*
X97631062Y-100861062D01*
X97614517Y-100872118D01*
X97595000Y-100876000D01*
X93405000Y-100876000D01*
X93385483Y-100872118D01*
X93368938Y-100861062D01*
X93357882Y-100844517D01*
X93354000Y-100825000D01*
X93354000Y-97825000D01*
X93357882Y-97805483D01*
X93368938Y-97788938D01*
X93385483Y-97777882D01*
X93405000Y-97774000D01*
X97595000Y-97774000D01*
X97614517Y-97777882D01*
G37*
G36*
X97614517Y-91127882D02*
G01*
X97631062Y-91138938D01*
X97642118Y-91155483D01*
X97646000Y-91175000D01*
X97646000Y-94175000D01*
X97642118Y-94194517D01*
X97631062Y-94211062D01*
X97614517Y-94222118D01*
X97595000Y-94226000D01*
X93405000Y-94226000D01*
X93385483Y-94222118D01*
X93368938Y-94211062D01*
X93357882Y-94194517D01*
X93354000Y-94175000D01*
X93354000Y-91175000D01*
X93357882Y-91155483D01*
X93368938Y-91138938D01*
X93385483Y-91127882D01*
X93405000Y-91124000D01*
X97595000Y-91124000D01*
X97614517Y-91127882D01*
G37*
G36*
X97614517Y-87452882D02*
G01*
X97631062Y-87463938D01*
X97642118Y-87480483D01*
X97646000Y-87500000D01*
X97646000Y-90500000D01*
X97642118Y-90519517D01*
X97631062Y-90536062D01*
X97614517Y-90547118D01*
X97595000Y-90551000D01*
X93405000Y-90551000D01*
X93385483Y-90547118D01*
X93368938Y-90536062D01*
X93357882Y-90519517D01*
X93354000Y-90500000D01*
X93354000Y-87500000D01*
X93357882Y-87480483D01*
X93368938Y-87463938D01*
X93385483Y-87452882D01*
X93405000Y-87449000D01*
X97595000Y-87449000D01*
X97614517Y-87452882D01*
G37*
G36*
X97614517Y-80802882D02*
G01*
X97631062Y-80813938D01*
X97642118Y-80830483D01*
X97646000Y-80850000D01*
X97646000Y-83850000D01*
X97642118Y-83869517D01*
X97631062Y-83886062D01*
X97614517Y-83897118D01*
X97595000Y-83901000D01*
X93405000Y-83901000D01*
X93385483Y-83897118D01*
X93368938Y-83886062D01*
X93357882Y-83869517D01*
X93354000Y-83850000D01*
X93354000Y-80850000D01*
X93357882Y-80830483D01*
X93368938Y-80813938D01*
X93385483Y-80802882D01*
X93405000Y-80799000D01*
X97595000Y-80799000D01*
X97614517Y-80802882D01*
G37*
G36*
X101063098Y-76353966D02*
G01*
X101123353Y-76353966D01*
X101189199Y-76363890D01*
X101258273Y-76369327D01*
X101313947Y-76382693D01*
X101367302Y-76390735D01*
X101437021Y-76412240D01*
X101510187Y-76429806D01*
X101557495Y-76449401D01*
X101603052Y-76463454D01*
X101674569Y-76497895D01*
X101749538Y-76528948D01*
X101788022Y-76552531D01*
X101825322Y-76570494D01*
X101896271Y-76618866D01*
X101970433Y-76664313D01*
X102000127Y-76689674D01*
X102029162Y-76709470D01*
X102096956Y-76772374D01*
X102167433Y-76832567D01*
X102188834Y-76857625D01*
X102210011Y-76877274D01*
X102271925Y-76954911D01*
X102335687Y-77029567D01*
X102349709Y-77052449D01*
X102363830Y-77070156D01*
X102417087Y-77162399D01*
X102471052Y-77250462D01*
X102478977Y-77269597D01*
X102487185Y-77283812D01*
X102529038Y-77390454D01*
X102570194Y-77489813D01*
X102573597Y-77503991D01*
X102577314Y-77513460D01*
X102605157Y-77635446D01*
X102630673Y-77741727D01*
X102631334Y-77750133D01*
X102632214Y-77753986D01*
X102643683Y-77907031D01*
X102651000Y-78000000D01*
X102643682Y-78092975D01*
X102632214Y-78246013D01*
X102631334Y-78249865D01*
X102630673Y-78258273D01*
X102605152Y-78364573D01*
X102577314Y-78486539D01*
X102573598Y-78496005D01*
X102570194Y-78510187D01*
X102529031Y-78609563D01*
X102487185Y-78716187D01*
X102478979Y-78730399D01*
X102471052Y-78749538D01*
X102417077Y-78837616D01*
X102363830Y-78929843D01*
X102349712Y-78947546D01*
X102335687Y-78970433D01*
X102271913Y-79045102D01*
X102210011Y-79122725D01*
X102188838Y-79142369D01*
X102167433Y-79167433D01*
X102096942Y-79227637D01*
X102029162Y-79290529D01*
X102000133Y-79310320D01*
X101970433Y-79335687D01*
X101896257Y-79381142D01*
X101825322Y-79429505D01*
X101788030Y-79447463D01*
X101749538Y-79471052D01*
X101674554Y-79502110D01*
X101603052Y-79536545D01*
X101557504Y-79550594D01*
X101510187Y-79570194D01*
X101437007Y-79587762D01*
X101367302Y-79609264D01*
X101313955Y-79617304D01*
X101258273Y-79630673D01*
X101189195Y-79636109D01*
X101123353Y-79646034D01*
X101063098Y-79646034D01*
X101000000Y-79651000D01*
X100936902Y-79646034D01*
X100876647Y-79646034D01*
X100810803Y-79636109D01*
X100741727Y-79630673D01*
X100686045Y-79617305D01*
X100632697Y-79609264D01*
X100562988Y-79587761D01*
X100489813Y-79570194D01*
X100442498Y-79550595D01*
X100396947Y-79536545D01*
X100325438Y-79502107D01*
X100250462Y-79471052D01*
X100211972Y-79447465D01*
X100174675Y-79429504D01*
X100103726Y-79381131D01*
X100029567Y-79335687D01*
X99999873Y-79310326D01*
X99970839Y-79290531D01*
X99903043Y-79227625D01*
X99832567Y-79167433D01*
X99811164Y-79142374D01*
X99789988Y-79122725D01*
X99728071Y-79045084D01*
X99664313Y-78970433D01*
X99650291Y-78947551D01*
X99636169Y-78929843D01*
X99582905Y-78837588D01*
X99528948Y-78749538D01*
X99521023Y-78730405D01*
X99512814Y-78716187D01*
X99470949Y-78609517D01*
X99429806Y-78510187D01*
X99426402Y-78496012D01*
X99422685Y-78486539D01*
X99394827Y-78364488D01*
X99369327Y-78258273D01*
X99368665Y-78249871D01*
X99367785Y-78246013D01*
X99356296Y-78092710D01*
X99349000Y-78000000D01*
X99356296Y-77907297D01*
X99367785Y-77753986D01*
X99368665Y-77750126D01*
X99369327Y-77741727D01*
X99394822Y-77635530D01*
X99422685Y-77513460D01*
X99426403Y-77503984D01*
X99429806Y-77489813D01*
X99470942Y-77390500D01*
X99512814Y-77283812D01*
X99521024Y-77269590D01*
X99528948Y-77250462D01*
X99582895Y-77162427D01*
X99636169Y-77070156D01*
X99650293Y-77052443D01*
X99664313Y-77029567D01*
X99728059Y-76954929D01*
X99789988Y-76877274D01*
X99811169Y-76857620D01*
X99832567Y-76832567D01*
X99903029Y-76772386D01*
X99970839Y-76709468D01*
X99999879Y-76689668D01*
X100029567Y-76664313D01*
X100103711Y-76618876D01*
X100174675Y-76570495D01*
X100211980Y-76552529D01*
X100250462Y-76528948D01*
X100325423Y-76497898D01*
X100396947Y-76463454D01*
X100442507Y-76449400D01*
X100489813Y-76429806D01*
X100562973Y-76412241D01*
X100632697Y-76390735D01*
X100686054Y-76382692D01*
X100741727Y-76369327D01*
X100810799Y-76363890D01*
X100876647Y-76353966D01*
X100936902Y-76353966D01*
X101000000Y-76349000D01*
X101063098Y-76353966D01*
G37*
G36*
X135063098Y-76353966D02*
G01*
X135123353Y-76353966D01*
X135189199Y-76363890D01*
X135258273Y-76369327D01*
X135313947Y-76382693D01*
X135367302Y-76390735D01*
X135437021Y-76412240D01*
X135510187Y-76429806D01*
X135557495Y-76449401D01*
X135603052Y-76463454D01*
X135674569Y-76497895D01*
X135749538Y-76528948D01*
X135788022Y-76552531D01*
X135825322Y-76570494D01*
X135896271Y-76618866D01*
X135970433Y-76664313D01*
X136000127Y-76689674D01*
X136029162Y-76709470D01*
X136096956Y-76772374D01*
X136167433Y-76832567D01*
X136188834Y-76857625D01*
X136210011Y-76877274D01*
X136271925Y-76954911D01*
X136335687Y-77029567D01*
X136349709Y-77052449D01*
X136363830Y-77070156D01*
X136417087Y-77162399D01*
X136471052Y-77250462D01*
X136478977Y-77269597D01*
X136487185Y-77283812D01*
X136529038Y-77390454D01*
X136570194Y-77489813D01*
X136573597Y-77503991D01*
X136577314Y-77513460D01*
X136605157Y-77635446D01*
X136630673Y-77741727D01*
X136631334Y-77750133D01*
X136632214Y-77753986D01*
X136643683Y-77907031D01*
X136651000Y-78000000D01*
X136643682Y-78092975D01*
X136632214Y-78246013D01*
X136631334Y-78249865D01*
X136630673Y-78258273D01*
X136605152Y-78364573D01*
X136577314Y-78486539D01*
X136573598Y-78496005D01*
X136570194Y-78510187D01*
X136529031Y-78609563D01*
X136487185Y-78716187D01*
X136478979Y-78730399D01*
X136471052Y-78749538D01*
X136417077Y-78837616D01*
X136363830Y-78929843D01*
X136349712Y-78947546D01*
X136335687Y-78970433D01*
X136271913Y-79045102D01*
X136210011Y-79122725D01*
X136188838Y-79142369D01*
X136167433Y-79167433D01*
X136096942Y-79227637D01*
X136029162Y-79290529D01*
X136000133Y-79310320D01*
X135970433Y-79335687D01*
X135896257Y-79381142D01*
X135825322Y-79429505D01*
X135788030Y-79447463D01*
X135749538Y-79471052D01*
X135674554Y-79502110D01*
X135603052Y-79536545D01*
X135557504Y-79550594D01*
X135510187Y-79570194D01*
X135437007Y-79587762D01*
X135367302Y-79609264D01*
X135313955Y-79617304D01*
X135258273Y-79630673D01*
X135189195Y-79636109D01*
X135123353Y-79646034D01*
X135063098Y-79646034D01*
X135000000Y-79651000D01*
X134936902Y-79646034D01*
X134876647Y-79646034D01*
X134810803Y-79636109D01*
X134741727Y-79630673D01*
X134686045Y-79617305D01*
X134632697Y-79609264D01*
X134562988Y-79587761D01*
X134489813Y-79570194D01*
X134442498Y-79550595D01*
X134396947Y-79536545D01*
X134325438Y-79502107D01*
X134250462Y-79471052D01*
X134211972Y-79447465D01*
X134174675Y-79429504D01*
X134103726Y-79381131D01*
X134029567Y-79335687D01*
X133999873Y-79310326D01*
X133970839Y-79290531D01*
X133903043Y-79227625D01*
X133832567Y-79167433D01*
X133811164Y-79142374D01*
X133789988Y-79122725D01*
X133728071Y-79045084D01*
X133664313Y-78970433D01*
X133650291Y-78947551D01*
X133636169Y-78929843D01*
X133582905Y-78837588D01*
X133528948Y-78749538D01*
X133521023Y-78730405D01*
X133512814Y-78716187D01*
X133470949Y-78609517D01*
X133429806Y-78510187D01*
X133426402Y-78496012D01*
X133422685Y-78486539D01*
X133394827Y-78364488D01*
X133369327Y-78258273D01*
X133368665Y-78249871D01*
X133367785Y-78246013D01*
X133356296Y-78092710D01*
X133349000Y-78000000D01*
X133356296Y-77907297D01*
X133367785Y-77753986D01*
X133368665Y-77750126D01*
X133369327Y-77741727D01*
X133394822Y-77635530D01*
X133422685Y-77513460D01*
X133426403Y-77503984D01*
X133429806Y-77489813D01*
X133470942Y-77390500D01*
X133512814Y-77283812D01*
X133521024Y-77269590D01*
X133528948Y-77250462D01*
X133582895Y-77162427D01*
X133636169Y-77070156D01*
X133650293Y-77052443D01*
X133664313Y-77029567D01*
X133728059Y-76954929D01*
X133789988Y-76877274D01*
X133811169Y-76857620D01*
X133832567Y-76832567D01*
X133903029Y-76772386D01*
X133970839Y-76709468D01*
X133999879Y-76689668D01*
X134029567Y-76664313D01*
X134103711Y-76618876D01*
X134174675Y-76570495D01*
X134211980Y-76552529D01*
X134250462Y-76528948D01*
X134325423Y-76497898D01*
X134396947Y-76463454D01*
X134442507Y-76449400D01*
X134489813Y-76429806D01*
X134562973Y-76412241D01*
X134632697Y-76390735D01*
X134686054Y-76382692D01*
X134741727Y-76369327D01*
X134810799Y-76363890D01*
X134876647Y-76353966D01*
X134936902Y-76353966D01*
X135000000Y-76349000D01*
X135063098Y-76353966D01*
G37*
G36*
X168063098Y-76353966D02*
G01*
X168123353Y-76353966D01*
X168189199Y-76363890D01*
X168258273Y-76369327D01*
X168313947Y-76382693D01*
X168367302Y-76390735D01*
X168437021Y-76412240D01*
X168510187Y-76429806D01*
X168557495Y-76449401D01*
X168603052Y-76463454D01*
X168674569Y-76497895D01*
X168749538Y-76528948D01*
X168788022Y-76552531D01*
X168825322Y-76570494D01*
X168896271Y-76618866D01*
X168970433Y-76664313D01*
X169000127Y-76689674D01*
X169029162Y-76709470D01*
X169096956Y-76772374D01*
X169167433Y-76832567D01*
X169188834Y-76857625D01*
X169210011Y-76877274D01*
X169271925Y-76954911D01*
X169335687Y-77029567D01*
X169349709Y-77052449D01*
X169363830Y-77070156D01*
X169417087Y-77162399D01*
X169471052Y-77250462D01*
X169478977Y-77269597D01*
X169487185Y-77283812D01*
X169529038Y-77390454D01*
X169570194Y-77489813D01*
X169573597Y-77503991D01*
X169577314Y-77513460D01*
X169605157Y-77635446D01*
X169630673Y-77741727D01*
X169631334Y-77750133D01*
X169632214Y-77753986D01*
X169643683Y-77907031D01*
X169651000Y-78000000D01*
X169643682Y-78092975D01*
X169632214Y-78246013D01*
X169631334Y-78249865D01*
X169630673Y-78258273D01*
X169605152Y-78364573D01*
X169577314Y-78486539D01*
X169573598Y-78496005D01*
X169570194Y-78510187D01*
X169529031Y-78609563D01*
X169487185Y-78716187D01*
X169478979Y-78730399D01*
X169471052Y-78749538D01*
X169417077Y-78837616D01*
X169363830Y-78929843D01*
X169349712Y-78947546D01*
X169335687Y-78970433D01*
X169271913Y-79045102D01*
X169210011Y-79122725D01*
X169188838Y-79142369D01*
X169167433Y-79167433D01*
X169096942Y-79227637D01*
X169029162Y-79290529D01*
X169000133Y-79310320D01*
X168970433Y-79335687D01*
X168896257Y-79381142D01*
X168825322Y-79429505D01*
X168788030Y-79447463D01*
X168749538Y-79471052D01*
X168674554Y-79502110D01*
X168603052Y-79536545D01*
X168557504Y-79550594D01*
X168510187Y-79570194D01*
X168437007Y-79587762D01*
X168367302Y-79609264D01*
X168313955Y-79617304D01*
X168258273Y-79630673D01*
X168189195Y-79636109D01*
X168123353Y-79646034D01*
X168063098Y-79646034D01*
X168000000Y-79651000D01*
X167936902Y-79646034D01*
X167876647Y-79646034D01*
X167810803Y-79636109D01*
X167741727Y-79630673D01*
X167686045Y-79617305D01*
X167632697Y-79609264D01*
X167562988Y-79587761D01*
X167489813Y-79570194D01*
X167442498Y-79550595D01*
X167396947Y-79536545D01*
X167325438Y-79502107D01*
X167250462Y-79471052D01*
X167211972Y-79447465D01*
X167174675Y-79429504D01*
X167103726Y-79381131D01*
X167029567Y-79335687D01*
X166999873Y-79310326D01*
X166970839Y-79290531D01*
X166903043Y-79227625D01*
X166832567Y-79167433D01*
X166811164Y-79142374D01*
X166789988Y-79122725D01*
X166728071Y-79045084D01*
X166664313Y-78970433D01*
X166650291Y-78947551D01*
X166636169Y-78929843D01*
X166582905Y-78837588D01*
X166528948Y-78749538D01*
X166521023Y-78730405D01*
X166512814Y-78716187D01*
X166470949Y-78609517D01*
X166429806Y-78510187D01*
X166426402Y-78496012D01*
X166422685Y-78486539D01*
X166394827Y-78364488D01*
X166369327Y-78258273D01*
X166368665Y-78249871D01*
X166367785Y-78246013D01*
X166356296Y-78092710D01*
X166349000Y-78000000D01*
X166356296Y-77907297D01*
X166367785Y-77753986D01*
X166368665Y-77750126D01*
X166369327Y-77741727D01*
X166394822Y-77635530D01*
X166422685Y-77513460D01*
X166426403Y-77503984D01*
X166429806Y-77489813D01*
X166470942Y-77390500D01*
X166512814Y-77283812D01*
X166521024Y-77269590D01*
X166528948Y-77250462D01*
X166582895Y-77162427D01*
X166636169Y-77070156D01*
X166650293Y-77052443D01*
X166664313Y-77029567D01*
X166728059Y-76954929D01*
X166789988Y-76877274D01*
X166811169Y-76857620D01*
X166832567Y-76832567D01*
X166903029Y-76772386D01*
X166970839Y-76709468D01*
X166999879Y-76689668D01*
X167029567Y-76664313D01*
X167103711Y-76618876D01*
X167174675Y-76570495D01*
X167211980Y-76552529D01*
X167250462Y-76528948D01*
X167325423Y-76497898D01*
X167396947Y-76463454D01*
X167442507Y-76449400D01*
X167489813Y-76429806D01*
X167562973Y-76412241D01*
X167632697Y-76390735D01*
X167686054Y-76382692D01*
X167741727Y-76369327D01*
X167810799Y-76363890D01*
X167876647Y-76353966D01*
X167936902Y-76353966D01*
X168000000Y-76349000D01*
X168063098Y-76353966D01*
G37*
M02*
