%TF.GenerationSoftware,KiCad,Pcbnew,8.0.0*%
%TF.CreationDate,2024-04-11T14:57:10-06:00*%
%TF.ProjectId,dual_loop_probe_groundfix,6475616c-5f6c-46f6-9f70-5f70726f6265,rev?*%
%TF.SameCoordinates,Original*%
%TF.FileFunction,Drillmap*%
%TF.FilePolarity,Positive*%
%FSLAX45Y45*%
G04 Gerber Fmt 4.5, Leading zero omitted, Abs format (unit mm)*
G04 Created by KiCad (PCBNEW 8.0.0) date 2024-04-11 14:57:10*
%MOMM*%
%LPD*%
G01*
G04 APERTURE LIST*
%ADD10C,0.150000*%
%ADD11C,0.200000*%
%ADD12C,0.320000*%
G04 APERTURE END LIST*
D10*
X18100000Y-7400000D02*
X9300000Y-7400000D01*
X19250000Y-9600000D02*
G75*
G02*
X18100000Y-10750000I-1150000J0D01*
G01*
X18475000Y-9075000D02*
G75*
G02*
X17725000Y-9075000I-375000J488709D01*
G01*
X19250000Y-8500000D02*
X19250000Y-9600000D01*
X17497002Y-8623373D02*
G75*
G02*
X18693279Y-8616940I603408J-976597D01*
G01*
X18703080Y-9532179D02*
G75*
G02*
X17497085Y-9530736I-601820J984869D01*
G01*
X17497002Y-8623373D02*
G75*
G02*
X18693282Y-8616936I597762J73396D01*
G01*
X17725000Y-9075000D02*
G75*
G02*
X18475000Y-9075000I375000J-488709D01*
G01*
X18100000Y-10750000D02*
X9300000Y-10750000D01*
X9300000Y-10750000D02*
X9300000Y-7400000D01*
X18703080Y-9532179D02*
G75*
G02*
X17497083Y-9530738I-603080J-67821D01*
G01*
X18100000Y-7400000D02*
G75*
G02*
X19250000Y-8500000I25000J-1125000D01*
G01*
D11*
D12*
X9940000Y-7640000D02*
X10260000Y-7960000D01*
X10260000Y-7640000D02*
X9940000Y-7960000D01*
X9940000Y-10190000D02*
X10260000Y-10510000D01*
X10260000Y-10190000D02*
X9940000Y-10510000D01*
X13340000Y-7640000D02*
X13660000Y-7960000D01*
X13660000Y-7640000D02*
X13340000Y-7960000D01*
X13340000Y-10190000D02*
X13660000Y-10510000D01*
X13660000Y-10190000D02*
X13340000Y-10510000D01*
X16640000Y-7640000D02*
X16960000Y-7960000D01*
X16960000Y-7640000D02*
X16640000Y-7960000D01*
X16640000Y-10190000D02*
X16960000Y-10510000D01*
X16960000Y-10190000D02*
X16640000Y-10510000D01*
D11*
X9553277Y-11068984D02*
X9553277Y-10868984D01*
X9553277Y-10868984D02*
X9600896Y-10868984D01*
X9600896Y-10868984D02*
X9629467Y-10878508D01*
X9629467Y-10878508D02*
X9648515Y-10897555D01*
X9648515Y-10897555D02*
X9658039Y-10916603D01*
X9658039Y-10916603D02*
X9667563Y-10954698D01*
X9667563Y-10954698D02*
X9667563Y-10983270D01*
X9667563Y-10983270D02*
X9658039Y-11021365D01*
X9658039Y-11021365D02*
X9648515Y-11040412D01*
X9648515Y-11040412D02*
X9629467Y-11059460D01*
X9629467Y-11059460D02*
X9600896Y-11068984D01*
X9600896Y-11068984D02*
X9553277Y-11068984D01*
X9753277Y-11068984D02*
X9753277Y-10935650D01*
X9753277Y-10973746D02*
X9762801Y-10954698D01*
X9762801Y-10954698D02*
X9772324Y-10945174D01*
X9772324Y-10945174D02*
X9791372Y-10935650D01*
X9791372Y-10935650D02*
X9810420Y-10935650D01*
X9877086Y-11068984D02*
X9877086Y-10935650D01*
X9877086Y-10868984D02*
X9867563Y-10878508D01*
X9867563Y-10878508D02*
X9877086Y-10888031D01*
X9877086Y-10888031D02*
X9886610Y-10878508D01*
X9886610Y-10878508D02*
X9877086Y-10868984D01*
X9877086Y-10868984D02*
X9877086Y-10888031D01*
X10000896Y-11068984D02*
X9981848Y-11059460D01*
X9981848Y-11059460D02*
X9972324Y-11040412D01*
X9972324Y-11040412D02*
X9972324Y-10868984D01*
X10105658Y-11068984D02*
X10086610Y-11059460D01*
X10086610Y-11059460D02*
X10077086Y-11040412D01*
X10077086Y-11040412D02*
X10077086Y-10868984D01*
X10334229Y-11068984D02*
X10334229Y-10868984D01*
X10334229Y-10868984D02*
X10400896Y-11011841D01*
X10400896Y-11011841D02*
X10467563Y-10868984D01*
X10467563Y-10868984D02*
X10467563Y-11068984D01*
X10648515Y-11068984D02*
X10648515Y-10964222D01*
X10648515Y-10964222D02*
X10638991Y-10945174D01*
X10638991Y-10945174D02*
X10619944Y-10935650D01*
X10619944Y-10935650D02*
X10581848Y-10935650D01*
X10581848Y-10935650D02*
X10562801Y-10945174D01*
X10648515Y-11059460D02*
X10629467Y-11068984D01*
X10629467Y-11068984D02*
X10581848Y-11068984D01*
X10581848Y-11068984D02*
X10562801Y-11059460D01*
X10562801Y-11059460D02*
X10553277Y-11040412D01*
X10553277Y-11040412D02*
X10553277Y-11021365D01*
X10553277Y-11021365D02*
X10562801Y-11002317D01*
X10562801Y-11002317D02*
X10581848Y-10992793D01*
X10581848Y-10992793D02*
X10629467Y-10992793D01*
X10629467Y-10992793D02*
X10648515Y-10983270D01*
X10743753Y-10935650D02*
X10743753Y-11135650D01*
X10743753Y-10945174D02*
X10762801Y-10935650D01*
X10762801Y-10935650D02*
X10800896Y-10935650D01*
X10800896Y-10935650D02*
X10819944Y-10945174D01*
X10819944Y-10945174D02*
X10829467Y-10954698D01*
X10829467Y-10954698D02*
X10838991Y-10973746D01*
X10838991Y-10973746D02*
X10838991Y-11030889D01*
X10838991Y-11030889D02*
X10829467Y-11049936D01*
X10829467Y-11049936D02*
X10819944Y-11059460D01*
X10819944Y-11059460D02*
X10800896Y-11068984D01*
X10800896Y-11068984D02*
X10762801Y-11068984D01*
X10762801Y-11068984D02*
X10743753Y-11059460D01*
X10924705Y-11049936D02*
X10934229Y-11059460D01*
X10934229Y-11059460D02*
X10924705Y-11068984D01*
X10924705Y-11068984D02*
X10915182Y-11059460D01*
X10915182Y-11059460D02*
X10924705Y-11049936D01*
X10924705Y-11049936D02*
X10924705Y-11068984D01*
X10924705Y-10945174D02*
X10934229Y-10954698D01*
X10934229Y-10954698D02*
X10924705Y-10964222D01*
X10924705Y-10964222D02*
X10915182Y-10954698D01*
X10915182Y-10954698D02*
X10924705Y-10945174D01*
X10924705Y-10945174D02*
X10924705Y-10964222D01*
X9092500Y-11297500D02*
X9292500Y-11497500D01*
X9292500Y-11297500D02*
X9092500Y-11497500D01*
X9534229Y-11288984D02*
X9658039Y-11288984D01*
X9658039Y-11288984D02*
X9591372Y-11365174D01*
X9591372Y-11365174D02*
X9619944Y-11365174D01*
X9619944Y-11365174D02*
X9638991Y-11374698D01*
X9638991Y-11374698D02*
X9648515Y-11384222D01*
X9648515Y-11384222D02*
X9658039Y-11403269D01*
X9658039Y-11403269D02*
X9658039Y-11450888D01*
X9658039Y-11450888D02*
X9648515Y-11469936D01*
X9648515Y-11469936D02*
X9638991Y-11479460D01*
X9638991Y-11479460D02*
X9619944Y-11488984D01*
X9619944Y-11488984D02*
X9562801Y-11488984D01*
X9562801Y-11488984D02*
X9543753Y-11479460D01*
X9543753Y-11479460D02*
X9534229Y-11469936D01*
X9743753Y-11469936D02*
X9753277Y-11479460D01*
X9753277Y-11479460D02*
X9743753Y-11488984D01*
X9743753Y-11488984D02*
X9734229Y-11479460D01*
X9734229Y-11479460D02*
X9743753Y-11469936D01*
X9743753Y-11469936D02*
X9743753Y-11488984D01*
X9829467Y-11308031D02*
X9838991Y-11298508D01*
X9838991Y-11298508D02*
X9858039Y-11288984D01*
X9858039Y-11288984D02*
X9905658Y-11288984D01*
X9905658Y-11288984D02*
X9924705Y-11298508D01*
X9924705Y-11298508D02*
X9934229Y-11308031D01*
X9934229Y-11308031D02*
X9943753Y-11327079D01*
X9943753Y-11327079D02*
X9943753Y-11346127D01*
X9943753Y-11346127D02*
X9934229Y-11374698D01*
X9934229Y-11374698D02*
X9819944Y-11488984D01*
X9819944Y-11488984D02*
X9943753Y-11488984D01*
X10067563Y-11288984D02*
X10086610Y-11288984D01*
X10086610Y-11288984D02*
X10105658Y-11298508D01*
X10105658Y-11298508D02*
X10115182Y-11308031D01*
X10115182Y-11308031D02*
X10124705Y-11327079D01*
X10124705Y-11327079D02*
X10134229Y-11365174D01*
X10134229Y-11365174D02*
X10134229Y-11412793D01*
X10134229Y-11412793D02*
X10124705Y-11450888D01*
X10124705Y-11450888D02*
X10115182Y-11469936D01*
X10115182Y-11469936D02*
X10105658Y-11479460D01*
X10105658Y-11479460D02*
X10086610Y-11488984D01*
X10086610Y-11488984D02*
X10067563Y-11488984D01*
X10067563Y-11488984D02*
X10048515Y-11479460D01*
X10048515Y-11479460D02*
X10038991Y-11469936D01*
X10038991Y-11469936D02*
X10029467Y-11450888D01*
X10029467Y-11450888D02*
X10019944Y-11412793D01*
X10019944Y-11412793D02*
X10019944Y-11365174D01*
X10019944Y-11365174D02*
X10029467Y-11327079D01*
X10029467Y-11327079D02*
X10038991Y-11308031D01*
X10038991Y-11308031D02*
X10048515Y-11298508D01*
X10048515Y-11298508D02*
X10067563Y-11288984D01*
X10258039Y-11288984D02*
X10277086Y-11288984D01*
X10277086Y-11288984D02*
X10296134Y-11298508D01*
X10296134Y-11298508D02*
X10305658Y-11308031D01*
X10305658Y-11308031D02*
X10315182Y-11327079D01*
X10315182Y-11327079D02*
X10324705Y-11365174D01*
X10324705Y-11365174D02*
X10324705Y-11412793D01*
X10324705Y-11412793D02*
X10315182Y-11450888D01*
X10315182Y-11450888D02*
X10305658Y-11469936D01*
X10305658Y-11469936D02*
X10296134Y-11479460D01*
X10296134Y-11479460D02*
X10277086Y-11488984D01*
X10277086Y-11488984D02*
X10258039Y-11488984D01*
X10258039Y-11488984D02*
X10238991Y-11479460D01*
X10238991Y-11479460D02*
X10229467Y-11469936D01*
X10229467Y-11469936D02*
X10219944Y-11450888D01*
X10219944Y-11450888D02*
X10210420Y-11412793D01*
X10210420Y-11412793D02*
X10210420Y-11365174D01*
X10210420Y-11365174D02*
X10219944Y-11327079D01*
X10219944Y-11327079D02*
X10229467Y-11308031D01*
X10229467Y-11308031D02*
X10238991Y-11298508D01*
X10238991Y-11298508D02*
X10258039Y-11288984D01*
X10410420Y-11488984D02*
X10410420Y-11355650D01*
X10410420Y-11374698D02*
X10419944Y-11365174D01*
X10419944Y-11365174D02*
X10438991Y-11355650D01*
X10438991Y-11355650D02*
X10467563Y-11355650D01*
X10467563Y-11355650D02*
X10486610Y-11365174D01*
X10486610Y-11365174D02*
X10496134Y-11384222D01*
X10496134Y-11384222D02*
X10496134Y-11488984D01*
X10496134Y-11384222D02*
X10505658Y-11365174D01*
X10505658Y-11365174D02*
X10524705Y-11355650D01*
X10524705Y-11355650D02*
X10553277Y-11355650D01*
X10553277Y-11355650D02*
X10572325Y-11365174D01*
X10572325Y-11365174D02*
X10581848Y-11384222D01*
X10581848Y-11384222D02*
X10581848Y-11488984D01*
X10677086Y-11488984D02*
X10677086Y-11355650D01*
X10677086Y-11374698D02*
X10686610Y-11365174D01*
X10686610Y-11365174D02*
X10705658Y-11355650D01*
X10705658Y-11355650D02*
X10734229Y-11355650D01*
X10734229Y-11355650D02*
X10753277Y-11365174D01*
X10753277Y-11365174D02*
X10762801Y-11384222D01*
X10762801Y-11384222D02*
X10762801Y-11488984D01*
X10762801Y-11384222D02*
X10772325Y-11365174D01*
X10772325Y-11365174D02*
X10791372Y-11355650D01*
X10791372Y-11355650D02*
X10819944Y-11355650D01*
X10819944Y-11355650D02*
X10838991Y-11365174D01*
X10838991Y-11365174D02*
X10848515Y-11384222D01*
X10848515Y-11384222D02*
X10848515Y-11488984D01*
X11238991Y-11279460D02*
X11067563Y-11536603D01*
X11496134Y-11288984D02*
X11515182Y-11288984D01*
X11515182Y-11288984D02*
X11534229Y-11298508D01*
X11534229Y-11298508D02*
X11543753Y-11308031D01*
X11543753Y-11308031D02*
X11553277Y-11327079D01*
X11553277Y-11327079D02*
X11562801Y-11365174D01*
X11562801Y-11365174D02*
X11562801Y-11412793D01*
X11562801Y-11412793D02*
X11553277Y-11450888D01*
X11553277Y-11450888D02*
X11543753Y-11469936D01*
X11543753Y-11469936D02*
X11534229Y-11479460D01*
X11534229Y-11479460D02*
X11515182Y-11488984D01*
X11515182Y-11488984D02*
X11496134Y-11488984D01*
X11496134Y-11488984D02*
X11477086Y-11479460D01*
X11477086Y-11479460D02*
X11467563Y-11469936D01*
X11467563Y-11469936D02*
X11458039Y-11450888D01*
X11458039Y-11450888D02*
X11448515Y-11412793D01*
X11448515Y-11412793D02*
X11448515Y-11365174D01*
X11448515Y-11365174D02*
X11458039Y-11327079D01*
X11458039Y-11327079D02*
X11467563Y-11308031D01*
X11467563Y-11308031D02*
X11477086Y-11298508D01*
X11477086Y-11298508D02*
X11496134Y-11288984D01*
X11648515Y-11469936D02*
X11658039Y-11479460D01*
X11658039Y-11479460D02*
X11648515Y-11488984D01*
X11648515Y-11488984D02*
X11638991Y-11479460D01*
X11638991Y-11479460D02*
X11648515Y-11469936D01*
X11648515Y-11469936D02*
X11648515Y-11488984D01*
X11848515Y-11488984D02*
X11734229Y-11488984D01*
X11791372Y-11488984D02*
X11791372Y-11288984D01*
X11791372Y-11288984D02*
X11772325Y-11317555D01*
X11772325Y-11317555D02*
X11753277Y-11336603D01*
X11753277Y-11336603D02*
X11734229Y-11346127D01*
X11924706Y-11308031D02*
X11934229Y-11298508D01*
X11934229Y-11298508D02*
X11953277Y-11288984D01*
X11953277Y-11288984D02*
X12000896Y-11288984D01*
X12000896Y-11288984D02*
X12019944Y-11298508D01*
X12019944Y-11298508D02*
X12029467Y-11308031D01*
X12029467Y-11308031D02*
X12038991Y-11327079D01*
X12038991Y-11327079D02*
X12038991Y-11346127D01*
X12038991Y-11346127D02*
X12029467Y-11374698D01*
X12029467Y-11374698D02*
X11915182Y-11488984D01*
X11915182Y-11488984D02*
X12038991Y-11488984D01*
X12210420Y-11288984D02*
X12172325Y-11288984D01*
X12172325Y-11288984D02*
X12153277Y-11298508D01*
X12153277Y-11298508D02*
X12143753Y-11308031D01*
X12143753Y-11308031D02*
X12124706Y-11336603D01*
X12124706Y-11336603D02*
X12115182Y-11374698D01*
X12115182Y-11374698D02*
X12115182Y-11450888D01*
X12115182Y-11450888D02*
X12124706Y-11469936D01*
X12124706Y-11469936D02*
X12134229Y-11479460D01*
X12134229Y-11479460D02*
X12153277Y-11488984D01*
X12153277Y-11488984D02*
X12191372Y-11488984D01*
X12191372Y-11488984D02*
X12210420Y-11479460D01*
X12210420Y-11479460D02*
X12219944Y-11469936D01*
X12219944Y-11469936D02*
X12229467Y-11450888D01*
X12229467Y-11450888D02*
X12229467Y-11403269D01*
X12229467Y-11403269D02*
X12219944Y-11384222D01*
X12219944Y-11384222D02*
X12210420Y-11374698D01*
X12210420Y-11374698D02*
X12191372Y-11365174D01*
X12191372Y-11365174D02*
X12153277Y-11365174D01*
X12153277Y-11365174D02*
X12134229Y-11374698D01*
X12134229Y-11374698D02*
X12124706Y-11384222D01*
X12124706Y-11384222D02*
X12115182Y-11403269D01*
X12353277Y-11288984D02*
X12372325Y-11288984D01*
X12372325Y-11288984D02*
X12391372Y-11298508D01*
X12391372Y-11298508D02*
X12400896Y-11308031D01*
X12400896Y-11308031D02*
X12410420Y-11327079D01*
X12410420Y-11327079D02*
X12419944Y-11365174D01*
X12419944Y-11365174D02*
X12419944Y-11412793D01*
X12419944Y-11412793D02*
X12410420Y-11450888D01*
X12410420Y-11450888D02*
X12400896Y-11469936D01*
X12400896Y-11469936D02*
X12391372Y-11479460D01*
X12391372Y-11479460D02*
X12372325Y-11488984D01*
X12372325Y-11488984D02*
X12353277Y-11488984D01*
X12353277Y-11488984D02*
X12334229Y-11479460D01*
X12334229Y-11479460D02*
X12324706Y-11469936D01*
X12324706Y-11469936D02*
X12315182Y-11450888D01*
X12315182Y-11450888D02*
X12305658Y-11412793D01*
X12305658Y-11412793D02*
X12305658Y-11365174D01*
X12305658Y-11365174D02*
X12315182Y-11327079D01*
X12315182Y-11327079D02*
X12324706Y-11308031D01*
X12324706Y-11308031D02*
X12334229Y-11298508D01*
X12334229Y-11298508D02*
X12353277Y-11288984D01*
X12496134Y-11288984D02*
X12496134Y-11327079D01*
X12572325Y-11288984D02*
X12572325Y-11327079D01*
X12867563Y-11565174D02*
X12858039Y-11555650D01*
X12858039Y-11555650D02*
X12838991Y-11527079D01*
X12838991Y-11527079D02*
X12829468Y-11508031D01*
X12829468Y-11508031D02*
X12819944Y-11479460D01*
X12819944Y-11479460D02*
X12810420Y-11431841D01*
X12810420Y-11431841D02*
X12810420Y-11393746D01*
X12810420Y-11393746D02*
X12819944Y-11346127D01*
X12819944Y-11346127D02*
X12829468Y-11317555D01*
X12829468Y-11317555D02*
X12838991Y-11298508D01*
X12838991Y-11298508D02*
X12858039Y-11269936D01*
X12858039Y-11269936D02*
X12867563Y-11260412D01*
X13029468Y-11288984D02*
X12991372Y-11288984D01*
X12991372Y-11288984D02*
X12972325Y-11298508D01*
X12972325Y-11298508D02*
X12962801Y-11308031D01*
X12962801Y-11308031D02*
X12943753Y-11336603D01*
X12943753Y-11336603D02*
X12934229Y-11374698D01*
X12934229Y-11374698D02*
X12934229Y-11450888D01*
X12934229Y-11450888D02*
X12943753Y-11469936D01*
X12943753Y-11469936D02*
X12953277Y-11479460D01*
X12953277Y-11479460D02*
X12972325Y-11488984D01*
X12972325Y-11488984D02*
X13010420Y-11488984D01*
X13010420Y-11488984D02*
X13029468Y-11479460D01*
X13029468Y-11479460D02*
X13038991Y-11469936D01*
X13038991Y-11469936D02*
X13048515Y-11450888D01*
X13048515Y-11450888D02*
X13048515Y-11403269D01*
X13048515Y-11403269D02*
X13038991Y-11384222D01*
X13038991Y-11384222D02*
X13029468Y-11374698D01*
X13029468Y-11374698D02*
X13010420Y-11365174D01*
X13010420Y-11365174D02*
X12972325Y-11365174D01*
X12972325Y-11365174D02*
X12953277Y-11374698D01*
X12953277Y-11374698D02*
X12943753Y-11384222D01*
X12943753Y-11384222D02*
X12934229Y-11403269D01*
X13286610Y-11488984D02*
X13286610Y-11288984D01*
X13372325Y-11488984D02*
X13372325Y-11384222D01*
X13372325Y-11384222D02*
X13362801Y-11365174D01*
X13362801Y-11365174D02*
X13343753Y-11355650D01*
X13343753Y-11355650D02*
X13315182Y-11355650D01*
X13315182Y-11355650D02*
X13296134Y-11365174D01*
X13296134Y-11365174D02*
X13286610Y-11374698D01*
X13496134Y-11488984D02*
X13477087Y-11479460D01*
X13477087Y-11479460D02*
X13467563Y-11469936D01*
X13467563Y-11469936D02*
X13458039Y-11450888D01*
X13458039Y-11450888D02*
X13458039Y-11393746D01*
X13458039Y-11393746D02*
X13467563Y-11374698D01*
X13467563Y-11374698D02*
X13477087Y-11365174D01*
X13477087Y-11365174D02*
X13496134Y-11355650D01*
X13496134Y-11355650D02*
X13524706Y-11355650D01*
X13524706Y-11355650D02*
X13543753Y-11365174D01*
X13543753Y-11365174D02*
X13553277Y-11374698D01*
X13553277Y-11374698D02*
X13562801Y-11393746D01*
X13562801Y-11393746D02*
X13562801Y-11450888D01*
X13562801Y-11450888D02*
X13553277Y-11469936D01*
X13553277Y-11469936D02*
X13543753Y-11479460D01*
X13543753Y-11479460D02*
X13524706Y-11488984D01*
X13524706Y-11488984D02*
X13496134Y-11488984D01*
X13677087Y-11488984D02*
X13658039Y-11479460D01*
X13658039Y-11479460D02*
X13648515Y-11460412D01*
X13648515Y-11460412D02*
X13648515Y-11288984D01*
X13829468Y-11479460D02*
X13810420Y-11488984D01*
X13810420Y-11488984D02*
X13772325Y-11488984D01*
X13772325Y-11488984D02*
X13753277Y-11479460D01*
X13753277Y-11479460D02*
X13743753Y-11460412D01*
X13743753Y-11460412D02*
X13743753Y-11384222D01*
X13743753Y-11384222D02*
X13753277Y-11365174D01*
X13753277Y-11365174D02*
X13772325Y-11355650D01*
X13772325Y-11355650D02*
X13810420Y-11355650D01*
X13810420Y-11355650D02*
X13829468Y-11365174D01*
X13829468Y-11365174D02*
X13838991Y-11384222D01*
X13838991Y-11384222D02*
X13838991Y-11403269D01*
X13838991Y-11403269D02*
X13743753Y-11422317D01*
X13915182Y-11479460D02*
X13934230Y-11488984D01*
X13934230Y-11488984D02*
X13972325Y-11488984D01*
X13972325Y-11488984D02*
X13991372Y-11479460D01*
X13991372Y-11479460D02*
X14000896Y-11460412D01*
X14000896Y-11460412D02*
X14000896Y-11450888D01*
X14000896Y-11450888D02*
X13991372Y-11431841D01*
X13991372Y-11431841D02*
X13972325Y-11422317D01*
X13972325Y-11422317D02*
X13943753Y-11422317D01*
X13943753Y-11422317D02*
X13924706Y-11412793D01*
X13924706Y-11412793D02*
X13915182Y-11393746D01*
X13915182Y-11393746D02*
X13915182Y-11384222D01*
X13915182Y-11384222D02*
X13924706Y-11365174D01*
X13924706Y-11365174D02*
X13943753Y-11355650D01*
X13943753Y-11355650D02*
X13972325Y-11355650D01*
X13972325Y-11355650D02*
X13991372Y-11365174D01*
X14067563Y-11565174D02*
X14077087Y-11555650D01*
X14077087Y-11555650D02*
X14096134Y-11527079D01*
X14096134Y-11527079D02*
X14105658Y-11508031D01*
X14105658Y-11508031D02*
X14115182Y-11479460D01*
X14115182Y-11479460D02*
X14124706Y-11431841D01*
X14124706Y-11431841D02*
X14124706Y-11393746D01*
X14124706Y-11393746D02*
X14115182Y-11346127D01*
X14115182Y-11346127D02*
X14105658Y-11317555D01*
X14105658Y-11317555D02*
X14096134Y-11298508D01*
X14096134Y-11298508D02*
X14077087Y-11269936D01*
X14077087Y-11269936D02*
X14067563Y-11260412D01*
X14429468Y-11565174D02*
X14419944Y-11555650D01*
X14419944Y-11555650D02*
X14400896Y-11527079D01*
X14400896Y-11527079D02*
X14391372Y-11508031D01*
X14391372Y-11508031D02*
X14381849Y-11479460D01*
X14381849Y-11479460D02*
X14372325Y-11431841D01*
X14372325Y-11431841D02*
X14372325Y-11393746D01*
X14372325Y-11393746D02*
X14381849Y-11346127D01*
X14381849Y-11346127D02*
X14391372Y-11317555D01*
X14391372Y-11317555D02*
X14400896Y-11298508D01*
X14400896Y-11298508D02*
X14419944Y-11269936D01*
X14419944Y-11269936D02*
X14429468Y-11260412D01*
X14505658Y-11355650D02*
X14505658Y-11488984D01*
X14505658Y-11374698D02*
X14515182Y-11365174D01*
X14515182Y-11365174D02*
X14534230Y-11355650D01*
X14534230Y-11355650D02*
X14562801Y-11355650D01*
X14562801Y-11355650D02*
X14581849Y-11365174D01*
X14581849Y-11365174D02*
X14591372Y-11384222D01*
X14591372Y-11384222D02*
X14591372Y-11488984D01*
X14715182Y-11488984D02*
X14696134Y-11479460D01*
X14696134Y-11479460D02*
X14686611Y-11469936D01*
X14686611Y-11469936D02*
X14677087Y-11450888D01*
X14677087Y-11450888D02*
X14677087Y-11393746D01*
X14677087Y-11393746D02*
X14686611Y-11374698D01*
X14686611Y-11374698D02*
X14696134Y-11365174D01*
X14696134Y-11365174D02*
X14715182Y-11355650D01*
X14715182Y-11355650D02*
X14743753Y-11355650D01*
X14743753Y-11355650D02*
X14762801Y-11365174D01*
X14762801Y-11365174D02*
X14772325Y-11374698D01*
X14772325Y-11374698D02*
X14781849Y-11393746D01*
X14781849Y-11393746D02*
X14781849Y-11450888D01*
X14781849Y-11450888D02*
X14772325Y-11469936D01*
X14772325Y-11469936D02*
X14762801Y-11479460D01*
X14762801Y-11479460D02*
X14743753Y-11488984D01*
X14743753Y-11488984D02*
X14715182Y-11488984D01*
X14838992Y-11355650D02*
X14915182Y-11355650D01*
X14867563Y-11288984D02*
X14867563Y-11460412D01*
X14867563Y-11460412D02*
X14877087Y-11479460D01*
X14877087Y-11479460D02*
X14896134Y-11488984D01*
X14896134Y-11488984D02*
X14915182Y-11488984D01*
X15134230Y-11355650D02*
X15134230Y-11555650D01*
X15134230Y-11365174D02*
X15153277Y-11355650D01*
X15153277Y-11355650D02*
X15191373Y-11355650D01*
X15191373Y-11355650D02*
X15210420Y-11365174D01*
X15210420Y-11365174D02*
X15219944Y-11374698D01*
X15219944Y-11374698D02*
X15229468Y-11393746D01*
X15229468Y-11393746D02*
X15229468Y-11450888D01*
X15229468Y-11450888D02*
X15219944Y-11469936D01*
X15219944Y-11469936D02*
X15210420Y-11479460D01*
X15210420Y-11479460D02*
X15191373Y-11488984D01*
X15191373Y-11488984D02*
X15153277Y-11488984D01*
X15153277Y-11488984D02*
X15134230Y-11479460D01*
X15343753Y-11488984D02*
X15324706Y-11479460D01*
X15324706Y-11479460D02*
X15315182Y-11460412D01*
X15315182Y-11460412D02*
X15315182Y-11288984D01*
X15505658Y-11488984D02*
X15505658Y-11384222D01*
X15505658Y-11384222D02*
X15496134Y-11365174D01*
X15496134Y-11365174D02*
X15477087Y-11355650D01*
X15477087Y-11355650D02*
X15438992Y-11355650D01*
X15438992Y-11355650D02*
X15419944Y-11365174D01*
X15505658Y-11479460D02*
X15486611Y-11488984D01*
X15486611Y-11488984D02*
X15438992Y-11488984D01*
X15438992Y-11488984D02*
X15419944Y-11479460D01*
X15419944Y-11479460D02*
X15410420Y-11460412D01*
X15410420Y-11460412D02*
X15410420Y-11441365D01*
X15410420Y-11441365D02*
X15419944Y-11422317D01*
X15419944Y-11422317D02*
X15438992Y-11412793D01*
X15438992Y-11412793D02*
X15486611Y-11412793D01*
X15486611Y-11412793D02*
X15505658Y-11403269D01*
X15572325Y-11355650D02*
X15648515Y-11355650D01*
X15600896Y-11288984D02*
X15600896Y-11460412D01*
X15600896Y-11460412D02*
X15610420Y-11479460D01*
X15610420Y-11479460D02*
X15629468Y-11488984D01*
X15629468Y-11488984D02*
X15648515Y-11488984D01*
X15791373Y-11479460D02*
X15772325Y-11488984D01*
X15772325Y-11488984D02*
X15734230Y-11488984D01*
X15734230Y-11488984D02*
X15715182Y-11479460D01*
X15715182Y-11479460D02*
X15705658Y-11460412D01*
X15705658Y-11460412D02*
X15705658Y-11384222D01*
X15705658Y-11384222D02*
X15715182Y-11365174D01*
X15715182Y-11365174D02*
X15734230Y-11355650D01*
X15734230Y-11355650D02*
X15772325Y-11355650D01*
X15772325Y-11355650D02*
X15791373Y-11365174D01*
X15791373Y-11365174D02*
X15800896Y-11384222D01*
X15800896Y-11384222D02*
X15800896Y-11403269D01*
X15800896Y-11403269D02*
X15705658Y-11422317D01*
X15972325Y-11488984D02*
X15972325Y-11288984D01*
X15972325Y-11479460D02*
X15953277Y-11488984D01*
X15953277Y-11488984D02*
X15915182Y-11488984D01*
X15915182Y-11488984D02*
X15896134Y-11479460D01*
X15896134Y-11479460D02*
X15886611Y-11469936D01*
X15886611Y-11469936D02*
X15877087Y-11450888D01*
X15877087Y-11450888D02*
X15877087Y-11393746D01*
X15877087Y-11393746D02*
X15886611Y-11374698D01*
X15886611Y-11374698D02*
X15896134Y-11365174D01*
X15896134Y-11365174D02*
X15915182Y-11355650D01*
X15915182Y-11355650D02*
X15953277Y-11355650D01*
X15953277Y-11355650D02*
X15972325Y-11365174D01*
X16048515Y-11565174D02*
X16058039Y-11555650D01*
X16058039Y-11555650D02*
X16077087Y-11527079D01*
X16077087Y-11527079D02*
X16086611Y-11508031D01*
X16086611Y-11508031D02*
X16096134Y-11479460D01*
X16096134Y-11479460D02*
X16105658Y-11431841D01*
X16105658Y-11431841D02*
X16105658Y-11393746D01*
X16105658Y-11393746D02*
X16096134Y-11346127D01*
X16096134Y-11346127D02*
X16086611Y-11317555D01*
X16086611Y-11317555D02*
X16077087Y-11298508D01*
X16077087Y-11298508D02*
X16058039Y-11269936D01*
X16058039Y-11269936D02*
X16048515Y-11260412D01*
M02*
