G04 #@! TF.GenerationSoftware,KiCad,Pcbnew,8.0.4*
G04 #@! TF.CreationDate,2024-08-12T15:20:44-06:00*
G04 #@! TF.ProjectId,dual_loop_probe_fullground,6475616c-5f6c-46f6-9f70-5f70726f6265,rev?*
G04 #@! TF.SameCoordinates,Original*
G04 #@! TF.FileFunction,Copper,L2,Inr*
G04 #@! TF.FilePolarity,Positive*
%FSLAX46Y46*%
G04 Gerber Fmt 4.6, Leading zero omitted, Abs format (unit mm)*
G04 Created by KiCad (PCBNEW 8.0.4) date 2024-08-12 15:20:44*
%MOMM*%
%LPD*%
G01*
G04 APERTURE LIST*
G04 #@! TA.AperFunction,Conductor*
%ADD10C,0.100000*%
G04 #@! TD*
G04 #@! TA.AperFunction,Conductor*
%ADD11C,1.000000*%
G04 #@! TD*
G04 #@! TA.AperFunction,ComponentPad*
%ADD12R,4.190000X3.000000*%
G04 #@! TD*
G04 #@! TA.AperFunction,ViaPad*
%ADD13C,0.800000*%
G04 #@! TD*
G04 APERTURE END LIST*
D10*
X174000000Y-94500000D02*
X171000000Y-94500000D01*
X171000000Y-93500000D01*
X174000000Y-93500000D01*
X174000000Y-94500000D01*
G04 #@! TA.AperFunction,Conductor*
G36*
X174000000Y-94500000D02*
G01*
X171000000Y-94500000D01*
X171000000Y-93500000D01*
X174000000Y-93500000D01*
X174000000Y-94500000D01*
G37*
G04 #@! TD.AperFunction*
D11*
X172532511Y-93248745D02*
G75*
G02*
X172096755Y-96000000I8467489J-2751255D01*
G01*
D12*
X95500000Y-99325000D03*
X95500000Y-92675000D03*
X95500000Y-82350000D03*
X95500000Y-89000000D03*
D13*
X133000000Y-94000000D03*
X131500000Y-94000000D03*
X95500000Y-94000000D03*
X101500000Y-94000000D03*
X104500000Y-94000000D03*
X122500000Y-94000000D03*
X124000000Y-94000000D03*
X125500000Y-94000000D03*
X127000000Y-94000000D03*
X119500000Y-94000000D03*
X112000000Y-94000000D03*
X110500000Y-94000000D03*
X94000000Y-94000000D03*
X100000000Y-94000000D03*
X118000000Y-94000000D03*
X130000000Y-94000000D03*
X121000000Y-94000000D03*
X109000000Y-94000000D03*
X107500000Y-94000000D03*
X116500000Y-94000000D03*
X98500000Y-94000000D03*
X103000000Y-94000000D03*
X128500000Y-94000000D03*
X106000000Y-94000000D03*
X115000000Y-94000000D03*
X97000000Y-94000000D03*
X113500000Y-94000000D03*
X134500000Y-94000000D03*
X170500000Y-94000000D03*
X169000000Y-94000000D03*
X137500000Y-94000000D03*
X136000000Y-94000000D03*
X140500000Y-94000000D03*
X143500000Y-94000000D03*
X139000000Y-94000000D03*
X142000000Y-94000000D03*
X151000000Y-94000000D03*
X145000000Y-94000000D03*
X145000000Y-94000000D03*
X146500000Y-94000000D03*
X148000000Y-94000000D03*
X149500000Y-94000000D03*
X154000000Y-94000000D03*
X152500000Y-94000000D03*
X155500000Y-94000000D03*
X157000000Y-94000000D03*
X158500000Y-94000000D03*
X160000000Y-94000000D03*
X161500000Y-94000000D03*
X163000000Y-94000000D03*
X164500000Y-94000000D03*
X166000000Y-94000000D03*
X167500000Y-94000000D03*
X174160681Y-97491213D03*
X174635347Y-98913966D03*
X175402207Y-100202942D03*
X176426056Y-101298965D03*
X177659889Y-102151720D03*
X179047062Y-102722056D03*
X180523893Y-102983790D03*
X182022581Y-102924906D03*
X183474324Y-102548108D03*
X184812473Y-101870694D03*
X185975596Y-100923763D03*
X186910295Y-99750788D03*
X187573660Y-98405618D03*
X187935235Y-96950009D03*
X174160681Y-94508787D03*
X176189817Y-90750000D03*
X177393138Y-89793306D03*
X178759561Y-89174905D03*
X180226358Y-88861790D03*
X181726188Y-88868335D03*
X183190197Y-89194238D03*
X184551172Y-89824539D03*
X187935235Y-95500000D03*
X170892607Y-99477156D03*
X171491886Y-100883213D03*
X172285582Y-102189421D03*
X173257467Y-103369069D03*
X174387667Y-104398039D03*
X175653074Y-105255289D03*
X177027812Y-105923292D03*
X178483771Y-106388387D03*
X179991181Y-106641066D03*
X181519219Y-106676161D03*
X183036640Y-106492955D03*
X184512416Y-106095193D03*
X185916373Y-105491010D03*
X187219802Y-104692759D03*
X188396051Y-103716763D03*
X189421069Y-102582978D03*
X190273897Y-101314587D03*
X190937097Y-99937525D03*
X191397107Y-98479952D03*
X191644523Y-96971669D03*
X171000000Y-92250000D03*
X171500000Y-90750000D03*
X175653074Y-86744711D03*
X177027812Y-86076708D03*
X178483771Y-85611613D03*
X179991181Y-85358934D03*
X181519219Y-85323839D03*
X183036640Y-85507045D03*
X184512416Y-85904807D03*
X185916373Y-86508990D03*
X191397107Y-93520048D03*
X191644523Y-95028331D03*
X101500000Y-87500000D03*
X110500000Y-98000000D03*
X188451529Y-77783237D03*
X107500000Y-83500000D03*
X121000000Y-87500000D03*
X167500000Y-83500000D03*
X183474325Y-79001883D03*
X94000000Y-98000000D03*
X134500000Y-98000000D03*
X125500000Y-83500000D03*
X125500000Y-87500000D03*
X166000000Y-83500000D03*
X124000000Y-83500000D03*
X109000000Y-83500000D03*
X173000000Y-94000000D03*
X160000000Y-98000000D03*
X97007460Y-89003531D03*
X100000000Y-98000000D03*
X180523894Y-78566201D03*
X130000000Y-98000000D03*
X121000000Y-98000000D03*
X158500000Y-83500000D03*
X121000000Y-83500000D03*
X140500000Y-87500000D03*
X140500000Y-83500000D03*
X175628427Y-94707958D03*
X113500000Y-87500000D03*
X187935236Y-86000000D03*
X174000001Y-85549991D03*
X185888882Y-95045517D03*
X95500000Y-83500000D03*
X191694380Y-86426685D03*
X151000000Y-98000000D03*
X164500000Y-87500000D03*
X163000000Y-98000000D03*
X119500000Y-87500000D03*
X191452585Y-83020048D03*
X172000000Y-87500000D03*
X112000000Y-83500000D03*
X181480182Y-96186973D03*
X136000000Y-87500000D03*
X170500000Y-98000000D03*
X134500000Y-83500000D03*
X185971851Y-76008990D03*
X97000000Y-90250000D03*
X174635348Y-82636025D03*
X161500000Y-83500000D03*
X167500000Y-98000000D03*
X140500000Y-98000000D03*
X149500000Y-87500000D03*
X97000000Y-98000000D03*
X122500000Y-83500000D03*
X146500000Y-83500000D03*
X163000000Y-87500000D03*
X130000000Y-83500000D03*
X160000000Y-83500000D03*
X106000000Y-98000000D03*
X145000000Y-83500000D03*
X190329375Y-80185413D03*
X95500000Y-98000000D03*
X95500000Y-100500000D03*
X187573661Y-83144373D03*
X113500000Y-83500000D03*
X109000000Y-98000000D03*
X169000000Y-83500000D03*
X180191817Y-92566997D03*
X160000000Y-87500000D03*
X174443145Y-77101961D03*
X94000000Y-100500000D03*
X130000000Y-87500000D03*
X166000000Y-87500000D03*
X179952568Y-96136716D03*
X103000000Y-83500000D03*
X115000000Y-87500000D03*
X137500000Y-98000000D03*
X128500000Y-98000000D03*
X119500000Y-83500000D03*
X155500000Y-87500000D03*
X100000000Y-83500000D03*
X94000000Y-87750000D03*
X142000000Y-83500000D03*
X118000000Y-87500000D03*
X107500000Y-87500000D03*
X137500000Y-87500000D03*
X151000000Y-87500000D03*
X98500000Y-83500000D03*
X149500000Y-98000000D03*
X142000000Y-98000000D03*
X94000000Y-90250000D03*
X145000000Y-83500000D03*
X152500000Y-87500000D03*
X98500000Y-87500000D03*
X118000000Y-83500000D03*
X109000000Y-87500000D03*
X183158444Y-92260427D03*
X145000000Y-98000000D03*
X157000000Y-83500000D03*
X155500000Y-98000000D03*
X182022582Y-78625085D03*
X170500000Y-87500000D03*
X145000000Y-87500000D03*
X164500000Y-83500000D03*
X152500000Y-98000000D03*
X174000000Y-96000000D03*
X136000000Y-98000000D03*
X116500000Y-87500000D03*
X134500000Y-87500000D03*
X187275280Y-76807241D03*
X175708552Y-76244711D03*
X158500000Y-98000000D03*
X191446964Y-87934968D03*
X173000000Y-87500000D03*
X189476547Y-78917022D03*
X124000000Y-87500000D03*
X131500000Y-87500000D03*
X186910296Y-81799203D03*
X97000000Y-87750000D03*
X177083290Y-75576708D03*
X146500000Y-98000000D03*
X163000000Y-83500000D03*
X115000000Y-98000000D03*
X136000000Y-83500000D03*
X97000000Y-83500919D03*
X180046659Y-74858934D03*
X110500000Y-87500000D03*
X161500000Y-87500000D03*
X137500000Y-83500000D03*
X125500000Y-98000000D03*
X127000000Y-98000000D03*
X161500000Y-98000000D03*
X97007460Y-99253531D03*
X166000000Y-98000000D03*
X184524867Y-91642026D03*
X175402208Y-81347049D03*
X139000000Y-83500000D03*
X101500000Y-83500000D03*
X106000000Y-87500000D03*
X116500000Y-98000000D03*
X128500000Y-83500000D03*
X94000000Y-91500000D03*
X127000000Y-87500000D03*
X178539249Y-75111613D03*
X100000000Y-87500000D03*
X167500000Y-87500000D03*
X182999347Y-96018834D03*
X98500000Y-98000000D03*
X178447741Y-95869090D03*
X148000000Y-87500000D03*
X112000000Y-98000000D03*
X177366833Y-91610793D03*
X183092118Y-75007045D03*
X157000000Y-87500000D03*
X94000000Y-83500000D03*
X169000000Y-87500000D03*
X154000000Y-87500000D03*
X179047063Y-78827935D03*
X176426057Y-80251026D03*
X171000000Y-89250000D03*
X128500000Y-87500000D03*
X107500000Y-98000000D03*
X94000000Y-81000000D03*
X148000000Y-98000000D03*
X149500000Y-83500000D03*
X110500000Y-83500000D03*
X122500000Y-98000000D03*
X181574697Y-74823839D03*
X158500000Y-87500000D03*
X133000000Y-83500000D03*
X190992575Y-81562475D03*
X131500000Y-83500000D03*
X95500000Y-81000000D03*
X170948085Y-82022844D03*
X97000000Y-91500000D03*
X112000000Y-87500000D03*
X104500000Y-83500000D03*
X178727808Y-92241094D03*
X154000000Y-98000000D03*
X187935236Y-84599982D03*
X172000000Y-94000000D03*
X185975597Y-80626228D03*
X127000000Y-83500000D03*
X155500000Y-83500000D03*
X146500000Y-87500000D03*
X133000000Y-87500000D03*
X118000000Y-98000000D03*
X143500000Y-87500000D03*
X177659890Y-79398271D03*
X142000000Y-87500000D03*
X148000000Y-83500000D03*
X176996468Y-95389569D03*
X104500000Y-98000000D03*
X154000000Y-83500000D03*
X172341060Y-79310579D03*
X184478999Y-95635737D03*
X181691647Y-92573542D03*
X95500000Y-90250000D03*
X131500000Y-98000000D03*
X191700001Y-84528331D03*
X106000000Y-83500000D03*
X174160682Y-84058778D03*
X164500000Y-98000000D03*
X97000000Y-100500000D03*
X122500000Y-87500000D03*
X145000000Y-87500000D03*
X103000000Y-87500000D03*
X104500000Y-87500000D03*
X101500000Y-98000000D03*
X173312945Y-78130931D03*
X124000000Y-98000000D03*
X174160682Y-87041204D03*
X113500000Y-98000000D03*
X184812474Y-79679297D03*
X170555478Y-83500000D03*
X139000000Y-98000000D03*
X119500000Y-98000000D03*
X152500000Y-83500000D03*
X184567894Y-75404807D03*
X95500000Y-87750000D03*
X151000000Y-83500000D03*
X143500000Y-83500000D03*
X95500000Y-91500000D03*
X103000000Y-98000000D03*
X143500000Y-98000000D03*
X133000000Y-98000000D03*
X139000000Y-87500000D03*
X97007194Y-92739008D03*
X116500000Y-83500000D03*
X169000000Y-98000000D03*
X115000000Y-83500000D03*
X97007194Y-82239008D03*
X145000000Y-98000000D03*
X157000000Y-98000000D03*
X97000000Y-81000000D03*
X171547364Y-80616787D03*
X97000000Y-96000000D03*
X94000000Y-96000000D03*
X95500000Y-96000632D03*
X97000000Y-85500919D03*
X95500000Y-85500919D03*
X94000000Y-85500919D03*
D11*
X97652302Y-96000000D02*
X94000000Y-96000000D01*
X98000112Y-96000000D02*
X172000000Y-96000000D01*
G04 #@! TA.AperFunction,Conductor*
G36*
X192078221Y-92729783D02*
G01*
X192112201Y-92736407D01*
X192209103Y-92769637D01*
X192239998Y-92785260D01*
X192324194Y-92843608D01*
X192349671Y-92867051D01*
X192395746Y-92922975D01*
X192423625Y-92988269D01*
X192424500Y-93003095D01*
X192424500Y-95998248D01*
X192424450Y-96001782D01*
X192406626Y-96637038D01*
X192406230Y-96644094D01*
X192352962Y-97275607D01*
X192352171Y-97282631D01*
X192263576Y-97910179D01*
X192262392Y-97917146D01*
X192138753Y-98538725D01*
X192137180Y-98545616D01*
X191978884Y-99159276D01*
X191976928Y-99166067D01*
X191784464Y-99769916D01*
X191782129Y-99776587D01*
X191556127Y-100368651D01*
X191553423Y-100375181D01*
X191294560Y-100953682D01*
X191291493Y-100960050D01*
X191000607Y-101523114D01*
X190997188Y-101529299D01*
X190675202Y-102075146D01*
X190671442Y-102081131D01*
X190319337Y-102608093D01*
X190315247Y-102613857D01*
X189934166Y-103120225D01*
X189929760Y-103125751D01*
X189520866Y-103609979D01*
X189516156Y-103615249D01*
X189080769Y-104075772D01*
X189075772Y-104080769D01*
X188615249Y-104516156D01*
X188609979Y-104520866D01*
X188125751Y-104929760D01*
X188120225Y-104934166D01*
X187613857Y-105315247D01*
X187608093Y-105319337D01*
X187081131Y-105671442D01*
X187075146Y-105675202D01*
X186529299Y-105997188D01*
X186523114Y-106000607D01*
X185960050Y-106291493D01*
X185953682Y-106294560D01*
X185375181Y-106553423D01*
X185368651Y-106556127D01*
X184776587Y-106782129D01*
X184769916Y-106784464D01*
X184166067Y-106976928D01*
X184159276Y-106978884D01*
X183545616Y-107137180D01*
X183538725Y-107138753D01*
X182917146Y-107262392D01*
X182910179Y-107263576D01*
X182282631Y-107352171D01*
X182275607Y-107352962D01*
X181644094Y-107406230D01*
X181637038Y-107406626D01*
X181148740Y-107420326D01*
X181091250Y-107408238D01*
X181076242Y-107401126D01*
X181076241Y-107401126D01*
X181076239Y-107401125D01*
X181044026Y-107401325D01*
X181042169Y-107401322D01*
X181041468Y-107401316D01*
X181039739Y-107401290D01*
X180394673Y-107386916D01*
X180387498Y-107386551D01*
X179745750Y-107335549D01*
X179738606Y-107334776D01*
X179100794Y-107247274D01*
X179093707Y-107246095D01*
X178461927Y-107122384D01*
X178454918Y-107120803D01*
X177831195Y-106961275D01*
X177824288Y-106959296D01*
X177210713Y-106764489D01*
X177203930Y-106762121D01*
X176602431Y-106532648D01*
X176595794Y-106529897D01*
X176008343Y-106266509D01*
X176001874Y-106263383D01*
X175430417Y-105966952D01*
X175424156Y-105963475D01*
X174870467Y-105634919D01*
X174864405Y-105631083D01*
X174330396Y-105271537D01*
X174324553Y-105267356D01*
X173811897Y-104877949D01*
X173806302Y-104873442D01*
X173316671Y-104455444D01*
X173311342Y-104450625D01*
X172846347Y-104005413D01*
X172841301Y-104000299D01*
X172402421Y-103529287D01*
X172397674Y-103523892D01*
X171986359Y-103028634D01*
X171981929Y-103022979D01*
X171926882Y-102948430D01*
X171599516Y-102505089D01*
X171595421Y-102499199D01*
X171594166Y-102497280D01*
X171243129Y-101960322D01*
X171239376Y-101954206D01*
X171216973Y-101915258D01*
X170975468Y-101495388D01*
X170918392Y-101396159D01*
X170914989Y-101389832D01*
X170899312Y-101358579D01*
X170626319Y-100814365D01*
X170623309Y-100807909D01*
X170367907Y-100216920D01*
X170365263Y-100210291D01*
X170155376Y-99636886D01*
X170150976Y-99621209D01*
X170150498Y-99620055D01*
X170150498Y-99620053D01*
X170142758Y-99601372D01*
X170139670Y-99593109D01*
X170131864Y-99569738D01*
X170131862Y-99569736D01*
X170130750Y-99567908D01*
X170107825Y-99544986D01*
X170106563Y-99543706D01*
X170106512Y-99543654D01*
X170104588Y-99541674D01*
X170083983Y-99520474D01*
X170083981Y-99520473D01*
X170057138Y-99510649D01*
X170052252Y-99508744D01*
X170028440Y-99498883D01*
X170022704Y-99497273D01*
X170019462Y-99496861D01*
X169998757Y-99498896D01*
X169986447Y-99499500D01*
X169041535Y-99499568D01*
X169013301Y-99499568D01*
X169013297Y-99499569D01*
X169002773Y-99503928D01*
X169000000Y-99500000D01*
X168740922Y-99500000D01*
X168740916Y-99500000D01*
X100207104Y-99500000D01*
X100000000Y-99500000D01*
X99853558Y-99646442D01*
X99853537Y-99646461D01*
X98152287Y-101347712D01*
X98139896Y-101358579D01*
X98056055Y-101422913D01*
X98027569Y-101439360D01*
X97937627Y-101476615D01*
X97905856Y-101485128D01*
X97827917Y-101495388D01*
X97801080Y-101498922D01*
X97784635Y-101500000D01*
X93508258Y-101500000D01*
X93491812Y-101498922D01*
X93387037Y-101485128D01*
X93355265Y-101476615D01*
X93265326Y-101439361D01*
X93236840Y-101422914D01*
X93159605Y-101363649D01*
X93136351Y-101340396D01*
X93101536Y-101295024D01*
X93075937Y-101228807D01*
X93075500Y-101218323D01*
X93075500Y-97781677D01*
X93095502Y-97713556D01*
X93101531Y-97704981D01*
X93136351Y-97659603D01*
X93159603Y-97636351D01*
X93236843Y-97577082D01*
X93265321Y-97560640D01*
X93355270Y-97523382D01*
X93387033Y-97514872D01*
X93468592Y-97504134D01*
X93491813Y-97501078D01*
X93508258Y-97500000D01*
X97999993Y-97500000D01*
X98000000Y-97500000D01*
X98500000Y-97500000D01*
X98500000Y-97077301D01*
X98514233Y-97045127D01*
X98573498Y-97006035D01*
X98610433Y-97000500D01*
X171032850Y-97000500D01*
X171100971Y-97020502D01*
X171147464Y-97074158D01*
X171157855Y-97110705D01*
X171179575Y-97282631D01*
X171213357Y-97550046D01*
X171213359Y-97550059D01*
X171330000Y-98161511D01*
X171330001Y-98161519D01*
X171484798Y-98764413D01*
X171484805Y-98764437D01*
X171677158Y-99356433D01*
X171906305Y-99935193D01*
X171906313Y-99935211D01*
X172111835Y-100371967D01*
X172171342Y-100498426D01*
X172345050Y-100814400D01*
X172471224Y-101043909D01*
X172471229Y-101043917D01*
X172804759Y-101569475D01*
X172804767Y-101569487D01*
X173170634Y-102073060D01*
X173170639Y-102073067D01*
X173567409Y-102552680D01*
X173567418Y-102552690D01*
X173567424Y-102552697D01*
X173694841Y-102688383D01*
X173993537Y-103006462D01*
X174133836Y-103138211D01*
X174447303Y-103432576D01*
X174447310Y-103432582D01*
X174447319Y-103432590D01*
X174569665Y-103533803D01*
X174884516Y-103794271D01*
X174926932Y-103829360D01*
X174926939Y-103829365D01*
X175430511Y-104195232D01*
X175430523Y-104195240D01*
X175943627Y-104520866D01*
X175956095Y-104528778D01*
X176501574Y-104828657D01*
X177064807Y-105093695D01*
X177643570Y-105322843D01*
X177982287Y-105432899D01*
X178235562Y-105515194D01*
X178235586Y-105515201D01*
X178838479Y-105669998D01*
X178838485Y-105669998D01*
X178838498Y-105670002D01*
X179449948Y-105786642D01*
X179885818Y-105841705D01*
X180067505Y-105864658D01*
X180067509Y-105864658D01*
X180067515Y-105864659D01*
X180688750Y-105903744D01*
X180688752Y-105903745D01*
X180688762Y-105903745D01*
X181311247Y-105903745D01*
X181311247Y-105903744D01*
X181932485Y-105864659D01*
X181932491Y-105864658D01*
X181932494Y-105864658D01*
X181932495Y-105864658D01*
X182091706Y-105844544D01*
X182550052Y-105786642D01*
X183161501Y-105670002D01*
X183161514Y-105669998D01*
X183161519Y-105669998D01*
X183764412Y-105515201D01*
X183764410Y-105515201D01*
X183764420Y-105515199D01*
X183764430Y-105515195D01*
X183764436Y-105515194D01*
X183860552Y-105483963D01*
X184356430Y-105322843D01*
X184935193Y-105093695D01*
X185498425Y-104828658D01*
X186043905Y-104528778D01*
X186043913Y-104528772D01*
X186043920Y-104528769D01*
X186372552Y-104320212D01*
X186569478Y-104195239D01*
X187073071Y-103829357D01*
X187552697Y-103432576D01*
X188006462Y-103006463D01*
X188432576Y-102552698D01*
X188829357Y-102073072D01*
X189195238Y-101569479D01*
X189528777Y-101043905D01*
X189828657Y-100498426D01*
X190093694Y-99935194D01*
X190322843Y-99356431D01*
X190515199Y-98764421D01*
X190563493Y-98576327D01*
X190669998Y-98161520D01*
X190669999Y-98161512D01*
X190670002Y-98161502D01*
X190786642Y-97550052D01*
X190848984Y-97056564D01*
X190864658Y-96932495D01*
X190864658Y-96932494D01*
X190865255Y-96923017D01*
X190903744Y-96311248D01*
X190903745Y-96311248D01*
X190903745Y-95688752D01*
X190903744Y-95688751D01*
X190899262Y-95617508D01*
X190864659Y-95067516D01*
X190864096Y-95063063D01*
X190823912Y-94744973D01*
X190786642Y-94449949D01*
X190670002Y-93838499D01*
X190669998Y-93838486D01*
X190669998Y-93838480D01*
X190545378Y-93353120D01*
X190547810Y-93282165D01*
X190588218Y-93223789D01*
X190623172Y-93203810D01*
X191816303Y-92756386D01*
X191832911Y-92751432D01*
X191941443Y-92727054D01*
X191975936Y-92724181D01*
X192078221Y-92729783D01*
G37*
G04 #@! TD.AperFunction*
G04 #@! TA.AperFunction,Conductor*
G36*
X98603553Y-91103553D02*
G01*
X98603567Y-91103568D01*
X99853537Y-92353538D01*
X99853547Y-92353547D01*
X100000000Y-92500000D01*
X168750000Y-92500000D01*
X169000000Y-92500000D01*
X170500000Y-90500000D01*
X172760668Y-90500000D01*
X172471230Y-90956081D01*
X172471225Y-90956089D01*
X172171339Y-91501580D01*
X171906314Y-92064787D01*
X171906306Y-92064805D01*
X171677153Y-92643579D01*
X171580979Y-92939573D01*
X171552331Y-93027742D01*
X171552328Y-93027754D01*
X171528410Y-93211613D01*
X171528410Y-93211617D01*
X171538684Y-93396743D01*
X171538685Y-93396750D01*
X171538686Y-93396752D01*
X171582803Y-93576846D01*
X171582804Y-93576848D01*
X171659264Y-93745770D01*
X171765452Y-93897755D01*
X171765457Y-93897762D01*
X171765459Y-93897764D01*
X171897777Y-94027659D01*
X172051709Y-94131029D01*
X172222015Y-94204353D01*
X172312146Y-94224675D01*
X172402892Y-94245136D01*
X172402891Y-94245136D01*
X172421392Y-94245819D01*
X172588188Y-94251987D01*
X172771585Y-94224675D01*
X172946841Y-94164128D01*
X173107987Y-94072409D01*
X173249536Y-93952641D01*
X173366668Y-93808903D01*
X173455394Y-93646089D01*
X173483388Y-93559932D01*
X173484783Y-93555884D01*
X173672413Y-93040702D01*
X173675706Y-93032561D01*
X173898110Y-92533862D01*
X173901977Y-92525949D01*
X174158834Y-92044065D01*
X174163234Y-92036468D01*
X174453256Y-91573815D01*
X174458191Y-91566525D01*
X174779952Y-91125376D01*
X174785392Y-91118442D01*
X175137340Y-90700926D01*
X175143216Y-90694432D01*
X175331983Y-90500000D01*
X183000000Y-90500000D01*
X184000000Y-90500000D01*
X185000000Y-90500000D01*
X185603553Y-91103553D01*
X185603567Y-91103568D01*
X186847712Y-92347712D01*
X186858579Y-92360103D01*
X186922913Y-92443944D01*
X186939360Y-92472430D01*
X186976615Y-92562372D01*
X186985128Y-92594143D01*
X186998922Y-92698917D01*
X187000000Y-92715364D01*
X187000000Y-94374658D01*
X186999154Y-94389232D01*
X186988320Y-94482269D01*
X186981625Y-94510631D01*
X186949705Y-94598698D01*
X186943944Y-94612111D01*
X186552760Y-95394480D01*
X186500000Y-95500000D01*
X186525447Y-95500000D01*
X186516288Y-95521062D01*
X186482297Y-95549577D01*
X186447840Y-95569354D01*
X186441741Y-95572635D01*
X185884877Y-95852748D01*
X185878607Y-95855688D01*
X185307246Y-96104759D01*
X185300823Y-96107351D01*
X184716607Y-96324665D01*
X184710053Y-96326901D01*
X184114773Y-96511791D01*
X184108105Y-96513662D01*
X183503602Y-96665556D01*
X183496841Y-96667059D01*
X182884880Y-96785514D01*
X182878047Y-96786643D01*
X182260493Y-96871299D01*
X182253609Y-96872050D01*
X181632354Y-96922645D01*
X181625438Y-96923017D01*
X181002348Y-96939401D01*
X180995423Y-96939393D01*
X180372355Y-96921518D01*
X180365440Y-96921129D01*
X179744310Y-96869047D01*
X179737427Y-96868279D01*
X179120090Y-96782148D01*
X179113260Y-96781003D01*
X178501581Y-96661083D01*
X178494824Y-96659564D01*
X177890680Y-96506222D01*
X177884017Y-96504335D01*
X177289188Y-96318024D01*
X177282638Y-96315773D01*
X176698958Y-96097066D01*
X176692542Y-96094459D01*
X176121747Y-95844008D01*
X176115484Y-95841052D01*
X176024768Y-95795148D01*
X175559314Y-95559618D01*
X175553223Y-95556322D01*
X175043261Y-95262015D01*
X175026842Y-95249966D01*
X175013439Y-95243843D01*
X174999838Y-95236594D01*
X174998049Y-95235495D01*
X174994093Y-95233064D01*
X174989451Y-95230212D01*
X174988818Y-95230060D01*
X174984794Y-95228670D01*
X174980540Y-95228591D01*
X174979896Y-95228517D01*
X174967935Y-95230938D01*
X174952690Y-95233064D01*
X174940539Y-95234007D01*
X174939949Y-95234251D01*
X174935863Y-95235495D01*
X174932378Y-95237930D01*
X174931806Y-95238252D01*
X174923553Y-95247242D01*
X174912467Y-95257925D01*
X174903190Y-95265830D01*
X174902851Y-95266383D01*
X174900285Y-95269781D01*
X174898896Y-95273802D01*
X174898625Y-95274393D01*
X174897234Y-95286508D01*
X174894544Y-95301673D01*
X174891685Y-95313520D01*
X174891733Y-95314128D01*
X174891285Y-95338259D01*
X174868324Y-95537945D01*
X174850969Y-96019135D01*
X174871317Y-96500194D01*
X174929244Y-96978195D01*
X174929248Y-96978216D01*
X175024393Y-97450199D01*
X175024395Y-97450207D01*
X175156179Y-97913294D01*
X175156188Y-97913322D01*
X175323805Y-98364689D01*
X175323816Y-98364715D01*
X175526226Y-98801559D01*
X175526230Y-98801567D01*
X175526235Y-98801577D01*
X175762224Y-99221280D01*
X176030329Y-99621231D01*
X176328907Y-99998978D01*
X176468419Y-100149580D01*
X176656122Y-100352204D01*
X176656131Y-100352213D01*
X177009965Y-100678735D01*
X177009972Y-100678741D01*
X177009979Y-100678747D01*
X177388298Y-100976600D01*
X177788762Y-101243938D01*
X177788765Y-101243940D01*
X177788770Y-101243943D01*
X177974152Y-101347712D01*
X178208916Y-101479123D01*
X178404926Y-101569487D01*
X178578482Y-101649500D01*
X178646185Y-101680712D01*
X179097885Y-101847469D01*
X179561249Y-101978372D01*
X180033435Y-102072618D01*
X180511547Y-102129629D01*
X180992654Y-102149056D01*
X180992658Y-102149055D01*
X180992662Y-102149056D01*
X181473790Y-102130780D01*
X181473794Y-102130779D01*
X181473807Y-102130779D01*
X181881390Y-102083164D01*
X181952047Y-102074911D01*
X181952050Y-102074910D01*
X181952054Y-102074910D01*
X181952059Y-102074908D01*
X181952071Y-102074907D01*
X182097555Y-102046230D01*
X182424463Y-101981793D01*
X182888138Y-101851997D01*
X183340236Y-101686320D01*
X183777985Y-101485776D01*
X184198700Y-101251596D01*
X184198700Y-101251595D01*
X184198707Y-101251592D01*
X184198713Y-101251588D01*
X184599787Y-100985225D01*
X184599787Y-100985224D01*
X184599802Y-100985215D01*
X184826144Y-100807888D01*
X184978810Y-100688283D01*
X184978815Y-100688278D01*
X184978831Y-100688266D01*
X185333464Y-100362572D01*
X185661525Y-100010127D01*
X185961005Y-99633094D01*
X186230065Y-99233785D01*
X186467056Y-98814647D01*
X186473159Y-98801559D01*
X186578173Y-98576327D01*
X186670526Y-98378250D01*
X186839226Y-97927272D01*
X186972123Y-97464476D01*
X187068401Y-96992700D01*
X187127469Y-96514838D01*
X187145681Y-96107351D01*
X187148967Y-96033830D01*
X187148967Y-96033819D01*
X187132762Y-95552592D01*
X187120794Y-95446280D01*
X187133050Y-95376350D01*
X187156902Y-95343096D01*
X188418672Y-94081327D01*
X188428644Y-94072366D01*
X188468508Y-94040212D01*
X188534086Y-94013015D01*
X188603960Y-94025589D01*
X188655944Y-94073944D01*
X188669237Y-94105376D01*
X188695008Y-94200615D01*
X188697017Y-94209230D01*
X188802297Y-94744973D01*
X188803697Y-94753708D01*
X188871127Y-95295519D01*
X188871911Y-95304331D01*
X188901158Y-95849538D01*
X188901322Y-95858383D01*
X188892241Y-96404318D01*
X188891783Y-96413152D01*
X188844421Y-96957077D01*
X188843345Y-96965858D01*
X188757930Y-97505141D01*
X188756240Y-97513824D01*
X188633201Y-98045770D01*
X188630906Y-98054314D01*
X188470842Y-98576327D01*
X188467953Y-98584688D01*
X188271661Y-99094169D01*
X188268193Y-99102307D01*
X188036631Y-99596771D01*
X188032600Y-99604646D01*
X187766921Y-100081631D01*
X187762348Y-100089204D01*
X187463849Y-100546381D01*
X187458756Y-100553614D01*
X187128904Y-100988735D01*
X187123315Y-100995592D01*
X186763774Y-101406462D01*
X186757719Y-101412911D01*
X186370206Y-101797570D01*
X186363712Y-101803578D01*
X185950185Y-102160081D01*
X185943286Y-102165619D01*
X185505746Y-102492241D01*
X185498476Y-102497280D01*
X185039120Y-102792381D01*
X185031514Y-102796899D01*
X184552553Y-103059059D01*
X184544648Y-103063031D01*
X184048501Y-103290924D01*
X184040338Y-103294332D01*
X183529409Y-103486857D01*
X183521026Y-103489684D01*
X182997856Y-103645882D01*
X182989296Y-103648114D01*
X182456436Y-103767222D01*
X182447740Y-103768847D01*
X181907854Y-103850270D01*
X181899066Y-103851281D01*
X181354809Y-103894621D01*
X181345971Y-103895014D01*
X180799986Y-103900059D01*
X180791143Y-103899830D01*
X180246163Y-103866554D01*
X180237357Y-103865705D01*
X179696050Y-103794271D01*
X179687326Y-103792806D01*
X179152378Y-103683569D01*
X179143778Y-103681496D01*
X178617812Y-103534992D01*
X178609379Y-103532321D01*
X178094969Y-103349267D01*
X178086744Y-103346010D01*
X177586471Y-103127325D01*
X177578501Y-103123503D01*
X177272492Y-102963285D01*
X177094779Y-102870239D01*
X177087091Y-102865863D01*
X176622349Y-102579294D01*
X176614986Y-102574389D01*
X176371619Y-102399626D01*
X176171487Y-102255910D01*
X176164503Y-102250513D01*
X175744438Y-101901696D01*
X175737836Y-101895810D01*
X175692035Y-101851997D01*
X175512977Y-101680709D01*
X175343295Y-101518390D01*
X175337131Y-101512065D01*
X174970017Y-101107863D01*
X174964320Y-101101129D01*
X174945672Y-101077452D01*
X174725186Y-100797499D01*
X174626492Y-100672187D01*
X174621266Y-100665049D01*
X174314381Y-100213481D01*
X174309669Y-100205995D01*
X174035205Y-99733976D01*
X174031036Y-99726191D01*
X173790369Y-99236074D01*
X173786756Y-99228012D01*
X173784018Y-99221280D01*
X173581081Y-98722240D01*
X173578039Y-98713937D01*
X173541871Y-98603319D01*
X173408349Y-98194949D01*
X173405908Y-98186487D01*
X173273056Y-97656888D01*
X173271206Y-97648237D01*
X173236078Y-97450207D01*
X173175841Y-97110626D01*
X173174607Y-97101903D01*
X173117196Y-96558889D01*
X173116577Y-96550071D01*
X173115339Y-96514838D01*
X173097333Y-96002220D01*
X173097255Y-95997797D01*
X173097255Y-95907293D01*
X173097255Y-95907290D01*
X173063184Y-95725027D01*
X172996203Y-95552128D01*
X172987421Y-95537945D01*
X172898591Y-95394480D01*
X172838095Y-95328119D01*
X172773675Y-95257454D01*
X172773673Y-95257453D01*
X172773671Y-95257450D01*
X172625708Y-95145715D01*
X172625707Y-95145714D01*
X172459726Y-95063065D01*
X172459721Y-95063063D01*
X172281385Y-95012322D01*
X172219841Y-95006619D01*
X172096755Y-94995214D01*
X172096754Y-94995214D01*
X172096753Y-94995214D01*
X172056295Y-94998963D01*
X172044671Y-94999500D01*
X98610433Y-94999500D01*
X98542312Y-94979498D01*
X98500000Y-94930667D01*
X98500000Y-94500000D01*
X98000002Y-94500000D01*
X93508258Y-94500000D01*
X93491812Y-94498922D01*
X93387037Y-94485128D01*
X93355265Y-94476615D01*
X93265326Y-94439361D01*
X93236840Y-94422914D01*
X93159605Y-94363649D01*
X93136351Y-94340396D01*
X93101536Y-94295024D01*
X93075937Y-94228807D01*
X93075500Y-94218323D01*
X93075500Y-90500000D01*
X98000000Y-90500000D01*
X98603553Y-91103553D01*
G37*
G04 #@! TD.AperFunction*
G04 #@! TA.AperFunction,Conductor*
G36*
X180962649Y-74076348D02*
G01*
X180977151Y-74076025D01*
X180977152Y-74076026D01*
X180996800Y-74075589D01*
X180999428Y-74075531D01*
X181002226Y-74075500D01*
X181003868Y-74075500D01*
X181004733Y-74075502D01*
X181648190Y-74079923D01*
X181655462Y-74080185D01*
X182297005Y-74121974D01*
X182304254Y-74122658D01*
X182878346Y-74193762D01*
X182942244Y-74201676D01*
X182949488Y-74202788D01*
X182958615Y-74204462D01*
X183581817Y-74318769D01*
X183588939Y-74320291D01*
X184189447Y-74466979D01*
X184213423Y-74472836D01*
X184220490Y-74474781D01*
X184835073Y-74663385D01*
X184842014Y-74665739D01*
X185444548Y-74889743D01*
X185451319Y-74892486D01*
X186039875Y-75151175D01*
X186046444Y-75154293D01*
X186618961Y-75446765D01*
X186625356Y-75450270D01*
X187179880Y-75775525D01*
X187186067Y-75779400D01*
X187720733Y-76136342D01*
X187726686Y-76140571D01*
X188239686Y-76527991D01*
X188245403Y-76532576D01*
X188735008Y-76949169D01*
X188740438Y-76954068D01*
X188851446Y-77060249D01*
X189204989Y-77398421D01*
X189210136Y-77403639D01*
X189648062Y-77874249D01*
X189652897Y-77879758D01*
X190062715Y-78375031D01*
X190067221Y-78380811D01*
X190447547Y-78899073D01*
X190451710Y-78905106D01*
X190801265Y-79444617D01*
X190805069Y-79450881D01*
X191122648Y-80009776D01*
X191126083Y-80016251D01*
X191410650Y-80592711D01*
X191413701Y-80599375D01*
X191465120Y-80720866D01*
X191650683Y-81159307D01*
X191664247Y-81191354D01*
X191666903Y-81198175D01*
X191720598Y-81348912D01*
X191882624Y-81803776D01*
X191884881Y-81810749D01*
X192065013Y-82427833D01*
X192066861Y-82434925D01*
X192210809Y-83061438D01*
X192212242Y-83068626D01*
X192319518Y-83702450D01*
X192320531Y-83709709D01*
X192390774Y-84348721D01*
X192391362Y-84356027D01*
X192412115Y-84760156D01*
X192423546Y-84982758D01*
X192424334Y-84998093D01*
X192424500Y-85004555D01*
X192424500Y-88496903D01*
X192404498Y-88565024D01*
X192395747Y-88577022D01*
X192349672Y-88632947D01*
X192324194Y-88656391D01*
X192239998Y-88714739D01*
X192209101Y-88730363D01*
X192112201Y-88763592D01*
X192078220Y-88770216D01*
X191975943Y-88775818D01*
X191941439Y-88772944D01*
X191832920Y-88748569D01*
X191816291Y-88743609D01*
X191780968Y-88730363D01*
X190510030Y-88253761D01*
X188607711Y-87540391D01*
X188595404Y-87535012D01*
X188562950Y-87518713D01*
X188518328Y-87496303D01*
X188495782Y-87481785D01*
X188428639Y-87427629D01*
X188418658Y-87418658D01*
X187067810Y-86067810D01*
X187033784Y-86005498D01*
X187031687Y-85964701D01*
X187034473Y-85939805D01*
X187034475Y-85939791D01*
X187050237Y-85461156D01*
X187039536Y-85226519D01*
X187028420Y-84982768D01*
X187028419Y-84982765D01*
X187028419Y-84982758D01*
X186969157Y-84507544D01*
X186872815Y-84038441D01*
X186739986Y-83578336D01*
X186571488Y-83130063D01*
X186368359Y-82696382D01*
X186131850Y-82279965D01*
X185944435Y-82003072D01*
X185863422Y-81883381D01*
X185863421Y-81883380D01*
X185863417Y-81883374D01*
X185604557Y-81558983D01*
X185564720Y-81509061D01*
X185564716Y-81509057D01*
X185564713Y-81509053D01*
X185237577Y-81159307D01*
X184915038Y-80864624D01*
X184884024Y-80836288D01*
X184826561Y-80791524D01*
X184506232Y-80541988D01*
X184106526Y-80278217D01*
X183993938Y-80216003D01*
X183687381Y-80046606D01*
X183687377Y-80046604D01*
X183687368Y-80046599D01*
X183251339Y-79848562D01*
X183251338Y-79848561D01*
X183251330Y-79848558D01*
X182801139Y-79685329D01*
X182801105Y-79685318D01*
X182339506Y-79557894D01*
X182339490Y-79557891D01*
X181922441Y-79477316D01*
X181869295Y-79467048D01*
X181393420Y-79413354D01*
X180914800Y-79397139D01*
X180914797Y-79397139D01*
X180914794Y-79397139D01*
X180766772Y-79403749D01*
X180436382Y-79418504D01*
X180436374Y-79418504D01*
X180436373Y-79418505D01*
X180436365Y-79418505D01*
X179961126Y-79477314D01*
X179961116Y-79477316D01*
X179491918Y-79573214D01*
X179031694Y-79705606D01*
X179031683Y-79705609D01*
X178583269Y-79873676D01*
X178583232Y-79873691D01*
X178149393Y-80076394D01*
X177732746Y-80312512D01*
X177335903Y-80580569D01*
X177335891Y-80580577D01*
X176961318Y-80878902D01*
X176961286Y-80878930D01*
X176611236Y-81205729D01*
X176611230Y-81205736D01*
X176287885Y-81558974D01*
X176287877Y-81558983D01*
X175993236Y-81936476D01*
X175993225Y-81936490D01*
X175729081Y-82335938D01*
X175729073Y-82335951D01*
X175497062Y-82754885D01*
X175497056Y-82754898D01*
X175298619Y-83190712D01*
X175298612Y-83190728D01*
X175134960Y-83640756D01*
X175134946Y-83640799D01*
X175007087Y-84102265D01*
X175007082Y-84102290D01*
X174915791Y-84572417D01*
X174861649Y-85048226D01*
X174844981Y-85526836D01*
X174865892Y-86005262D01*
X174865895Y-86005292D01*
X174890233Y-86203467D01*
X174890804Y-86227593D01*
X174893869Y-86240156D01*
X174896519Y-86254655D01*
X174898095Y-86267486D01*
X174899432Y-86271292D01*
X174899883Y-86272127D01*
X174902328Y-86275331D01*
X174912188Y-86283690D01*
X174922856Y-86293865D01*
X174931672Y-86303319D01*
X174934979Y-86305603D01*
X174935845Y-86306019D01*
X174939696Y-86307171D01*
X174939906Y-86307186D01*
X174939907Y-86307187D01*
X174952588Y-86308137D01*
X174967200Y-86310098D01*
X174979692Y-86312527D01*
X174979693Y-86312526D01*
X174979908Y-86312568D01*
X174983891Y-86312474D01*
X174984888Y-86312292D01*
X174988641Y-86310973D01*
X174988829Y-86310856D01*
X174988833Y-86310857D01*
X174999672Y-86304159D01*
X175012632Y-86297165D01*
X175024157Y-86291792D01*
X175024157Y-86291791D01*
X175026974Y-86290478D01*
X175042750Y-86278773D01*
X175547190Y-85985883D01*
X175553207Y-85982606D01*
X176103956Y-85701983D01*
X176110145Y-85699040D01*
X176675421Y-85449016D01*
X176681767Y-85446415D01*
X177259872Y-85227739D01*
X177266380Y-85225479D01*
X177855609Y-85038797D01*
X177862209Y-85036904D01*
X178460751Y-84882787D01*
X178467471Y-84881252D01*
X179073557Y-84760155D01*
X179080348Y-84758990D01*
X179692187Y-84671272D01*
X179699000Y-84670486D01*
X180314730Y-84616416D01*
X180321575Y-84616004D01*
X180939323Y-84595745D01*
X180946218Y-84595709D01*
X181564150Y-84609321D01*
X181570986Y-84609659D01*
X182187254Y-84657103D01*
X182194099Y-84657818D01*
X182806851Y-84738951D01*
X182813629Y-84740038D01*
X183421007Y-84854614D01*
X183427699Y-84856067D01*
X184027914Y-85003749D01*
X184034512Y-85005566D01*
X184625722Y-85185902D01*
X184632252Y-85188092D01*
X185212664Y-85400531D01*
X185219047Y-85403068D01*
X185786970Y-85646994D01*
X185793219Y-85649884D01*
X186346903Y-85924541D01*
X186352981Y-85927767D01*
X186475823Y-85997337D01*
X186522999Y-86045998D01*
X186653585Y-86307171D01*
X186943944Y-86887888D01*
X186949705Y-86901301D01*
X186981625Y-86989368D01*
X186988320Y-87017730D01*
X186999154Y-87110767D01*
X187000000Y-87125341D01*
X187000000Y-87746655D01*
X186979998Y-87814776D01*
X186926342Y-87861269D01*
X186856068Y-87871373D01*
X186799939Y-87848591D01*
X186625725Y-87722018D01*
X186625713Y-87722010D01*
X186094850Y-87385114D01*
X186094843Y-87385110D01*
X186094835Y-87385105D01*
X185543848Y-87082198D01*
X185543842Y-87082195D01*
X185543840Y-87082194D01*
X184974946Y-86814492D01*
X184974928Y-86814484D01*
X184390322Y-86583022D01*
X184390316Y-86583020D01*
X184390311Y-86583018D01*
X183792351Y-86388728D01*
X183792327Y-86388721D01*
X183183346Y-86232361D01*
X183183338Y-86232360D01*
X183183322Y-86232357D01*
X182920118Y-86182148D01*
X182565711Y-86114541D01*
X182565698Y-86114539D01*
X181941910Y-86035735D01*
X181314392Y-85996255D01*
X181314381Y-85996255D01*
X180685621Y-85996255D01*
X180685610Y-85996255D01*
X180058091Y-86035735D01*
X180058090Y-86035735D01*
X179434303Y-86114538D01*
X179434290Y-86114540D01*
X178816663Y-86232359D01*
X178816655Y-86232360D01*
X178207675Y-86388721D01*
X178207650Y-86388728D01*
X177609690Y-86583017D01*
X177025072Y-86814484D01*
X177025054Y-86814492D01*
X176456160Y-87082193D01*
X175905161Y-87385107D01*
X175905153Y-87385112D01*
X175374288Y-87722009D01*
X175374276Y-87722017D01*
X174865619Y-88091579D01*
X174865612Y-88091584D01*
X174381135Y-88492377D01*
X173922791Y-88922790D01*
X173492383Y-89381130D01*
X173492361Y-89381154D01*
X173091585Y-89865610D01*
X173091580Y-89865617D01*
X172722018Y-90374274D01*
X172722010Y-90374286D01*
X172385115Y-90905148D01*
X172385107Y-90905161D01*
X172385106Y-90905164D01*
X172333294Y-90999411D01*
X172332970Y-91000000D01*
X170500000Y-91000000D01*
X170030715Y-90374286D01*
X169150001Y-89200001D01*
X169150000Y-89200000D01*
X169000000Y-89000000D01*
X168750002Y-89000000D01*
X100207104Y-89000000D01*
X100000000Y-89000000D01*
X99853558Y-89146442D01*
X99853537Y-89146461D01*
X98603567Y-90396431D01*
X98603553Y-90396447D01*
X98000000Y-91000000D01*
X93075500Y-91000000D01*
X93075500Y-87281677D01*
X93095502Y-87213556D01*
X93101531Y-87204981D01*
X93136351Y-87159603D01*
X93159603Y-87136351D01*
X93236843Y-87077082D01*
X93265321Y-87060640D01*
X93355270Y-87023382D01*
X93387033Y-87014872D01*
X93468592Y-87004134D01*
X93491813Y-87001078D01*
X93508258Y-87000000D01*
X97999993Y-87000000D01*
X98000000Y-87000000D01*
X98500000Y-87000000D01*
X98500000Y-84000000D01*
X98000002Y-84000000D01*
X93508258Y-84000000D01*
X93491812Y-83998922D01*
X93387037Y-83985128D01*
X93355265Y-83976615D01*
X93265326Y-83939361D01*
X93236840Y-83922914D01*
X93159605Y-83863649D01*
X93136351Y-83840396D01*
X93101536Y-83795024D01*
X93075937Y-83728807D01*
X93075500Y-83718323D01*
X93075500Y-80281677D01*
X93095502Y-80213556D01*
X93101531Y-80204981D01*
X93136351Y-80159603D01*
X93159603Y-80136351D01*
X93236843Y-80077082D01*
X93265321Y-80060640D01*
X93355270Y-80023382D01*
X93387033Y-80014872D01*
X93468592Y-80004134D01*
X93491813Y-80001078D01*
X93508258Y-80000000D01*
X97784635Y-80000000D01*
X97801080Y-80001078D01*
X97829094Y-80004765D01*
X97905857Y-80014871D01*
X97937624Y-80023383D01*
X98027572Y-80060641D01*
X98056051Y-80077084D01*
X98133287Y-80136349D01*
X98139896Y-80141420D01*
X98152287Y-80152287D01*
X99853537Y-81853538D01*
X99853547Y-81853547D01*
X100000000Y-82000000D01*
X168740915Y-82000000D01*
X168740922Y-82000000D01*
X169000000Y-82000000D01*
X169003602Y-81994895D01*
X169019093Y-81994904D01*
X169019094Y-81994903D01*
X169031287Y-81994910D01*
X169031859Y-81994852D01*
X169923757Y-81994118D01*
X169937344Y-81996300D01*
X169937446Y-81995236D01*
X169951575Y-81996577D01*
X169951576Y-81996578D01*
X170019970Y-82003073D01*
X170084408Y-81979249D01*
X170132128Y-81929826D01*
X170142348Y-81898891D01*
X170143482Y-81895617D01*
X170148957Y-81880503D01*
X170150956Y-81875343D01*
X170151774Y-81873367D01*
X170151773Y-81873364D01*
X170153750Y-81868583D01*
X170155321Y-81862937D01*
X170363220Y-81289099D01*
X170365850Y-81282442D01*
X170398702Y-81205729D01*
X170619060Y-80691167D01*
X170622051Y-80684700D01*
X170908540Y-80108843D01*
X170911922Y-80102506D01*
X170943834Y-80046599D01*
X171230781Y-79543893D01*
X171234480Y-79537822D01*
X171584683Y-78998257D01*
X171588733Y-78992392D01*
X171969092Y-78473706D01*
X171973478Y-78468068D01*
X172382811Y-77971872D01*
X172387491Y-77966519D01*
X172824433Y-77494472D01*
X172829410Y-77489393D01*
X173292575Y-77042990D01*
X173297826Y-77038211D01*
X173785645Y-76618966D01*
X173791179Y-76614477D01*
X174302115Y-76223710D01*
X174307899Y-76219543D01*
X174840252Y-75858551D01*
X174846271Y-75854714D01*
X175398351Y-75524643D01*
X175404598Y-75521146D01*
X175974563Y-75223096D01*
X175980983Y-75219968D01*
X176567037Y-74954877D01*
X176573648Y-74952111D01*
X177173821Y-74720871D01*
X177180572Y-74718489D01*
X177792995Y-74521818D01*
X177799817Y-74519840D01*
X178422452Y-74358398D01*
X178429437Y-74356798D01*
X179060216Y-74231118D01*
X179067277Y-74229918D01*
X179704232Y-74140390D01*
X179711355Y-74139596D01*
X180352328Y-74086524D01*
X180359479Y-74086136D01*
X180773563Y-74075541D01*
X180776786Y-74075500D01*
X180956880Y-74075500D01*
X180962649Y-74076348D01*
G37*
G04 #@! TD.AperFunction*
G04 #@! TA.AperFunction,Conductor*
G36*
X181179535Y-88199477D02*
G01*
X181724033Y-88231078D01*
X181732900Y-88231908D01*
X182273823Y-88302094D01*
X182282598Y-88303551D01*
X182817127Y-88411956D01*
X182825815Y-88414041D01*
X183351323Y-88560130D01*
X183359800Y-88562814D01*
X183830144Y-88730363D01*
X183873597Y-88745842D01*
X183881917Y-88749144D01*
X184381398Y-88968177D01*
X184389436Y-88972048D01*
X184872105Y-89225993D01*
X184879853Y-89230427D01*
X185343295Y-89518013D01*
X185350728Y-89523000D01*
X185511160Y-89639103D01*
X185792557Y-89842746D01*
X185799612Y-89848244D01*
X185885742Y-89920425D01*
X185925105Y-89979509D01*
X185926276Y-90050496D01*
X185893907Y-90106091D01*
X185603555Y-90396444D01*
X185603553Y-90396447D01*
X185000000Y-91000000D01*
X184000000Y-91000000D01*
X183000000Y-91000000D01*
X175015781Y-91000000D01*
X175237748Y-90739122D01*
X175243763Y-90732540D01*
X175625833Y-90343258D01*
X175632297Y-90337125D01*
X176041011Y-89975980D01*
X176047880Y-89970331D01*
X176481239Y-89639089D01*
X176488501Y-89633936D01*
X176944273Y-89334306D01*
X176951879Y-89329685D01*
X177427769Y-89063174D01*
X177435676Y-89059108D01*
X177929292Y-88827055D01*
X177937488Y-88823552D01*
X178446321Y-88627137D01*
X178454737Y-88624227D01*
X178976228Y-88464436D01*
X178984856Y-88462124D01*
X179516370Y-88339763D01*
X179525124Y-88338073D01*
X180063993Y-88253758D01*
X180072835Y-88252694D01*
X180616330Y-88206851D01*
X180625249Y-88206417D01*
X181170619Y-88199277D01*
X181179535Y-88199477D01*
G37*
G04 #@! TD.AperFunction*
M02*
