G04 #@! TF.GenerationSoftware,KiCad,Pcbnew,8.0.0*
G04 #@! TF.CreationDate,2024-04-11T14:56:03-06:00*
G04 #@! TF.ProjectId,dual_loop_probe_groundfix,6475616c-5f6c-46f6-9f70-5f70726f6265,rev?*
G04 #@! TF.SameCoordinates,Original*
G04 #@! TF.FileFunction,Copper,L3,Inr*
G04 #@! TF.FilePolarity,Positive*
%FSLAX46Y46*%
G04 Gerber Fmt 4.6, Leading zero omitted, Abs format (unit mm)*
G04 Created by KiCad (PCBNEW 8.0.0) date 2024-04-11 14:56:03*
%MOMM*%
%LPD*%
G01*
G04 APERTURE LIST*
G04 #@! TA.AperFunction,Conductor*
%ADD10C,0.100000*%
G04 #@! TD*
G04 #@! TA.AperFunction,Conductor*
%ADD11C,1.000000*%
G04 #@! TD*
G04 #@! TA.AperFunction,ComponentPad*
%ADD12R,4.190000X3.000000*%
G04 #@! TD*
G04 #@! TA.AperFunction,ViaPad*
%ADD13C,0.800000*%
G04 #@! TD*
G04 APERTURE END LIST*
D10*
X174000000Y-88000000D02*
X171000000Y-88000000D01*
X171000000Y-87000000D01*
X174000000Y-87000000D01*
X174000000Y-88000000D01*
G04 #@! TA.AperFunction,Conductor*
G36*
X174000000Y-88000000D02*
G01*
X171000000Y-88000000D01*
X171000000Y-87000000D01*
X174000000Y-87000000D01*
X174000000Y-88000000D01*
G37*
G04 #@! TD.AperFunction*
D11*
X172096699Y-85500917D02*
G75*
G02*
X172532462Y-88252170I8903201J17D01*
G01*
D12*
X95500000Y-99325000D03*
X95500000Y-92675000D03*
X95500000Y-82350000D03*
X95500000Y-89000000D03*
D13*
X133000000Y-94000000D03*
X131500000Y-94000000D03*
X95500000Y-94000000D03*
X101500000Y-94000000D03*
X104500000Y-94000000D03*
X122500000Y-94000000D03*
X124000000Y-94000000D03*
X125500000Y-94000000D03*
X127000000Y-94000000D03*
X119500000Y-94000000D03*
X112000000Y-94000000D03*
X110500000Y-94000000D03*
X94000000Y-94000000D03*
X100000000Y-94000000D03*
X118000000Y-94000000D03*
X130000000Y-94000000D03*
X121000000Y-94000000D03*
X109000000Y-94000000D03*
X107500000Y-94000000D03*
X116500000Y-94000000D03*
X98500000Y-94000000D03*
X103000000Y-94000000D03*
X128500000Y-94000000D03*
X106000000Y-94000000D03*
X115000000Y-94000000D03*
X97000000Y-94000000D03*
X113500000Y-94000000D03*
X134500000Y-94000000D03*
X170500000Y-94000000D03*
X169000000Y-94000000D03*
X137500000Y-94000000D03*
X136000000Y-94000000D03*
X140500000Y-94000000D03*
X143500000Y-94000000D03*
X139000000Y-94000000D03*
X142000000Y-94000000D03*
X151000000Y-94000000D03*
X145000000Y-94000000D03*
X145000000Y-94000000D03*
X146500000Y-94000000D03*
X148000000Y-94000000D03*
X149500000Y-94000000D03*
X154000000Y-94000000D03*
X152500000Y-94000000D03*
X155500000Y-94000000D03*
X157000000Y-94000000D03*
X158500000Y-94000000D03*
X160000000Y-94000000D03*
X161500000Y-94000000D03*
X163000000Y-94000000D03*
X164500000Y-94000000D03*
X166000000Y-94000000D03*
X167500000Y-94000000D03*
X174160681Y-97491213D03*
X174635347Y-98913966D03*
X175402207Y-100202942D03*
X176426056Y-101298965D03*
X177659889Y-102151720D03*
X179047062Y-102722056D03*
X180523893Y-102983790D03*
X182022581Y-102924906D03*
X183474324Y-102548108D03*
X184812473Y-101870694D03*
X185975596Y-100923763D03*
X186910295Y-99750788D03*
X187573660Y-98405618D03*
X187935235Y-96950009D03*
X174160681Y-94508787D03*
X176189817Y-90750000D03*
X177393138Y-89793306D03*
X178759561Y-89174905D03*
X180226358Y-88861790D03*
X181726188Y-88868335D03*
X183190197Y-89194238D03*
X184551172Y-89824539D03*
X187935235Y-95500000D03*
X170892607Y-99477156D03*
X171491886Y-100883213D03*
X172285582Y-102189421D03*
X173257467Y-103369069D03*
X174387667Y-104398039D03*
X175653074Y-105255289D03*
X177027812Y-105923292D03*
X178483771Y-106388387D03*
X179991181Y-106641066D03*
X181519219Y-106676161D03*
X183036640Y-106492955D03*
X184512416Y-106095193D03*
X185916373Y-105491010D03*
X187219802Y-104692759D03*
X188396051Y-103716763D03*
X189421069Y-102582978D03*
X190273897Y-101314587D03*
X190937097Y-99937525D03*
X191397107Y-98479952D03*
X191644523Y-96971669D03*
X171000000Y-92250000D03*
X171500000Y-90750000D03*
X175653074Y-86744711D03*
X177027812Y-86076708D03*
X178483771Y-85611613D03*
X179991181Y-85358934D03*
X181519219Y-85323839D03*
X183036640Y-85507045D03*
X184512416Y-85904807D03*
X185916373Y-86508990D03*
X191397107Y-93520048D03*
X191644523Y-95028331D03*
X101500000Y-87500000D03*
X110500000Y-98000000D03*
X188451529Y-77783237D03*
X107500000Y-83500000D03*
X121000000Y-87500000D03*
X167500000Y-83500000D03*
X183474325Y-79001883D03*
X94000000Y-98000000D03*
X134500000Y-98000000D03*
X125500000Y-83500000D03*
X125500000Y-87500000D03*
X166000000Y-83500000D03*
X124000000Y-83500000D03*
X109000000Y-83500000D03*
X173000000Y-94000000D03*
X160000000Y-98000000D03*
X97007460Y-89003531D03*
X100000000Y-98000000D03*
X180523894Y-78566201D03*
X130000000Y-98000000D03*
X121000000Y-98000000D03*
X158500000Y-83500000D03*
X121000000Y-83500000D03*
X140500000Y-87500000D03*
X140500000Y-83500000D03*
X175628427Y-94707958D03*
X113500000Y-87500000D03*
X187935236Y-86000000D03*
X174000001Y-85549991D03*
X185888882Y-95045517D03*
X95500000Y-83500000D03*
X191694380Y-86426685D03*
X151000000Y-98000000D03*
X164500000Y-87500000D03*
X163000000Y-98000000D03*
X119500000Y-87500000D03*
X191452585Y-83020048D03*
X172000000Y-87500000D03*
X112000000Y-83500000D03*
X181480182Y-96186973D03*
X136000000Y-87500000D03*
X170500000Y-98000000D03*
X134500000Y-83500000D03*
X185971851Y-76008990D03*
X97000000Y-90250000D03*
X174635348Y-82636025D03*
X161500000Y-83500000D03*
X167500000Y-98000000D03*
X140500000Y-98000000D03*
X149500000Y-87500000D03*
X97000000Y-98000000D03*
X122500000Y-83500000D03*
X146500000Y-83500000D03*
X163000000Y-87500000D03*
X130000000Y-83500000D03*
X160000000Y-83500000D03*
X106000000Y-98000000D03*
X145000000Y-83500000D03*
X190329375Y-80185413D03*
X95500000Y-98000000D03*
X95500000Y-100500000D03*
X187573661Y-83144373D03*
X113500000Y-83500000D03*
X109000000Y-98000000D03*
X169000000Y-83500000D03*
X180191817Y-92566997D03*
X160000000Y-87500000D03*
X174443145Y-77101961D03*
X94000000Y-100500000D03*
X130000000Y-87500000D03*
X166000000Y-87500000D03*
X179952568Y-96136716D03*
X103000000Y-83500000D03*
X115000000Y-87500000D03*
X137500000Y-98000000D03*
X128500000Y-98000000D03*
X119500000Y-83500000D03*
X155500000Y-87500000D03*
X100000000Y-83500000D03*
X94000000Y-87750000D03*
X142000000Y-83500000D03*
X118000000Y-87500000D03*
X107500000Y-87500000D03*
X137500000Y-87500000D03*
X151000000Y-87500000D03*
X98500000Y-83500000D03*
X149500000Y-98000000D03*
X142000000Y-98000000D03*
X94000000Y-90250000D03*
X145000000Y-83500000D03*
X152500000Y-87500000D03*
X98500000Y-87500000D03*
X118000000Y-83500000D03*
X109000000Y-87500000D03*
X183158444Y-92260427D03*
X145000000Y-98000000D03*
X157000000Y-83500000D03*
X155500000Y-98000000D03*
X182022582Y-78625085D03*
X170500000Y-87500000D03*
X145000000Y-87500000D03*
X164500000Y-83500000D03*
X152500000Y-98000000D03*
X174000000Y-96000000D03*
X136000000Y-98000000D03*
X116500000Y-87500000D03*
X134500000Y-87500000D03*
X187275280Y-76807241D03*
X175708552Y-76244711D03*
X158500000Y-98000000D03*
X191446964Y-87934968D03*
X173000000Y-87500000D03*
X189476547Y-78917022D03*
X124000000Y-87500000D03*
X131500000Y-87500000D03*
X186910296Y-81799203D03*
X97000000Y-87750000D03*
X177083290Y-75576708D03*
X146500000Y-98000000D03*
X163000000Y-83500000D03*
X115000000Y-98000000D03*
X136000000Y-83500000D03*
X97000000Y-83500919D03*
X180046659Y-74858934D03*
X110500000Y-87500000D03*
X161500000Y-87500000D03*
X137500000Y-83500000D03*
X125500000Y-98000000D03*
X127000000Y-98000000D03*
X161500000Y-98000000D03*
X97007460Y-99253531D03*
X166000000Y-98000000D03*
X184524867Y-91642026D03*
X175402208Y-81347049D03*
X139000000Y-83500000D03*
X101500000Y-83500000D03*
X106000000Y-87500000D03*
X116500000Y-98000000D03*
X128500000Y-83500000D03*
X94000000Y-91500000D03*
X127000000Y-87500000D03*
X178539249Y-75111613D03*
X100000000Y-87500000D03*
X167500000Y-87500000D03*
X182999347Y-96018834D03*
X98500000Y-98000000D03*
X178447741Y-95869090D03*
X148000000Y-87500000D03*
X112000000Y-98000000D03*
X177366833Y-91610793D03*
X183092118Y-75007045D03*
X157000000Y-87500000D03*
X94000000Y-83500000D03*
X169000000Y-87500000D03*
X154000000Y-87500000D03*
X179047063Y-78827935D03*
X176426057Y-80251026D03*
X171000000Y-89250000D03*
X128500000Y-87500000D03*
X107500000Y-98000000D03*
X94000000Y-81000000D03*
X148000000Y-98000000D03*
X149500000Y-83500000D03*
X110500000Y-83500000D03*
X122500000Y-98000000D03*
X181574697Y-74823839D03*
X158500000Y-87500000D03*
X133000000Y-83500000D03*
X190992575Y-81562475D03*
X131500000Y-83500000D03*
X95500000Y-81000000D03*
X170948085Y-82022844D03*
X97000000Y-91500000D03*
X112000000Y-87500000D03*
X104500000Y-83500000D03*
X178727808Y-92241094D03*
X154000000Y-98000000D03*
X187935236Y-84599982D03*
X172000000Y-94000000D03*
X185975597Y-80626228D03*
X127000000Y-83500000D03*
X155500000Y-83500000D03*
X146500000Y-87500000D03*
X133000000Y-87500000D03*
X118000000Y-98000000D03*
X143500000Y-87500000D03*
X177659890Y-79398271D03*
X142000000Y-87500000D03*
X148000000Y-83500000D03*
X176996468Y-95389569D03*
X104500000Y-98000000D03*
X154000000Y-83500000D03*
X172341060Y-79310579D03*
X184478999Y-95635737D03*
X181691647Y-92573542D03*
X95500000Y-90250000D03*
X131500000Y-98000000D03*
X191700001Y-84528331D03*
X106000000Y-83500000D03*
X174160682Y-84058778D03*
X164500000Y-98000000D03*
X97000000Y-100500000D03*
X122500000Y-87500000D03*
X145000000Y-87500000D03*
X103000000Y-87500000D03*
X104500000Y-87500000D03*
X101500000Y-98000000D03*
X173312945Y-78130931D03*
X124000000Y-98000000D03*
X174160682Y-87041204D03*
X113500000Y-98000000D03*
X184812474Y-79679297D03*
X170555478Y-83500000D03*
X139000000Y-98000000D03*
X119500000Y-98000000D03*
X152500000Y-83500000D03*
X184567894Y-75404807D03*
X95500000Y-87750000D03*
X151000000Y-83500000D03*
X143500000Y-83500000D03*
X95500000Y-91500000D03*
X103000000Y-98000000D03*
X143500000Y-98000000D03*
X133000000Y-98000000D03*
X139000000Y-87500000D03*
X97007194Y-92739008D03*
X116500000Y-83500000D03*
X169000000Y-98000000D03*
X115000000Y-83500000D03*
X97007194Y-82239008D03*
X145000000Y-98000000D03*
X157000000Y-98000000D03*
X97000000Y-81000000D03*
X171547364Y-80616787D03*
X97000000Y-96000000D03*
X94000000Y-96000000D03*
X95500000Y-96000632D03*
X97000000Y-85500919D03*
X95500000Y-85500919D03*
X94000000Y-85500919D03*
D11*
X98000000Y-85500919D02*
X171999888Y-85500919D01*
X97652246Y-85500919D02*
X93999944Y-85500919D01*
G04 #@! TA.AperFunction,Conductor*
G36*
X172471177Y-90544812D02*
G01*
X172802343Y-91066641D01*
X172804719Y-91070384D01*
X173170589Y-91573960D01*
X173170597Y-91573970D01*
X173567361Y-92053572D01*
X173567385Y-92053600D01*
X173667223Y-92159916D01*
X173993492Y-92507355D01*
X174447257Y-92933465D01*
X174531426Y-93003095D01*
X174926866Y-93330230D01*
X174926891Y-93330250D01*
X175199860Y-93528572D01*
X175430473Y-93696121D01*
X175956045Y-94029656D01*
X176501523Y-94329533D01*
X176501535Y-94329538D01*
X176501543Y-94329543D01*
X176826106Y-94482269D01*
X177064754Y-94594567D01*
X177643515Y-94823713D01*
X178235522Y-95016065D01*
X178838439Y-95170866D01*
X179449886Y-95287504D01*
X179908244Y-95345406D01*
X180067440Y-95365517D01*
X180067444Y-95365517D01*
X180067450Y-95365518D01*
X180688695Y-95404602D01*
X181311156Y-95404600D01*
X181311178Y-95404600D01*
X181311178Y-95404599D01*
X181932411Y-95365512D01*
X182549975Y-95287494D01*
X183161422Y-95170852D01*
X183161437Y-95170848D01*
X183161446Y-95170846D01*
X183368182Y-95117764D01*
X183764338Y-95016048D01*
X184356344Y-94823692D01*
X184935103Y-94594542D01*
X185498332Y-94329505D01*
X185498352Y-94329493D01*
X185498358Y-94329491D01*
X186043788Y-94029636D01*
X186043788Y-94029635D01*
X186043808Y-94029625D01*
X186569378Y-93696086D01*
X186799940Y-93528571D01*
X186866806Y-93504714D01*
X186935958Y-93520794D01*
X186985438Y-93571707D01*
X187000000Y-93630508D01*
X187000000Y-94374658D01*
X186999154Y-94389232D01*
X186988320Y-94482269D01*
X186981625Y-94510631D01*
X186949705Y-94598698D01*
X186943944Y-94612111D01*
X186613122Y-95273755D01*
X186611803Y-95276393D01*
X186611802Y-95276394D01*
X186500000Y-95500000D01*
X186542704Y-95500000D01*
X186539086Y-95502606D01*
X186418359Y-95571850D01*
X186412258Y-95575130D01*
X185856782Y-95854344D01*
X185850511Y-95857283D01*
X185280539Y-96105553D01*
X185274117Y-96108143D01*
X184691365Y-96324723D01*
X184684809Y-96326956D01*
X184091041Y-96511187D01*
X184084372Y-96513057D01*
X183481381Y-96664386D01*
X183474620Y-96665887D01*
X182864216Y-96783859D01*
X182857383Y-96784986D01*
X182241406Y-96869244D01*
X182234521Y-96869993D01*
X181614869Y-96920277D01*
X181607953Y-96920647D01*
X180986476Y-96936808D01*
X180979551Y-96936798D01*
X180358106Y-96918790D01*
X180351191Y-96918399D01*
X179731690Y-96866273D01*
X179724808Y-96865503D01*
X179109100Y-96779418D01*
X179102270Y-96778271D01*
X178492229Y-96658489D01*
X178485473Y-96656968D01*
X177882913Y-96503842D01*
X177876250Y-96501953D01*
X177283032Y-96315957D01*
X177276483Y-96313704D01*
X176694381Y-96095396D01*
X176687966Y-96092787D01*
X176118727Y-95842822D01*
X176112465Y-95839864D01*
X175557843Y-95559011D01*
X175551753Y-95555714D01*
X175043359Y-95262115D01*
X175026751Y-95249924D01*
X175013460Y-95243852D01*
X174999836Y-95236588D01*
X174989475Y-95230219D01*
X174989472Y-95230217D01*
X174988808Y-95230057D01*
X174984809Y-95228675D01*
X174980579Y-95228596D01*
X174979893Y-95228517D01*
X174967964Y-95230932D01*
X174952676Y-95233062D01*
X174940560Y-95233998D01*
X174939902Y-95234270D01*
X174935875Y-95235495D01*
X174932434Y-95237899D01*
X174931808Y-95238252D01*
X174923581Y-95247213D01*
X174912466Y-95257921D01*
X174903204Y-95265809D01*
X174902831Y-95266416D01*
X174900296Y-95269772D01*
X174898919Y-95273755D01*
X174898627Y-95274393D01*
X174897239Y-95286474D01*
X174894541Y-95301669D01*
X174891683Y-95313500D01*
X174891735Y-95314170D01*
X174891284Y-95338266D01*
X174868326Y-95537927D01*
X174868324Y-95537959D01*
X174850969Y-96019135D01*
X174871317Y-96500194D01*
X174929244Y-96978195D01*
X174929248Y-96978216D01*
X175024393Y-97450199D01*
X175024395Y-97450207D01*
X175156179Y-97913294D01*
X175156188Y-97913322D01*
X175323805Y-98364688D01*
X175323816Y-98364714D01*
X175526235Y-98801577D01*
X175526236Y-98801579D01*
X175762223Y-99221279D01*
X176030314Y-99621209D01*
X176030329Y-99621231D01*
X176328907Y-99998978D01*
X176492955Y-100176065D01*
X176656122Y-100352202D01*
X176656131Y-100352212D01*
X177009965Y-100678735D01*
X177009972Y-100678741D01*
X177009979Y-100678747D01*
X177388298Y-100976600D01*
X177788762Y-101243938D01*
X177788765Y-101243940D01*
X177788770Y-101243943D01*
X177974152Y-101347712D01*
X178208916Y-101479123D01*
X178515392Y-101620414D01*
X178578482Y-101649500D01*
X178646185Y-101680712D01*
X179097885Y-101847469D01*
X179561249Y-101978372D01*
X180033435Y-102072618D01*
X180511547Y-102129629D01*
X180992654Y-102149056D01*
X180992658Y-102149055D01*
X180992662Y-102149056D01*
X181473790Y-102130780D01*
X181473794Y-102130779D01*
X181473807Y-102130779D01*
X181881390Y-102083164D01*
X181952047Y-102074911D01*
X181952050Y-102074910D01*
X181952054Y-102074910D01*
X181952059Y-102074908D01*
X181952071Y-102074907D01*
X182097555Y-102046230D01*
X182424463Y-101981793D01*
X182888138Y-101851997D01*
X183340236Y-101686320D01*
X183777985Y-101485776D01*
X184198700Y-101251596D01*
X184198700Y-101251595D01*
X184198707Y-101251592D01*
X184198713Y-101251588D01*
X184599787Y-100985225D01*
X184599787Y-100985224D01*
X184599802Y-100985215D01*
X184826144Y-100807888D01*
X184978810Y-100688283D01*
X184978815Y-100688278D01*
X184978831Y-100688266D01*
X185333464Y-100362572D01*
X185661525Y-100010127D01*
X185961005Y-99633094D01*
X186230065Y-99233785D01*
X186467056Y-98814647D01*
X186495654Y-98753312D01*
X186573769Y-98585772D01*
X186670526Y-98378250D01*
X186839226Y-97927272D01*
X186972123Y-97464476D01*
X187068401Y-96992700D01*
X187127469Y-96514838D01*
X187144764Y-96127861D01*
X187148967Y-96033830D01*
X187148967Y-96033819D01*
X187132762Y-95552592D01*
X187120794Y-95446280D01*
X187133049Y-95376352D01*
X187156908Y-95343092D01*
X187750003Y-94749997D01*
X188418667Y-94081332D01*
X188428628Y-94072379D01*
X188495788Y-94018209D01*
X188518321Y-94003700D01*
X188595417Y-93964981D01*
X188607698Y-93959613D01*
X191816305Y-92756385D01*
X191832909Y-92751433D01*
X191941443Y-92727054D01*
X191975936Y-92724181D01*
X192078221Y-92729783D01*
X192112201Y-92736407D01*
X192209103Y-92769637D01*
X192239998Y-92785260D01*
X192324194Y-92843608D01*
X192349671Y-92867051D01*
X192395746Y-92922975D01*
X192423625Y-92988269D01*
X192424500Y-93003095D01*
X192424500Y-95998248D01*
X192424450Y-96001782D01*
X192406626Y-96637038D01*
X192406230Y-96644094D01*
X192352962Y-97275607D01*
X192352171Y-97282631D01*
X192263576Y-97910179D01*
X192262392Y-97917146D01*
X192138753Y-98538725D01*
X192137180Y-98545616D01*
X191978884Y-99159276D01*
X191976928Y-99166067D01*
X191784464Y-99769916D01*
X191782129Y-99776587D01*
X191556127Y-100368651D01*
X191553423Y-100375181D01*
X191294560Y-100953682D01*
X191291493Y-100960050D01*
X191000607Y-101523114D01*
X190997188Y-101529299D01*
X190675202Y-102075146D01*
X190671442Y-102081131D01*
X190319337Y-102608093D01*
X190315247Y-102613857D01*
X189934166Y-103120225D01*
X189929760Y-103125751D01*
X189520866Y-103609979D01*
X189516156Y-103615249D01*
X189080769Y-104075772D01*
X189075772Y-104080769D01*
X188615249Y-104516156D01*
X188609979Y-104520866D01*
X188125751Y-104929760D01*
X188120225Y-104934166D01*
X187613857Y-105315247D01*
X187608093Y-105319337D01*
X187081131Y-105671442D01*
X187075146Y-105675202D01*
X186529299Y-105997188D01*
X186523114Y-106000607D01*
X185960050Y-106291493D01*
X185953682Y-106294560D01*
X185375181Y-106553423D01*
X185368651Y-106556127D01*
X184776587Y-106782129D01*
X184769916Y-106784464D01*
X184166067Y-106976928D01*
X184159276Y-106978884D01*
X183545616Y-107137180D01*
X183538725Y-107138753D01*
X182917146Y-107262392D01*
X182910179Y-107263576D01*
X182282631Y-107352171D01*
X182275607Y-107352962D01*
X181644094Y-107406230D01*
X181637038Y-107406626D01*
X181148740Y-107420326D01*
X181091250Y-107408238D01*
X181076242Y-107401126D01*
X181076241Y-107401126D01*
X181076239Y-107401125D01*
X181044026Y-107401325D01*
X181042169Y-107401322D01*
X181041468Y-107401316D01*
X181039739Y-107401290D01*
X180394673Y-107386916D01*
X180387498Y-107386551D01*
X179745750Y-107335549D01*
X179738606Y-107334776D01*
X179100794Y-107247274D01*
X179093707Y-107246095D01*
X178461927Y-107122384D01*
X178454918Y-107120803D01*
X177831195Y-106961275D01*
X177824288Y-106959296D01*
X177210713Y-106764489D01*
X177203930Y-106762121D01*
X176602431Y-106532648D01*
X176595794Y-106529897D01*
X176008343Y-106266509D01*
X176001874Y-106263383D01*
X175430417Y-105966952D01*
X175424156Y-105963475D01*
X174870467Y-105634919D01*
X174864405Y-105631083D01*
X174330396Y-105271537D01*
X174324553Y-105267356D01*
X173811897Y-104877949D01*
X173806302Y-104873442D01*
X173316671Y-104455444D01*
X173311342Y-104450625D01*
X172846347Y-104005413D01*
X172841301Y-104000299D01*
X172402421Y-103529287D01*
X172397674Y-103523892D01*
X171986359Y-103028634D01*
X171981929Y-103022979D01*
X171926882Y-102948430D01*
X171599516Y-102505089D01*
X171595421Y-102499199D01*
X171576143Y-102469711D01*
X171243129Y-101960322D01*
X171239376Y-101954206D01*
X171218633Y-101918144D01*
X170991415Y-101523114D01*
X170918392Y-101396159D01*
X170914989Y-101389832D01*
X170899312Y-101358579D01*
X170626319Y-100814365D01*
X170623309Y-100807909D01*
X170367907Y-100216920D01*
X170365263Y-100210291D01*
X170155376Y-99636886D01*
X170150976Y-99621209D01*
X170150498Y-99620055D01*
X170150498Y-99620053D01*
X170142758Y-99601372D01*
X170139670Y-99593109D01*
X170131864Y-99569738D01*
X170131862Y-99569736D01*
X170130750Y-99567908D01*
X170107825Y-99544986D01*
X170106563Y-99543706D01*
X170106512Y-99543654D01*
X170104588Y-99541674D01*
X170083983Y-99520474D01*
X170083981Y-99520473D01*
X170057138Y-99510649D01*
X170052252Y-99508744D01*
X170028440Y-99498883D01*
X170022704Y-99497273D01*
X170019462Y-99496861D01*
X169998757Y-99498896D01*
X169986447Y-99499500D01*
X169041535Y-99499568D01*
X169013301Y-99499568D01*
X169013297Y-99499569D01*
X169002773Y-99503928D01*
X169000000Y-99500000D01*
X168740922Y-99500000D01*
X168740916Y-99500000D01*
X100207104Y-99500000D01*
X100000000Y-99500000D01*
X99853558Y-99646442D01*
X99853537Y-99646461D01*
X98152287Y-101347712D01*
X98139896Y-101358579D01*
X98056055Y-101422913D01*
X98027569Y-101439360D01*
X97937627Y-101476615D01*
X97905856Y-101485128D01*
X97827917Y-101495388D01*
X97801080Y-101498922D01*
X97784635Y-101500000D01*
X93508258Y-101500000D01*
X93491812Y-101498922D01*
X93387037Y-101485128D01*
X93355265Y-101476615D01*
X93265326Y-101439361D01*
X93236840Y-101422914D01*
X93159605Y-101363649D01*
X93136351Y-101340396D01*
X93101536Y-101295024D01*
X93075937Y-101228807D01*
X93075500Y-101218323D01*
X93075500Y-97781677D01*
X93095502Y-97713556D01*
X93101531Y-97704981D01*
X93136351Y-97659603D01*
X93159603Y-97636351D01*
X93236843Y-97577082D01*
X93265321Y-97560640D01*
X93355270Y-97523382D01*
X93387033Y-97514872D01*
X93468592Y-97504134D01*
X93491813Y-97501078D01*
X93508258Y-97500000D01*
X97999993Y-97500000D01*
X98000000Y-97500000D01*
X98500000Y-97500000D01*
X98500000Y-94500000D01*
X98000002Y-94500000D01*
X93508258Y-94500000D01*
X93491812Y-94498922D01*
X93387037Y-94485128D01*
X93355265Y-94476615D01*
X93265326Y-94439361D01*
X93236840Y-94422914D01*
X93159605Y-94363649D01*
X93136351Y-94340396D01*
X93101536Y-94295024D01*
X93075937Y-94228807D01*
X93075500Y-94218323D01*
X93075500Y-90501588D01*
X98000000Y-90605190D01*
X100000000Y-92500000D01*
X168750000Y-92500000D01*
X169000000Y-92500000D01*
X170500000Y-90500000D01*
X172446541Y-90500000D01*
X172471177Y-90544812D01*
G37*
G04 #@! TD.AperFunction*
G04 #@! TA.AperFunction,Conductor*
G36*
X177394625Y-90543917D02*
G01*
X177394613Y-90543926D01*
X177208238Y-90686881D01*
X177202924Y-90690741D01*
X177186668Y-90701914D01*
X177184698Y-90704624D01*
X177179107Y-90723500D01*
X177177071Y-90729766D01*
X177170500Y-90748323D01*
X177170500Y-90751676D01*
X177177070Y-90770229D01*
X177179107Y-90776499D01*
X177184697Y-90795369D01*
X177186674Y-90798089D01*
X177202923Y-90809257D01*
X177208218Y-90813102D01*
X177394618Y-90956077D01*
X177394625Y-90956082D01*
X177608260Y-91095286D01*
X177797087Y-91218325D01*
X178143434Y-91407760D01*
X178218536Y-91448837D01*
X178656464Y-91646245D01*
X178656466Y-91646246D01*
X178656469Y-91646247D01*
X179108289Y-91809384D01*
X179571319Y-91937282D01*
X180042817Y-92029183D01*
X180519986Y-92084542D01*
X181000000Y-92103032D01*
X181480014Y-92084542D01*
X181957183Y-92029183D01*
X182428681Y-91937282D01*
X182891711Y-91809384D01*
X183343531Y-91646247D01*
X183781464Y-91448837D01*
X184202913Y-91218325D01*
X184484036Y-91035146D01*
X184506616Y-91020433D01*
X184574609Y-91000002D01*
X184575403Y-91000000D01*
X184823176Y-91000000D01*
X184843358Y-91001627D01*
X184880019Y-91007576D01*
X184971264Y-91022382D01*
X185009556Y-91035146D01*
X185076809Y-91070384D01*
X185124336Y-91095286D01*
X185141458Y-91106094D01*
X185782738Y-91587054D01*
X185825233Y-91643928D01*
X185830234Y-91714748D01*
X185796153Y-91777030D01*
X185785828Y-91786261D01*
X185719069Y-91839644D01*
X185711970Y-91844923D01*
X185262669Y-92155149D01*
X185255218Y-92159916D01*
X184785262Y-92437850D01*
X184777505Y-92442077D01*
X184647105Y-92507311D01*
X184289197Y-92686355D01*
X184281151Y-92690032D01*
X183776912Y-92899443D01*
X183768628Y-92902547D01*
X183250940Y-93076060D01*
X183242459Y-93078575D01*
X182713875Y-93215336D01*
X182705238Y-93217250D01*
X182168355Y-93316587D01*
X182159605Y-93317890D01*
X181617081Y-93379309D01*
X181608261Y-93379995D01*
X181062771Y-93403196D01*
X181053925Y-93403262D01*
X180508126Y-93388130D01*
X180499297Y-93387574D01*
X179955937Y-93334186D01*
X179947169Y-93333013D01*
X179408869Y-93241628D01*
X179400205Y-93239842D01*
X178869651Y-93110912D01*
X178861133Y-93108522D01*
X178340944Y-92942687D01*
X178332615Y-92939706D01*
X177825335Y-92737776D01*
X177817236Y-92734218D01*
X177325375Y-92497192D01*
X177317545Y-92493074D01*
X176843525Y-92222119D01*
X176836004Y-92217462D01*
X176382172Y-91913920D01*
X176374996Y-91908747D01*
X175943572Y-91574103D01*
X175936777Y-91568439D01*
X175529909Y-91204358D01*
X175523527Y-91198231D01*
X175143189Y-90806480D01*
X175137263Y-90799931D01*
X174884432Y-90500000D01*
X177462025Y-90500000D01*
X177394625Y-90543917D01*
G37*
G04 #@! TD.AperFunction*
G04 #@! TA.AperFunction,Conductor*
G36*
X181491158Y-77713837D02*
G01*
X181500085Y-77714404D01*
X182042820Y-77768371D01*
X182051674Y-77769570D01*
X182589193Y-77861931D01*
X182597929Y-77863754D01*
X183037519Y-77971901D01*
X183127541Y-77994048D01*
X183136152Y-77996494D01*
X183655167Y-78164058D01*
X183663566Y-78167104D01*
X184169379Y-78371097D01*
X184177544Y-78374732D01*
X184667595Y-78614123D01*
X184675489Y-78618333D01*
X185147305Y-78891912D01*
X185154863Y-78896661D01*
X185606066Y-79203050D01*
X185613289Y-79208339D01*
X186041594Y-79545986D01*
X186048422Y-79551774D01*
X186451659Y-79918966D01*
X186458060Y-79925224D01*
X186573680Y-80046606D01*
X186763305Y-80245681D01*
X186834232Y-80320142D01*
X186840166Y-80326833D01*
X187168019Y-80724043D01*
X187187333Y-80747443D01*
X187192780Y-80754541D01*
X187509220Y-81198756D01*
X187514151Y-81206227D01*
X187798238Y-81671765D01*
X187802627Y-81679567D01*
X188052949Y-82164111D01*
X188056772Y-82172205D01*
X188272065Y-82673306D01*
X188275305Y-82681651D01*
X188454474Y-83196771D01*
X188457112Y-83205325D01*
X188599249Y-83731845D01*
X188601274Y-83740564D01*
X188705677Y-84275878D01*
X188707077Y-84284720D01*
X188773206Y-84826075D01*
X188773975Y-84834994D01*
X188801501Y-85379682D01*
X188801635Y-85388632D01*
X188790419Y-85933903D01*
X188789917Y-85942841D01*
X188740014Y-86485934D01*
X188738879Y-86494813D01*
X188650544Y-87032999D01*
X188648781Y-87041776D01*
X188584274Y-87312696D01*
X188549038Y-87374331D01*
X188486072Y-87407132D01*
X188415369Y-87400683D01*
X188372606Y-87372606D01*
X187146462Y-86146461D01*
X187146454Y-86146454D01*
X187146447Y-86146447D01*
X187036541Y-86036541D01*
X187029942Y-85980299D01*
X187030885Y-85971876D01*
X187034475Y-85939791D01*
X187050237Y-85461156D01*
X187046521Y-85379682D01*
X187028420Y-84982768D01*
X187028419Y-84982765D01*
X187028419Y-84982758D01*
X186969157Y-84507544D01*
X186872815Y-84038441D01*
X186739986Y-83578336D01*
X186571488Y-83130063D01*
X186368359Y-82696382D01*
X186131850Y-82279965D01*
X185944435Y-82003072D01*
X185863422Y-81883381D01*
X185863421Y-81883380D01*
X185863417Y-81883374D01*
X185604557Y-81558983D01*
X185564720Y-81509061D01*
X185564716Y-81509057D01*
X185564713Y-81509053D01*
X185237577Y-81159307D01*
X185082098Y-81017256D01*
X184884024Y-80836288D01*
X184789243Y-80762454D01*
X184506232Y-80541988D01*
X184106526Y-80278217D01*
X184070837Y-80258496D01*
X183687381Y-80046606D01*
X183687377Y-80046604D01*
X183687368Y-80046599D01*
X183251339Y-79848562D01*
X183251338Y-79848561D01*
X183251330Y-79848558D01*
X182801139Y-79685329D01*
X182801105Y-79685318D01*
X182339506Y-79557894D01*
X182339490Y-79557891D01*
X181922441Y-79477316D01*
X181869295Y-79467048D01*
X181393420Y-79413354D01*
X180914800Y-79397139D01*
X180914797Y-79397139D01*
X180914794Y-79397139D01*
X180766772Y-79403749D01*
X180436382Y-79418504D01*
X180436374Y-79418504D01*
X180436373Y-79418505D01*
X180436365Y-79418505D01*
X179961126Y-79477314D01*
X179961116Y-79477316D01*
X179491918Y-79573214D01*
X179031694Y-79705606D01*
X179031683Y-79705609D01*
X178583269Y-79873676D01*
X178583232Y-79873691D01*
X178149393Y-80076394D01*
X177732746Y-80312512D01*
X177335903Y-80580569D01*
X177335891Y-80580577D01*
X176961318Y-80878902D01*
X176961286Y-80878930D01*
X176611236Y-81205729D01*
X176611230Y-81205736D01*
X176287885Y-81558974D01*
X176287877Y-81558983D01*
X175993236Y-81936476D01*
X175993225Y-81936490D01*
X175729081Y-82335938D01*
X175729073Y-82335951D01*
X175497062Y-82754885D01*
X175497056Y-82754898D01*
X175298619Y-83190712D01*
X175298612Y-83190728D01*
X175134960Y-83640756D01*
X175134946Y-83640799D01*
X175007087Y-84102265D01*
X175007082Y-84102287D01*
X175007081Y-84102293D01*
X174959229Y-84348721D01*
X174915791Y-84572417D01*
X174861649Y-85048226D01*
X174844981Y-85526836D01*
X174865892Y-86005262D01*
X174865892Y-86005269D01*
X174865893Y-86005273D01*
X174890068Y-86202132D01*
X174890231Y-86203453D01*
X174890737Y-86226870D01*
X174893943Y-86240256D01*
X174896468Y-86254242D01*
X174898144Y-86267889D01*
X174899060Y-86270516D01*
X174900162Y-86272567D01*
X174901844Y-86274781D01*
X174902307Y-86275177D01*
X174902308Y-86275178D01*
X174906889Y-86279095D01*
X174912297Y-86283718D01*
X174922568Y-86293556D01*
X174931955Y-86303622D01*
X174934201Y-86305181D01*
X174936359Y-86306223D01*
X174938973Y-86307010D01*
X174939597Y-86307059D01*
X174939599Y-86307061D01*
X174952726Y-86308101D01*
X174966781Y-86310017D01*
X174979692Y-86312527D01*
X174979694Y-86312525D01*
X174980302Y-86312644D01*
X174983051Y-86312585D01*
X174985385Y-86312164D01*
X174987983Y-86311257D01*
X174988507Y-86310935D01*
X174988508Y-86310936D01*
X174999731Y-86304067D01*
X175012253Y-86297342D01*
X175024157Y-86291792D01*
X175024157Y-86291790D01*
X175027615Y-86290178D01*
X175042635Y-86279099D01*
X175575582Y-85973669D01*
X175581945Y-85970262D01*
X176162612Y-85680605D01*
X176169169Y-85677567D01*
X176765596Y-85421863D01*
X176772300Y-85419216D01*
X177382480Y-85198327D01*
X177389319Y-85196072D01*
X178011213Y-85010736D01*
X178018197Y-85008872D01*
X178649732Y-84859706D01*
X178656809Y-84858249D01*
X179295880Y-84745747D01*
X179303057Y-84744696D01*
X179947539Y-84669232D01*
X179954753Y-84668598D01*
X180602544Y-84630419D01*
X180609758Y-84630202D01*
X181258657Y-84629439D01*
X181265904Y-84629639D01*
X181913784Y-84666293D01*
X181920964Y-84666908D01*
X182565635Y-84740856D01*
X182572815Y-84741890D01*
X183212142Y-84852884D01*
X183219236Y-84854328D01*
X183815607Y-84993707D01*
X183851104Y-85002003D01*
X183858131Y-85003861D01*
X184480391Y-85187712D01*
X184487299Y-85189971D01*
X184697557Y-85265526D01*
X185097973Y-85409414D01*
X185104719Y-85412061D01*
X185701707Y-85666342D01*
X185708273Y-85669365D01*
X186002486Y-85815265D01*
X186289597Y-85957643D01*
X186296013Y-85961058D01*
X186542739Y-86101686D01*
X186559572Y-86119145D01*
X186611802Y-86223605D01*
X186611803Y-86223607D01*
X186750000Y-86500000D01*
X186800749Y-86601499D01*
X186943944Y-86887888D01*
X186949705Y-86901301D01*
X186981625Y-86989368D01*
X186988320Y-87017730D01*
X186999154Y-87110767D01*
X187000000Y-87125341D01*
X187000000Y-88740245D01*
X186998498Y-88759640D01*
X186996999Y-88769261D01*
X186979325Y-88882704D01*
X186967525Y-88919656D01*
X186916240Y-89022225D01*
X186893758Y-89053837D01*
X186806809Y-89143015D01*
X186792193Y-89155854D01*
X185141458Y-90393905D01*
X185124336Y-90404713D01*
X185009558Y-90464852D01*
X184971263Y-90477617D01*
X184843359Y-90498373D01*
X184823176Y-90500000D01*
X184575403Y-90500000D01*
X184507282Y-90479998D01*
X184506616Y-90479567D01*
X184202913Y-90281675D01*
X183781463Y-90051162D01*
X183343535Y-89853754D01*
X182891703Y-89690613D01*
X182428682Y-89562718D01*
X181957190Y-89470818D01*
X181957186Y-89470817D01*
X181480014Y-89415458D01*
X181000000Y-89396968D01*
X180519985Y-89415458D01*
X180042813Y-89470817D01*
X180042809Y-89470818D01*
X179571317Y-89562718D01*
X179108296Y-89690613D01*
X178656464Y-89853754D01*
X178218536Y-90051162D01*
X177797086Y-90281675D01*
X177394624Y-90543918D01*
X177394613Y-90543926D01*
X177208238Y-90686881D01*
X177202924Y-90690741D01*
X177186668Y-90701914D01*
X177184698Y-90704624D01*
X177179107Y-90723500D01*
X177177071Y-90729766D01*
X177170500Y-90748323D01*
X177170500Y-90751676D01*
X177177070Y-90770229D01*
X177179107Y-90776499D01*
X177184697Y-90795369D01*
X177186674Y-90798089D01*
X177202923Y-90809257D01*
X177208218Y-90813102D01*
X177339884Y-90914094D01*
X177394625Y-90956082D01*
X177462025Y-91000000D01*
X175471075Y-91000000D01*
X175243739Y-90768374D01*
X175237699Y-90761767D01*
X175153922Y-90663306D01*
X174884253Y-90346368D01*
X174878722Y-90339378D01*
X174555659Y-89899928D01*
X174550649Y-89892581D01*
X174259584Y-89431275D01*
X174255098Y-89423569D01*
X174240847Y-89396968D01*
X173997554Y-88942822D01*
X173993610Y-88934786D01*
X173770853Y-88436979D01*
X173767489Y-88428684D01*
X173579799Y-87914012D01*
X173578340Y-87909780D01*
X173547578Y-87815107D01*
X173449986Y-87636025D01*
X173449985Y-87636023D01*
X173321145Y-87477919D01*
X173321143Y-87477917D01*
X173165450Y-87346182D01*
X173165448Y-87346181D01*
X173165447Y-87346180D01*
X172988194Y-87245295D01*
X172988190Y-87245293D01*
X172988189Y-87245293D01*
X172988187Y-87245292D01*
X172795426Y-87178698D01*
X172795418Y-87178696D01*
X172593693Y-87148655D01*
X172389877Y-87156191D01*
X172389876Y-87156191D01*
X172190927Y-87201049D01*
X172190910Y-87201054D01*
X172003599Y-87281701D01*
X172003597Y-87281702D01*
X171834277Y-87395406D01*
X171688733Y-87538285D01*
X171571922Y-87705475D01*
X171487821Y-87891280D01*
X171439295Y-88089376D01*
X171439294Y-88089383D01*
X171427994Y-88293014D01*
X171427994Y-88293018D01*
X171454303Y-88495256D01*
X171454305Y-88495264D01*
X171502437Y-88643397D01*
X171502467Y-88643463D01*
X171553417Y-88800269D01*
X171582975Y-88891238D01*
X171812448Y-89470817D01*
X171814442Y-89475851D01*
X172082157Y-90044769D01*
X172385048Y-90595722D01*
X172385058Y-90595739D01*
X172385060Y-90595742D01*
X172641612Y-91000000D01*
X170500000Y-91000000D01*
X170077833Y-90437110D01*
X169150001Y-89200001D01*
X169150000Y-89200000D01*
X169000000Y-89000000D01*
X168750002Y-89000000D01*
X100207104Y-89000000D01*
X100000000Y-89000000D01*
X99853558Y-89146442D01*
X99853537Y-89146461D01*
X98565972Y-90434025D01*
X98565967Y-90434032D01*
X98565963Y-90434036D01*
X98000000Y-91000000D01*
X93075500Y-91000000D01*
X93075500Y-87281677D01*
X93095502Y-87213556D01*
X93101531Y-87204981D01*
X93136351Y-87159603D01*
X93159603Y-87136351D01*
X93236843Y-87077082D01*
X93265321Y-87060640D01*
X93355270Y-87023382D01*
X93387033Y-87014872D01*
X93468592Y-87004134D01*
X93491813Y-87001078D01*
X93508258Y-87000000D01*
X97999993Y-87000000D01*
X98000000Y-87000000D01*
X98500000Y-87000000D01*
X98500000Y-86632465D01*
X98506886Y-86623920D01*
X98574249Y-86601499D01*
X98578747Y-86601419D01*
X172040009Y-86601419D01*
X172051634Y-86601956D01*
X172096701Y-86606132D01*
X172096702Y-86606131D01*
X172096705Y-86606132D01*
X172096707Y-86606132D01*
X172207473Y-86595867D01*
X172299784Y-86587313D01*
X172495951Y-86531499D01*
X172678522Y-86440589D01*
X172841279Y-86317679D01*
X172978681Y-86166956D01*
X173086048Y-85993552D01*
X173159724Y-85803371D01*
X173197200Y-85602891D01*
X173197199Y-85503138D01*
X173197279Y-85498663D01*
X173199903Y-85424831D01*
X173216731Y-84951387D01*
X173217363Y-84942496D01*
X173275390Y-84400152D01*
X173276651Y-84391342D01*
X173373037Y-83854489D01*
X173374920Y-83845791D01*
X173509174Y-83317163D01*
X173511682Y-83308577D01*
X173547306Y-83200994D01*
X173683127Y-82790821D01*
X173686238Y-82782438D01*
X173697585Y-82754898D01*
X173894009Y-82278164D01*
X173897692Y-82270056D01*
X174140761Y-81781771D01*
X174145007Y-81773950D01*
X174422135Y-81304151D01*
X174426911Y-81296674D01*
X174736699Y-80847726D01*
X174742009Y-80840588D01*
X175082880Y-80414785D01*
X175088686Y-80408038D01*
X175458931Y-80007506D01*
X175465196Y-80001194D01*
X175862936Y-79627969D01*
X175869638Y-79622113D01*
X176292899Y-79278050D01*
X176299979Y-79272702D01*
X176746571Y-78959579D01*
X176754064Y-78954713D01*
X177221751Y-78674093D01*
X177229528Y-78669795D01*
X177716003Y-78423067D01*
X177724072Y-78419329D01*
X178226795Y-78207780D01*
X178235137Y-78204614D01*
X178751587Y-78029303D01*
X178760152Y-78026730D01*
X179287757Y-77888524D01*
X179296478Y-77886568D01*
X179832577Y-77786169D01*
X179841375Y-77784843D01*
X180383251Y-77722762D01*
X180392161Y-77722061D01*
X180937060Y-77698608D01*
X180945978Y-77698542D01*
X181491158Y-77713837D01*
G37*
G04 #@! TD.AperFunction*
G04 #@! TA.AperFunction,Conductor*
G36*
X180962649Y-74076348D02*
G01*
X180977151Y-74076025D01*
X180977152Y-74076026D01*
X180996800Y-74075589D01*
X180999428Y-74075531D01*
X181002226Y-74075500D01*
X181003868Y-74075500D01*
X181004733Y-74075502D01*
X181648190Y-74079923D01*
X181655462Y-74080185D01*
X182297005Y-74121974D01*
X182304254Y-74122658D01*
X182942244Y-74201676D01*
X182949488Y-74202788D01*
X183067855Y-74224498D01*
X183581817Y-74318769D01*
X183588939Y-74320291D01*
X184189447Y-74466979D01*
X184213423Y-74472836D01*
X184220490Y-74474781D01*
X184835073Y-74663385D01*
X184842014Y-74665739D01*
X185444548Y-74889743D01*
X185451319Y-74892486D01*
X186039875Y-75151175D01*
X186046444Y-75154293D01*
X186618961Y-75446765D01*
X186625356Y-75450270D01*
X187179880Y-75775525D01*
X187186067Y-75779400D01*
X187720733Y-76136342D01*
X187726686Y-76140571D01*
X188239686Y-76527991D01*
X188245403Y-76532576D01*
X188735008Y-76949169D01*
X188740438Y-76954068D01*
X188851446Y-77060249D01*
X189204989Y-77398421D01*
X189210136Y-77403639D01*
X189648062Y-77874249D01*
X189652897Y-77879758D01*
X190062715Y-78375031D01*
X190067221Y-78380811D01*
X190447547Y-78899073D01*
X190451710Y-78905106D01*
X190801265Y-79444617D01*
X190805069Y-79450881D01*
X191122648Y-80009776D01*
X191126083Y-80016251D01*
X191410650Y-80592711D01*
X191413701Y-80599375D01*
X191525964Y-80864624D01*
X191650683Y-81159307D01*
X191664247Y-81191354D01*
X191666903Y-81198175D01*
X191701982Y-81296651D01*
X191882624Y-81803776D01*
X191884881Y-81810749D01*
X192065013Y-82427833D01*
X192066861Y-82434925D01*
X192210809Y-83061438D01*
X192212242Y-83068626D01*
X192319518Y-83702450D01*
X192320531Y-83709709D01*
X192390774Y-84348721D01*
X192391362Y-84356027D01*
X192414951Y-84815370D01*
X192423546Y-84982758D01*
X192424334Y-84998093D01*
X192424500Y-85004555D01*
X192424500Y-88496903D01*
X192404498Y-88565024D01*
X192395747Y-88577022D01*
X192349672Y-88632947D01*
X192324194Y-88656391D01*
X192239998Y-88714739D01*
X192209101Y-88730363D01*
X192112201Y-88763592D01*
X192078220Y-88770216D01*
X191975943Y-88775818D01*
X191941439Y-88772944D01*
X191832920Y-88748569D01*
X191816291Y-88743609D01*
X191807320Y-88740245D01*
X190998611Y-88436979D01*
X190717433Y-88331537D01*
X190660673Y-88288890D01*
X190635980Y-88222326D01*
X190639632Y-88182230D01*
X190767506Y-87684190D01*
X190885321Y-87066569D01*
X190956894Y-86500000D01*
X190964123Y-86442779D01*
X190964123Y-86442776D01*
X190964124Y-86442769D01*
X191003602Y-85815252D01*
X191003600Y-85186494D01*
X191003600Y-85186484D01*
X191003599Y-85186482D01*
X190994901Y-85048231D01*
X190964119Y-84558977D01*
X190885313Y-83935177D01*
X190767494Y-83317557D01*
X190765188Y-83308577D01*
X190611128Y-82708561D01*
X190611121Y-82708536D01*
X190519914Y-82427833D01*
X190416828Y-82110569D01*
X190185365Y-81525966D01*
X189917652Y-80957049D01*
X189917646Y-80957038D01*
X189917638Y-80957022D01*
X189614755Y-80406084D01*
X189614745Y-80406067D01*
X189564465Y-80326839D01*
X189277837Y-79875189D01*
X189059447Y-79574603D01*
X188908272Y-79366529D01*
X188908271Y-79366527D01*
X188908261Y-79366514D01*
X188507475Y-78882049D01*
X188507470Y-78882044D01*
X188507468Y-78882041D01*
X188077059Y-78423705D01*
X187654320Y-78026728D01*
X187618714Y-77993292D01*
X187346828Y-77768370D01*
X187134260Y-77592519D01*
X187134235Y-77592499D01*
X186625566Y-77222931D01*
X186094706Y-76886039D01*
X186094699Y-76886035D01*
X186094691Y-76886030D01*
X185543706Y-76583125D01*
X185543699Y-76583121D01*
X185543685Y-76583114D01*
X184974806Y-76315423D01*
X184974788Y-76315415D01*
X184390184Y-76083955D01*
X184390170Y-76083950D01*
X183792198Y-75889659D01*
X183183212Y-75733298D01*
X183183204Y-75733297D01*
X182565579Y-75615480D01*
X182565566Y-75615478D01*
X181941782Y-75536676D01*
X181314267Y-75497198D01*
X180685488Y-75497198D01*
X180685486Y-75497199D01*
X180058006Y-75536679D01*
X180057991Y-75536680D01*
X180057981Y-75536681D01*
X180057971Y-75536682D01*
X180057963Y-75536683D01*
X179434186Y-75615486D01*
X179434173Y-75615488D01*
X178816563Y-75733304D01*
X178816536Y-75733310D01*
X178207565Y-75889669D01*
X178207550Y-75889674D01*
X177609576Y-76083970D01*
X177609570Y-76083972D01*
X177024968Y-76315433D01*
X177024950Y-76315441D01*
X176456056Y-76583144D01*
X176456026Y-76583159D01*
X175905088Y-76886042D01*
X175905056Y-76886061D01*
X175374205Y-77222950D01*
X174865532Y-77592524D01*
X174865521Y-77592533D01*
X174865517Y-77592536D01*
X174632445Y-77785351D01*
X174381053Y-77993321D01*
X174381044Y-77993328D01*
X173922708Y-78423737D01*
X173492296Y-78882079D01*
X173091521Y-79366535D01*
X173091501Y-79366560D01*
X172721934Y-79875230D01*
X172385041Y-80406089D01*
X172385033Y-80406102D01*
X172385032Y-80406105D01*
X172230115Y-80687900D01*
X172082116Y-80957111D01*
X171814424Y-81525989D01*
X171814416Y-81526007D01*
X171582956Y-82110611D01*
X171582951Y-82110625D01*
X171388660Y-82708598D01*
X171232299Y-83317583D01*
X171232298Y-83317591D01*
X171114481Y-83935216D01*
X171114479Y-83935229D01*
X171069635Y-84290211D01*
X171041253Y-84355288D01*
X170982194Y-84394689D01*
X170944629Y-84400419D01*
X98579509Y-84400419D01*
X98511388Y-84380417D01*
X98500000Y-84367274D01*
X98500000Y-84000000D01*
X98000002Y-84000000D01*
X93508258Y-84000000D01*
X93491812Y-83998922D01*
X93387037Y-83985128D01*
X93355265Y-83976615D01*
X93265326Y-83939361D01*
X93236840Y-83922914D01*
X93159605Y-83863649D01*
X93136351Y-83840396D01*
X93101536Y-83795024D01*
X93075937Y-83728807D01*
X93075500Y-83718323D01*
X93075500Y-80292349D01*
X93095502Y-80224228D01*
X93102206Y-80214781D01*
X93139836Y-80166621D01*
X93163641Y-80143311D01*
X93242639Y-80084220D01*
X93271724Y-80067967D01*
X93363444Y-80031661D01*
X93395782Y-80023600D01*
X93497499Y-80012199D01*
X93502201Y-80011672D01*
X93518884Y-80010916D01*
X96524765Y-80074154D01*
X97799134Y-80100964D01*
X97814527Y-80102236D01*
X97912783Y-80116476D01*
X97942580Y-80124621D01*
X98027183Y-80159370D01*
X98054104Y-80174521D01*
X98133995Y-80233447D01*
X98145861Y-80243380D01*
X98816694Y-80878930D01*
X100000000Y-82000000D01*
X168740915Y-82000000D01*
X168740922Y-82000000D01*
X169000000Y-82000000D01*
X169003602Y-81994895D01*
X169019093Y-81994904D01*
X169019094Y-81994903D01*
X169031287Y-81994910D01*
X169031859Y-81994852D01*
X169923757Y-81994118D01*
X169937344Y-81996300D01*
X169937446Y-81995236D01*
X169951575Y-81996577D01*
X169951576Y-81996578D01*
X170019970Y-82003073D01*
X170084408Y-81979249D01*
X170132128Y-81929826D01*
X170142348Y-81898891D01*
X170143482Y-81895617D01*
X170148957Y-81880503D01*
X170150956Y-81875343D01*
X170151774Y-81873367D01*
X170151773Y-81873364D01*
X170153750Y-81868583D01*
X170155321Y-81862937D01*
X170363220Y-81289099D01*
X170365850Y-81282442D01*
X170398702Y-81205729D01*
X170619060Y-80691167D01*
X170622051Y-80684700D01*
X170908540Y-80108843D01*
X170911922Y-80102506D01*
X170926827Y-80076394D01*
X171230781Y-79543893D01*
X171234480Y-79537822D01*
X171584683Y-78998257D01*
X171588733Y-78992392D01*
X171969092Y-78473706D01*
X171973478Y-78468068D01*
X172382811Y-77971872D01*
X172387491Y-77966519D01*
X172824433Y-77494472D01*
X172829410Y-77489393D01*
X173292575Y-77042990D01*
X173297826Y-77038211D01*
X173785645Y-76618966D01*
X173791179Y-76614477D01*
X174302115Y-76223710D01*
X174307899Y-76219543D01*
X174840252Y-75858551D01*
X174846271Y-75854714D01*
X175398351Y-75524643D01*
X175404598Y-75521146D01*
X175974563Y-75223096D01*
X175980983Y-75219968D01*
X176567037Y-74954877D01*
X176573648Y-74952111D01*
X177173821Y-74720871D01*
X177180572Y-74718489D01*
X177792995Y-74521818D01*
X177799817Y-74519840D01*
X178422452Y-74358398D01*
X178429437Y-74356798D01*
X179060216Y-74231118D01*
X179067277Y-74229918D01*
X179704232Y-74140390D01*
X179711355Y-74139596D01*
X180352328Y-74086524D01*
X180359479Y-74086136D01*
X180773563Y-74075541D01*
X180776786Y-74075500D01*
X180956880Y-74075500D01*
X180962649Y-74076348D01*
G37*
G04 #@! TD.AperFunction*
M02*
